SplineFontDB: 3.2
FontName: xkcdScript
FullName: xkcd-Script-Regular
FamilyName: xkcd Script
Weight: Regular
Copyright: Copyright (c) ipython/xkcd-font contributors, Creative Commons Attribution-NonCommercial 3.0 License
% Created with FontForge (http://fontforge.org)
Version: 1.0
ItalicAngle: 0
UnderlinePosition: -102.4
UnderlineWidth: 51.2
Ascent: 600
Descent: 256
InvalidEm: 0
LayerCount: 2
Layer: 0 0 "Back" 1
Layer: 1 0 "Fore" 0
XUID: [1021 50 1675931816 2620]
UniqueID: -1
OS2Version: 0
OS2_WeightWidthSlopeOnly: 0
OS2_UseTypoMetrics: 1
CreationTime: 1601802097
ModificationTime: 1601802103
OS2TypoAscent: 0
OS2TypoAOffset: 1
OS2TypoDescent: 0
OS2TypoDOffset: 1
OS2TypoLinegap: 0
OS2WinAscent: 0
OS2WinAOffset: 1
OS2WinDescent: 0
OS2WinDOffset: 1
HheadAscent: 0
HheadAOffset: 1
HheadDescent: 0
HheadDOffset: 1
OS2Vendor: 'PfEd'
Lookup: 4 0 1 "ligatures" { "liga"  } ['liga' ('latn' <'dflt' > ) ]
Lookup: 258 0 0 "kerning" { "kern"  } ['kern' ('latn' <'dflt' > ) ]
DEI: 91125
Encoding: UnicodeFull
UnicodeInterp: none
NameList: AGL For New Fonts
DisplaySize: -48
AntiAlias: 1
FitToEm: 0
OnlyBitmaps: 1
BeginChars: 1114135 145

StartChar: a
Encoding: 97 97 0
Width: 421
VWidth: 528
Flags: HW
LayerCount: 2
Fore
SplineSet
162 397 m 0
 168 397 183 405 190 406 c 0
 195 407 203 407 208 407 c 0
 218 406 243 397 244 394 c 0
 245 392 249 389 258 381 c 0
 263 376 261 372 265 371 c 0
 268 370 281 343 283 335 c 0
 285 325 286 319 288 319 c 0
 289 319 290 320 290 321 c 0
 290 322 292 324 296 326 c 0
 301 329 305 329 318 327 c 0
 343 324 345 321 347 304 c 0
 348 299 349 295 350 294 c 0
 355 288 349 241 338 209 c 0
 330 186 329 170 334 139 c 0
 337 124 341 107 343 102 c 0
 347 90 362 73 373 66 c 0
 384 59 385 53 374 31 c 0
 365 12 360 6 349 4 c 0
 337 2 312 16 295 36 c 0
 290 42 286 47 286 48 c 0
 286 49 283 56 279 64 c 2
 272 78 l 1
 263 70 l 2
 250 58 241 52 231 44 c 0
 221 37 197 22 192 21 c 0
 134 6 117 7 73 31 c 0
 64 36 48 55 40 73 c 0
 35 83 32 91 32 92 c 0
 32 93 30 97 28 102 c 0
 23 114 19 140 21 145 c 0
 22 147 21 157 21 166 c 0
 19 201 30 222 40 249 c 0
 55 289 68 306 87 332 c 0
 97 346 128 376 139 383 c 0
 143 385 157 397 162 397 c 0
223 314 m 0
 218 318 213 338 205 338 c 0
 202 338 167 315 162 309 c 0
 143 288 119 250 110 229 c 0
 103 211 96 180 96 166 c 0
 96 140 99 118 105 108 c 0
 141 46 220 125 237 153 c 0
 248 172 258 200 258 212 c 0
 258 227 261 241 263 255 c 0
 264 261 265 268 266 271 c 0
 267 275 267 276 264 276 c 0
 255 275 252 276 243 285 c 0
 238 290 232 298 230 303 c 0
 228 308 225 313 223 314 c 0
EndSplineSet
Comment: "char_L3_P6_x1253_y2085_x1446_y2300_YQ+AD0APQAA.svg"
EndChar

StartChar: k
Encoding: 107 107 1
Width: 443
VWidth: 715
Flags: HW
LayerCount: 2
Fore
SplineSet
108 179 m 0
 107 179 100 115 100 98 c 0
 100 67 98 23 96 20 c 0
 89 6 81 6 62 5 c 0
 45 4 33 6 26 14 c 0
 20 21 19 25 21 48 c 0
 22 75 21 81 23 108 c 0
 26 134 29 194 31 221 c 0
 39 313 39 418 53 499 c 0
 54 505 55 513 55 516 c 0
 55 528 61 537 72 540 c 0
 74 540 82 540 91 539 c 0
 109 538 114 536 114 529 c 0
 114 527 115 522 117 520 c 0
 120 516 120 514 121 459 c 0
 121 422 116 328 113 301 c 2
 112 292 l 1
 125 304 l 2
 132 311 144 321 153 328 c 0
 170 342 218 375 220 375 c 0
 222 375 293 423 299 428 c 0
 302 431 306 433 308 434 c 0
 321 438 334 437 338 434 c 0
 341 432 354 410 360 399 c 0
 364 391 363 381 357 376 c 0
 340 362 332 358 313 346 c 0
 296 335 264 315 257 311 c 0
 245 304 243 301 225 288 c 0
 204 273 173 249 169 244 c 0
 164 238 182 230 182 230 c 1
 184 230 209 211 212 208 c 0
 213 207 218 202 223 199 c 0
 236 190 258 165 290 126 c 0
 296 119 308 105 317 96 c 0
 365 47 393 19 392 17 c 0
 391 16 393 13 396 10 c 0
 399 6 400 1 401 -6 c 0
 402 -12 402 -16 403 -17 c 0
 404 -19 397 -31 394 -31 c 0
 393 -31 391 -32 389 -34 c 0
 386 -37 364 -42 361 -45 c 0
 358 -47 343 -46 343 -43 c 0
 343 -42 341 -41 340 -41 c 0
 339 -41 336 -38 334 -35 c 0
 332 -32 324 -22 315 -13 c 0
 282 20 235 73 210 103 c 0
 194 123 158 155 143 164 c 0
 132 171 112 179 108 179 c 0
EndSplineSet
Comment: "char_L1_P28_x5219_y817_x5418_y1121_aw+AD0APQAA.svg"
EndChar

StartChar: l
Encoding: 108 108 2
Width: 171
VWidth: 808
Flags: HW
LayerCount: 2
Fore
SplineSet
55 615 m 0
 58 618 62 619 68 619 c 0
 82 619 108 614 111 610 c 0
 112 608 113 601 113 594 c 0
 112 575 118 586 114 565 c 0
 113 557 112 538 112 522 c 0
 112 477 108 488 107 435 c 0
 105 375 101 385 99 331 c 0
 99 312 97 294 96 290 c 0
 94 281 95 241 97 236 c 0
 100 231 101 131 102 125 c 0
 105 108 110 67 113 55 c 0
 114 53 116 52 118 51 c 0
 124 50 128 41 129 31 c 0
 130 20 132 20 131 9 c 0
 131 3 117 -13 109 -16 c 0
 102 -19 77 -17 71 -13 c 0
 63 -8 50 8 49 13 c 0
 48 16 47 22 45 27 c 0
 33 63 33 88 28 128 c 0
 26 138 25 156 25 167 c 0
 25 178 24 199 22 214 c 0
 18 245 19 278 24 322 c 0
 29 364 37 497 37 532 c 0
 37 561 38 565 44 587 c 0
 49 605 51 612 55 615 c 0
EndSplineSet
Comment: "char_L3_P32_x6375_y1972_x6435_y2311_bA+AD0APQAA.svg"
EndChar

StartChar: m
Encoding: 109 109 3
Width: 575
VWidth: 609
Flags: HW
LayerCount: 2
Fore
SplineSet
156 453 m 0
 169 455 170 454 183 451 c 0
 194 449 221 432 228 422 c 0
 236 411 241 407 247 392 c 0
 255 375 265 346 266 328 c 0
 266 326 269 329 275 338 c 0
 312 392 354 425 402 438 c 0
 414 441 445 441 457 439 c 0
 464 438 483 426 490 419 c 0
 499 410 518 377 518 370 c 0
 518 369 520 365 521 362 c 0
 529 346 530 310 533 286 c 0
 537 259 536 228 530 153 c 0
 526 104 526 122 518 38 c 0
 516 15 515 14 509 8 c 0
 503 2 503 2 483 1 c 2
 463 0 l 1
 456 8 l 2
 443 23 443 24 444 47 c 0
 445 75 453 136 456 163 c 0
 465 255 460 227 457 283 c 0
 453 337 445 365 431 367 c 0
 424 368 407 363 394 355 c 0
 382 348 349 313 334 293 c 0
 308 256 283 190 273 133 c 0
 272 127 264 112 260 108 c 0
 257 106 253 104 241 104 c 0
 220 104 213 107 206 115 c 0
 198 124 196 142 196 197 c 0
 196 243 193 312 190 330 c 0
 188 346 179 365 170 372 c 2
 163 378 l 1
 154 368 l 2
 144 357 138 348 130 329 c 0
 123 314 110 270 110 263 c 0
 110 261 108 251 106 241 c 0
 103 228 102 221 103 211 c 0
 104 203 107 37 108 33 c 0
 110 26 109 24 106 17 c 0
 99 2 99 2 74 1 c 0
 56 0 51 -1 47 2 c 0
 37 8 32 16 32 24 c 0
 32 26 31 33 30 38 c 0
 20 85 20 89 20 119 c 0
 20 151 22 208 24 218 c 0
 32 267 35 245 36 306 c 2
 37 350 l 1
 42 359 l 2
 47 367 49 367 57 368 c 2
 66 369 l 1
 75 386 l 2
 95 420 117 445 156 453 c 0
EndSplineSet
Comment: "char_L3_P27_x5121_y2060_x5396_y2302_bQ+AD0APQAA.svg"
EndChar

StartChar: n
Encoding: 110 110 4
Width: 370
VWidth: 564
Flags: HW
LayerCount: 2
Fore
SplineSet
175 428 m 0
 182 432 217 428 223 422 c 0
 225 420 234 417 237 416 c 0
 238 416 242 411 248 405 c 0
 261 392 275 370 282 351 c 0
 283 347 286 343 287 342 c 0
 289 339 306 288 306 283 c 0
 306 279 314 245 316 237 c 0
 320 224 325 189 326 172 c 0
 326 162 327 151 328 148 c 0
 332 123 332 52 328 31 c 0
 326 17 322 -1 314 -12 c 0
 312 -16 310 -19 310 -20 c 0
 310 -22 300 -23 291 -24 c 0
 284 -25 268 -11 262 -9 c 0
 250 -4 246 6 250 25 c 0
 257 61 257 141 250 186 c 0
 248 199 236 252 230 275 c 0
 223 304 203 349 195 353 c 0
 192 355 189 353 178 348 c 0
 167 343 160 337 145 322 c 0
 122 299 117 292 108 271 c 0
 96 243 95 235 96 186 c 0
 97 162 98 140 99 137 c 0
 106 116 111 41 106 30 c 0
 105 27 103 24 104 24 c 0
 104 24 103 19 100 14 c 0
 93 1 86 -2 59 -3 c 0
 48 -3 40 3 32 19 c 0
 23 37 25 42 22 65 c 0
 20 81 19 89 20 281 c 0
 20 369 19 362 41 367 c 0
 54 370 55 370 61 367 c 0
 64 365 67 362 67 361 c 0
 67 352 74 358 83 366 c 0
 99 382 117 400 135 409 c 0
 146 415 147 419 161 423 c 0
 167 425 173 427 175 428 c 0
EndSplineSet
Comment: "char_L3_P19_x3579_y2073_x3746_y2315_bg+AD0APQAA.svg"
EndChar

StartChar: o
Encoding: 111 111 5
Width: 403
VWidth: 542
Flags: HW
LayerCount: 2
Fore
SplineSet
177 409 m 0
 181 409 191 414 197 415 c 0
 219 419 251 414 267 404 c 0
 276 399 286 393 294 387 c 0
 302 382 326 357 327 353 c 0
 328 350 341 329 341 327 c 0
 341 324 348 311 349 308 c 0
 349 306 351 302 353 297 c 0
 363 270 368 215 358 178 c 0
 351 153 347 142 345 140 c 0
 344 139 342 135 340 131 c 0
 336 123 322 106 318 99 c 0
 311 89 296 70 285 59 c 0
 275 49 247 28 243 28 c 0
 242 28 237 25 232 22 c 0
 219 14 188 1 170 -2 c 0
 139 -8 97 -1 79 13 c 0
 75 16 70 19 67 21 c 0
 52 30 33 61 24 93 c 0
 20 107 20 111 20 153 c 0
 20 203 21 207 36 255 c 0
 44 282 56 310 66 324 c 0
 69 329 72 333 72 334 c 0
 72 337 93 363 103 372 c 0
 125 393 136 400 153 405 c 0
 162 407 175 409 177 409 c 0
234 297 m 0
 231 297 217 312 215 312 c 0
 214 312 212 314 211 316 c 0
 208 321 198 326 195 330 c 0
 193 332 192 333 191 331 c 0
 189 328 176 328 174 331 c 0
 171 336 165 332 153 319 c 0
 119 283 102 238 93 175 c 0
 89 146 91 125 100 102 c 0
 110 76 118 71 148 71 c 0
 168 71 176 75 206 92 c 0
 235 110 257 136 272 163 c 0
 282 180 293 219 287 251 c 0
 285 261 283 273 281 278 c 0
 278 286 265 312 263 312 c 0
 262 312 236 297 234 297 c 0
EndSplineSet
Comment: "char_L3_P9_x1722_y2080_x1906_y2304_bw+AD0APQAA.svg"
EndChar

StartChar: p
Encoding: 112 112 6
Width: 441
VWidth: 639
Flags: HW
LayerCount: 2
Fore
SplineSet
219 443 m 0
 223 445 222 445 241 441 c 0
 274 433 290 428 305 417 c 0
 310 413 316 410 317 410 c 0
 319 411 348 380 353 371 c 0
 364 354 380 321 386 298 c 0
 389 285 391 290 394 277 c 0
 403 238 403 205 399 171 c 0
 399 166 391 141 391 136 c 0
 391 133 387 125 383 119 c 0
 371 100 380 107 359 86 c 0
 345 72 337 66 328 62 c 0
 311 53 319 54 299 48 c 0
 257 37 219 35 189 43 c 0
 165 48 144 54 121 65 c 2
 106 72 l 1
 106 53 l 2
 106 42 106 33 105 32 c 0
 104 30 99 -128 99 -129 c 0
 97 -136 97 -152 97 -170 c 0
 97 -185 86 -205 78 -205 c 0
 76 -205 72 -206 70 -207 c 0
 66 -209 63 -208 54 -205 c 0
 41 -200 43 -204 33 -198 c 0
 21 -191 18 -175 22 -146 c 0
 27 -108 29 31 32 97 c 0
 34 127 36 166 36 181 c 0
 37 197 38 214 39 221 c 0
 41 236 40 257 36 265 c 0
 34 270 34 275 35 297 c 0
 36 320 37 325 41 334 c 0
 44 340 46 346 46 348 c 0
 46 352 55 365 67 379 c 0
 77 390 81 397 83 399 c 0
 86 403 113 419 125 423 c 0
 140 428 135 428 148 432 c 0
 153 433 156 435 157 436 c 0
 159 439 195 443 206 442 c 0
 212 441 217 442 219 443 c 0
226 368 m 0
 198 371 186 370 165 363 c 0
 141 356 123 346 113 333 c 2
 106 324 l 1
 107 311 l 2
 108 304 108 264 109 223 c 2
 111 148 l 1
 117 148 l 2
 121 148 129 145 141 138 c 0
 164 124 169 122 195 117 c 0
 222 111 242 111 265 116 c 0
 324 129 338 177 319 263 c 0
 316 279 312 290 304 306 c 0
 295 325 293 329 280 341 c 0
 261 359 247 366 226 368 c 0
EndSplineSet
Comment: "char_L3_P28_x5401_y2065_x5605_y2413_cA+AD0APQAA.svg"
EndChar

StartChar: q
Encoding: 113 113 7
Width: 472
VWidth: 600
Flags: HW
LayerCount: 2
Fore
SplineSet
361 128 m 0
 361 123 363 118 363 113 c 0
 363 106 361 101 357 95 c 0
 353 88 352 86 349 65 c 0
 344 29 341 -2 341 -31 c 0
 341 -87 348 -128 367 -167 c 0
 372 -178 378 -186 381 -189 c 1
 385 -186 389 -184 394 -184 c 0
 403 -184 418 -197 424 -199 c 0
 430 -201 437 -212 437 -223 c 0
 437 -231 433 -238 423 -249 c 0
 414 -259 404 -262 390 -266 c 0
 388 -267 386 -267 383 -267 c 0
 364 -267 337 -251 324 -232 c 0
 323 -230 321 -229 321 -229 c 0
 316 -225 309 -210 304 -199 c 0
 295 -180 283 -146 279 -129 c 0
 275 -110 269 -96 269 -78 c 0
 269 -78 269 -77 269 -76 c 0
 269 -75 271 -74 271 -72 c 0
 271 -71 l 0
 269 -55 267 -43 267 -30 c 0
 267 -17 269 -2 271 18 c 1
 255 9 230 4 211 -1 c 0
 199 -4 185 -6 170 -6 c 0
 151 -6 135 -2 121 1 c 0
 98 6 63 31 48 49 c 0
 45 52 44 56 41 60 c 0
 33 70 23 95 22 105 c 0
 21 110 16 126 16 132 c 0
 16 135 15 146 15 152 c 0
 15 168 18 191 22 198 c 0
 23 200 25 206 26 212 c 0
 28 221 33 236 37 245 c 0
 43 259 54 281 64 294 c 0
 81 317 97 339 120 361 c 0
 123 363 124 367 128 367 c 0
 131 369 132 373 137 373 c 0
 140 375 142 377 145 379 c 0
 151 382 169 392 177 396 c 0
 178 396 177 397 180 397 c 2
 181 396 l 0
 183 397 187 399 188 400 c 0
 195 403 211 406 219 406 c 0
 224 406 227 404 234 404 c 0
 254 404 267 394 281 387 c 0
 294 380 298 374 310 366 c 0
 322 357 326 354 332 345 c 1
 337 353 339 360 353 360 c 0
 366 360 384 359 390 353 c 0
 394 349 394 343 394 336 c 0
 394 311 389 274 384 259 c 0
 380 248 378 233 375 218 c 0
 366 170 361 137 361 128 c 0
223 333 m 0
 211 333 197 329 185 320 c 0
 151 296 125 262 107 227 c 0
 93 200 89 181 89 147 c 0
 89 102 110 78 145 69 c 0
 156 66 160 65 167 65 c 0
 172 65 179 66 190 67 c 0
 217 71 234 77 259 94 c 0
 279 107 282 113 284 121 c 0
 297 189 299 203 300 210 c 0
 302 231 312 267 315 287 c 1
 310 289 304 290 301 293 c 0
 297 297 291 297 287 301 c 0
 283 305 268 315 264 319 c 0
 261 322 237 333 223 333 c 0
EndSplineSet
Comment: "char_L0_P16_x6184_y171_x6448_y596_cQ+AD0APQAA.svg"
EndChar

StartChar: r
Encoding: 114 114 8
Width: 437
VWidth: 554
Flags: HW
LayerCount: 2
Fore
SplineSet
165 421 m 0
 171 422 224 425 230 426 c 0
 234 427 285 415 301 409 c 0
 333 397 360 389 384 362 c 0
 398 345 398 346 395 327 c 0
 394 319 385 311 377 309 c 0
 374 308 368 307 366 305 c 0
 356 299 341 302 324 316 c 0
 313 325 308 328 295 334 c 0
 263 347 200 355 173 348 c 0
 143 341 119 325 107 305 c 0
 101 294 100 291 104 291 c 0
 106 291 107 288 107 278 c 0
 107 189 112 164 114 92 c 0
 115 67 116 42 118 35 c 0
 122 16 121 12 114 5 c 0
 106 -3 96 -6 72 -6 c 0
 56 -6 55 -5 51 -0 c 0
 45 7 43 15 40 32 c 0
 36 61 32 67 29 101 c 0
 23 155 20 143 20 220 c 0
 20 276 20 280 24 296 c 0
 30 317 46 349 54 357 c 0
 57 360 61 366 62 369 c 0
 63 373 64 376 65 376 c 0
 66 376 71 379 77 384 c 0
 94 398 126 412 165 421 c 0
EndSplineSet
Comment: "char_L3_P3_x679_y2075_x881_y2305_cg+AD0APQAA.svg"
EndChar

StartChar: s
Encoding: 115 115 9
Width: 382
VWidth: 580
Flags: HW
LayerCount: 2
Fore
SplineSet
168 449 m 0
 189 452 185 450 202 447 c 0
 208 446 219 443 227 439 c 0
 240 433 241 432 245 423 c 0
 247 418 250 412 250 410 c 0
 250 409 245 400 240 390 c 0
 231 374 230 373 223 371 c 0
 212 367 212 367 200 371 c 0
 167 382 137 364 119 345 c 0
 111 337 103 326 100 321 c 0
 95 311 94 301 98 300 c 0
 99 299 113 300 128 302 c 2
 156 304 l 1
 182 318 l 2
 202 328 209 330 220 334 c 0
 234 338 239 339 247 339 c 0
 276 338 274 335 290 328 c 0
 301 323 320 305 325 295 c 0
 327 291 329 288 328 288 c 1
 332 277 331 269 335 253 c 0
 354 178 338 132 290 87 c 0
 283 80 273 70 267 65 c 0
 249 48 234 43 216 35 c 0
 205 30 175 24 162 21 c 0
 158 20 146 19 136 19 c 0
 118 19 118 19 98 29 c 0
 72 42 74 47 58 66 c 0
 45 81 34 97 30 121 c 0
 26 147 27 154 32 161 c 0
 41 172 41 173 60 175 c 0
 84 178 87 176 91 156 c 0
 92 149 101 140 101 133 c 0
 101 127 111 113 124 101 c 0
 133 92 133 92 142 93 c 0
 170 97 197 102 214 117 c 0
 233 136 264 156 268 188 c 0
 269 198 260 256 256 261 c 0
 252 267 240 264 220 254 c 0
 179 233 166 230 115 226 c 0
 97 224 92 225 80 228 c 0
 57 234 59 229 42 247 c 0
 28 262 29 264 24 277 c 0
 13 310 26 342 40 367 c 0
 55 395 76 412 107 428 c 0
 137 443 146 446 168 449 c 0
EndSplineSet
Comment: "char_L3_P29_x5615_y2062_x5788_y2292_cw+AD0APQAA.svg"
EndChar

StartChar: t
Encoding: 116 116 10
Width: 371
VWidth: 787
Flags: HW
LayerCount: 2
Fore
SplineSet
147 593 m 0
 147 595 155 606 157 606 c 0
 157 606 167 604 178 602 c 0
 210 596 209 601 196 513 c 0
 192 484 185 451 183 444 c 0
 182 441 181 436 180 431 c 2
 178 423 l 1
 215 423 l 2
 251 423 290 420 299 416 c 0
 306 414 310 405 310 395 c 0
 310 391 316 369 310 369 c 0
 309 369 309 366 308 363 c 0
 306 356 297 348 290 348 c 0
 287 348 259 348 227 348 c 0
 172 348 168 348 167 345 c 0
 164 338 157 269 156 261 c 0
 155 255 154 236 154 218 c 0
 154 146 164 110 189 86 c 0
 197 78 201 76 210 74 c 0
 230 70 260 78 274 92 c 2
 283 101 l 1
 297 100 l 2
 313 98 321 95 327 88 c 0
 331 84 332 83 331 66 c 0
 330 46 327 41 316 31 c 0
 310 26 280 9 280 11 c 0
 280 11 273 10 265 7 c 0
 226 -5 187 -1 158 17 c 0
 137 31 132 35 115 59 c 0
 100 81 98 97 91 121 c 0
 83 151 78 202 81 232 c 0
 82 244 84 268 85 285 c 0
 86 302 88 318 89 322 c 0
 95 345 86 340 64 339 c 0
 44 338 44 338 35 344 c 0
 27 349 25 351 23 358 c 0
 20 370 19 388 21 392 c 0
 23 397 32 405 36 406 c 0
 41 408 90 414 96 414 c 0
 103 414 102 414 106 441 c 0
 109 458 114 480 121 511 c 0
 124 524 126 521 127 534 c 0
 129 546 133 562 138 572 c 0
 140 577 141 580 141 582 c 0
 141 586 147 589 147 593 c 0
EndSplineSet
Comment: "char_L3_P7_x1444_y1979_x1610_y2302_dA+AD0APQAA.svg"
EndChar

StartChar: b
Encoding: 98 98 11
Width: 368
VWidth: 782
Flags: HW
LayerCount: 2
Fore
SplineSet
54 601 m 0
 60 610 65 611 82 611 c 0
 99 611 105 608 110 597 c 0
 114 588 116 479 113 433 c 0
 112 416 111 394 110 386 c 2
 109 371 l 1
 116 376 l 2
 126 384 142 393 152 398 c 0
 157 400 161 404 163 405 c 0
 169 410 198 417 212 417 c 0
 230 417 252 414 254 411 c 0
 255 410 257 409 259 409 c 0
 263 409 267 402 270 402 c 0
 272 402 288 388 294 380 c 0
 299 373 309 352 311 344 c 0
 322 307 331 229 327 208 c 0
 324 194 328 194 324 177 c 0
 319 159 321 159 314 145 c 0
 311 140 309 134 309 132 c 0
 309 127 281 84 272 76 c 0
 258 63 221 43 201 38 c 0
 187 35 155 35 141 38 c 0
 130 40 106 49 102 53 c 0
 101 54 96 57 92 59 c 0
 85 63 84 64 79 61 c 0
 76 59 73 58 73 59 c 0
 73 59 69 57 64 55 c 0
 49 48 45 55 35 63 c 0
 20 76 17 96 23 139 c 0
 26 160 30 259 34 298 c 0
 37 332 39 355 40 411 c 0
 41 433 41 457 42 463 c 0
 45 483 42 493 45 515 c 0
 47 526 48 548 49 565 c 0
 50 592 51 596 54 601 c 0
229 343 m 0
 217 350 212 349 187 337 c 0
 162 325 145 306 132 280 c 0
 112 239 116 235 106 189 c 0
 102 171 98 153 98 148 c 2
 98 140 l 1
 116 127 l 2
 153 101 174 99 206 116 c 0
 218 123 224 129 233 143 c 0
 254 176 258 202 253 266 c 0
 250 307 241 336 229 343 c 0
EndSplineSet
Comment: "char_L2_P16_x3532_y1375_x3704_y1695_Yg+AD0APQAA.svg"
EndChar

StartChar: u
Encoding: 117 117 12
Width: 419
VWidth: 547
Flags: HW
LayerCount: 2
Fore
SplineSet
302 411 m 0
 318 421 320 425 339 421 c 0
 344 420 353 407 360 392 c 0
 372 366 376 351 378 323 c 0
 380 290 381 206 379 199 c 0
 378 195 376 183 374 171 c 0
 369 135 358 105 344 87 c 0
 332 72 316 55 312 54 c 0
 310 54 308 53 306 51 c 0
 294 40 248 22 210 14 c 0
 188 9 164 4 135 9 c 0
 83 18 51 42 35 92 c 0
 20 140 15 197 24 243 c 0
 28 264 28 301 36 313 c 0
 40 319 42 337 45 345 c 0
 47 349 48 355 48 358 c 0
 48 365 63 400 67 405 c 0
 72 410 78 416 78 415 c 0
 78 414 79 415 81 416 c 0
 83 418 88 417 105 410 c 0
 131 400 132 397 128 381 c 0
 124 364 129 369 122 349 c 0
 116 330 107 294 106 283 c 0
 104 263 98 226 97 224 c 0
 95 221 97 156 100 137 c 0
 104 116 108 106 118 94 c 0
 127 84 129 84 161 83 c 0
 190 83 227 90 248 102 c 0
 282 121 293 137 299 179 c 0
 301 193 303 206 304 207 c 0
 306 212 306 288 304 292 c 0
 303 294 302 306 301 319 c 0
 300 343 297 352 286 377 c 0
 282 386 282 389 284 395 c 0
 286 401 288 403 302 411 c 0
EndSplineSet
Comment: "char_L3_P14_x2656_y2077_x2847_y2298_dQ+AD0APQAA.svg"
EndChar

StartChar: v
Encoding: 118 118 13
Width: 404
VWidth: 559
Flags: HW
LayerCount: 2
Fore
SplineSet
84 376 m 0
 84 372 92 360 92 354 c 0
 92 351 94 343 97 335 c 0
 103 319 117 275 126 237 c 0
 146 157 152 141 163 107 c 2
 168 91 l 1
 187 127 l 2
 197 147 207 172 211 181 c 0
 215 190 219 199 220 201 c 0
 225 209 241 256 261 318 c 0
 273 356 286 391 288 397 c 0
 291 403 296 411 301 416 c 0
 306 421 311 425 311 425 c 1
 311 425 321 426 323 425 c 0
 329 423 359 405 361 402 c 0
 366 396 365 388 360 376 c 0
 357 370 343 330 329 288 c 0
 294 179 293 177 248 87 c 0
 233 57 221 32 221 31 c 0
 220 26 201 -2 195 -7 c 0
 193 -9 188 -10 176 -13 c 0
 169 -16 l 0
 169 -16 165 -15 161 -16 c 0
 155 -17 151 -17 145 -14 c 0
 135 -9 117 10 115 18 c 0
 112 33 103 50 97 68 c 0
 86 104 68 159 62 188 c 0
 56 218 51 234 44 264 c 0
 36 298 25 323 21 363 c 0
 19 385 19 386 23 391 c 0
 30 400 35 403 50 404 c 0
 66 405 75 403 75 397 c 0
 75 392 78 393 78 388 c 0
 78 384 84 379 84 376 c 0
EndSplineSet
Comment: "char_L3_P17_x3218_y2075_x3401_y2311_dg+AD0APQAA.svg"
EndChar

StartChar: w
Encoding: 119 119 14
Width: 465
VWidth: 606
Flags: HW
LayerCount: 2
Fore
SplineSet
354 454 m 0
 362 462 373 471 385 465 c 0
 390 462 391 462 395 462 c 0
 399 462 403 458 407 455 c 0
 416 449 423 435 425 416 c 0
 428 393 422 400 424 379 c 0
 425 371 418 243 419 235 c 0
 419 210 407 160 400 136 c 0
 393 111 370 59 349 38 c 0
 343 32 339 27 339 26 c 0
 339 25 331 18 321 12 c 2
 302 0 l 1
 286 0 l 2
 270 0 260 2 260 6 c 0
 260 7 258 7 257 7 c 0
 253 7 242 15 236 22 c 0
 229 30 209 58 209 61 c 0
 209 62 208 66 206 70 c 0
 203 75 194 104 192 110 c 0
 191 111 187 104 182 94 c 0
 170 69 144 31 114 29 c 0
 87 27 66 40 51 66 c 0
 47 73 44 80 45 81 c 0
 46 82 44 84 43 85 c 0
 36 92 26 149 25 172 c 0
 25 182 23 196 22 204 c 0
 21 214 20 245 20 295 c 2
 20 371 l 1
 25 381 l 2
 32 394 35 396 52 396 c 0
 73 396 80 391 80 376 c 0
 80 372 80 369 81 368 c 0
 83 366 86 327 89 267 c 0
 91 238 93 205 95 194 c 0
 97 183 99 167 99 158 c 0
 100 143 105 114 108 111 c 0
 110 109 118 121 124 134 c 0
 129 146 153 210 154 213 c 0
 154 214 159 222 164 230 c 0
 177 250 186 254 207 250 c 0
 218 248 223 244 227 237 c 0
 229 233 236 230 236 225 c 0
 236 218 241 213 241 203 c 0
 243 171 249 170 256 142 c 0
 263 115 267 103 275 88 c 0
 285 71 283 72 294 83 c 0
 312 102 321 120 335 168 c 0
 343 196 346 212 347 249 c 0
 348 301 351 297 352 356 c 0
 353 399 353 404 350 407 c 0
 344 413 347 447 354 454 c 0
EndSplineSet
Comment: "char_L2_P4_x946_y1455_x1173_y1715_dw+AD0APQAA.svg"
EndChar

StartChar: x
Encoding: 120 120 15
Width: 401
VWidth: 527
Flags: HW
LayerCount: 2
Fore
SplineSet
287 409 m 0
 293 409 299 405 308 401 c 0
 320 395 325 391 328 385 c 0
 329 383 330 380 330 377 c 0
 330 361 315 339 306 331 c 0
 304 329 297 320 291 311 c 0
 277 290 263 272 250 253 c 0
 242 241 227 220 224 217 c 0
 221 214 217 207 215 203 c 0
 214 201 212 197 210 195 c 0
 211 193 216 189 227 180 c 0
 255 158 277 139 289 128 c 0
 295 122 302 116 304 114 c 0
 315 105 334 81 355 51 c 0
 363 39 367 35 367 29 c 0
 367 17 363 15 347 2 c 0
 337 -6 331 -9 324 -9 c 0
 321 -9 319 -9 316 -8 c 0
 308 -5 297 10 284 29 c 0
 272 48 217 98 169 135 c 0
 168 136 167 136 166 137 c 0
 163 133 157 125 150 116 c 0
 136 99 127 89 94 51 c 0
 85 41 81 32 70 25 c 0
 66 22 58 16 54 13 c 0
 52 12 51 10 48 10 c 0
 40 10 24 22 20 26 c 0
 16 30 15 38 15 46 c 0
 15 59 28 80 33 87 c 0
 36 91 38 95 42 96 c 0
 43 96 44 98 45 100 c 0
 48 107 69 133 77 140 c 0
 81 143 94 160 105 174 c 2
 111 182 l 1
 98 196 78 214 68 228 c 0
 66 231 66 235 63 238 c 0
 44 260 39 275 28 301 c 0
 20 320 16 335 16 361 c 0
 16 384 33 386 53 392 c 1
 55 390 57 389 59 387 c 0
 65 382 74 365 78 353 c 0
 87 324 123 271 154 240 c 1
 178 274 199 301 221 334 c 0
 227 348 242 363 252 377 c 0
 266 398 270 402 277 406 c 0
 281 408 284 409 287 409 c 0
64 24 m 1
 64 24 l 1
EndSplineSet
Comment: "char_L0_P23_x9273_y169_x9492_y431_eA+AD0APQAA.svg"
EndChar

StartChar: y
Encoding: 121 121 16
Width: 438
VWidth: 517
Flags: HW
LayerCount: 2
Fore
SplineSet
309 265 m 2
 309 306 311 318 315 340 c 1
 315 350 331 358 340 358 c 0
 344 358 351 360 355 360 c 0
 369 360 385 346 385 330 c 0
 385 322 383 301 383 294 c 0
 383 290 383 288 384 285 c 0
 390 256 392 234 396 207 c 0
 402 173 403 159 403 131 c 0
 403 80 400 34 389 -4 c 0
 387 -10 386 -11 384 -18 c 0
 382 -24 378 -38 376 -44 c 1
 376 -49 372 -57 368 -67 c 0
 360 -83 351 -98 343 -111 c 0
 343 -114 340 -117 338 -119 c 0
 331 -127 320 -138 312 -144 c 0
 309 -147 306 -149 302 -149 c 0
 297 -151 289 -159 284 -159 c 0
 266 -170 239 -170 204 -170 c 0
 175 -170 168 -168 128 -155 c 0
 86 -141 59 -128 40 -111 c 0
 35 -106 32 -106 29 -102 c 0
 25 -97 19 -87 19 -81 c 0
 19 -75 15 -70 15 -62 c 0
 15 -52 19 -47 24 -42 c 0
 26 -40 29 -37 33 -37 c 0
 34 -37 35 -37 36 -37 c 0
 39 -36 40 -35 43 -35 c 0
 47 -35 51 -38 57 -41 c 0
 64 -45 73 -50 83 -57 c 0
 109 -74 134 -84 165 -93 c 0
 177 -96 205 -98 230 -98 c 0
 241 -98 244 -98 247 -97 c 0
 254 -94 272 -83 276 -80 c 0
 282 -70 292 -59 298 -48 c 0
 307 -30 319 12 327 52 c 0
 328 56 330 91 330 105 c 1
 304 72 267 42 229 23 c 0
 213 15 211 14 197 12 c 0
 194 11 190 9 189 9 c 0
 175 -2 138 7 126 13 c 0
 107 23 102 27 93 40 c 0
 79 61 62 101 62 133 c 0
 62 152 59 152 59 172 c 0
 59 182 59 194 60 213 c 0
 62 275 65 281 70 322 c 0
 74 351 75 351 82 358 c 0
 87 363 90 366 100 366 c 0
 101 366 102 366 103 366 c 0
 117 366 125 364 131 358 c 0
 136 353 136 348 137 324 c 0
 137 316 137 310 137 304 c 0
 137 294 137 287 136 278 c 0
 133 252 132 219 132 188 c 0
 132 154 134 116 143 94 c 0
 147 85 155 77 162 77 c 0
 176 77 207 90 227 105 c 0
 256 127 280 153 296 183 c 0
 299 189 301 193 301 193 c 0
 301 196 303 203 305 210 c 0
 309 222 309 221 309 265 c 2
EndSplineSet
Comment: "char_L0_P24_x9737_y197_x9980_y534_eQ+AD0APQAA.svg"
EndChar

StartChar: z
Encoding: 122 122 17
Width: 415
VWidth: 501
Flags: HW
LayerCount: 2
Fore
SplineSet
61 314 m 0
 40 314 19 319 19 337 c 0
 19 341 15 357 15 363 c 0
 15 371 18 374 24 378 c 0
 26 382 29 381 31 383 c 0
 33 386 37 386 41 386 c 0
 44 386 51 385 55 385 c 0
 59 385 61 386 62 386 c 0
 68 388 87 389 101 389 c 0
 107 389 114 390 117 388 c 0
 124 389 185 392 195 392 c 0
 203 393 209 392 220 392 c 0
 254 392 313 394 343 388 c 0
 350 387 357 385 360 380 c 1
 366 379 366 373 368 370 c 0
 371 368 371 364 373 362 c 0
 375 360 378 357 378 353 c 1
 380 352 381 350 381 348 c 0
 381 345 379 341 378 339 c 2
 378 338 l 1
 377 331 365 315 357 314 c 0
 353 311 344 298 339 297 c 0
 332 291 311 271 304 264 c 0
 269 233 228 178 197 146 c 0
 181 130 174 121 160 106 c 0
 155 101 151 98 147 94 c 0
 144 91 142 90 137 85 c 1
 148 86 162 89 174 89 c 0
 175 89 175 89 175 89 c 0
 188 89 206 94 221 94 c 0
 223 94 225 94 227 94 c 2
 228 94 l 0
 233 94 257 95 267 95 c 0
 283 95 290 93 302 91 c 0
 317 89 333 81 349 80 c 0
 362 79 365 76 372 68 c 0
 375 65 376 62 376 58 c 0
 376 53 375 48 375 41 c 2
 375 40 l 2
 375 20 362 12 343 12 c 0
 334 12 299 20 291 20 c 0
 287 20 283 21 280 22 c 0
 278 23 269 23 259 23 c 0
 242 23 220 22 210 20 c 0
 205 19 201 19 198 19 c 0
 197 19 l 0
 196 19 l 0
 176 19 156 13 142 13 c 0
 135 13 122 9 116 9 c 0
 115 9 l 0
 115 9 114 10 113 10 c 0
 104 10 88 6 79 5 c 0
 78 3 76 3 74 3 c 0
 73 3 l 0
 60 3 44 9 36 16 c 0
 35 17 33 17 33 21 c 0
 29 28 24 37 24 47 c 0
 24 68 27 72 36 87 c 0
 39 93 42 97 45 100 c 0
 45 103 46 103 46 104 c 0
 53 114 72 131 79 138 c 0
 86 145 123 181 131 190 c 0
 137 197 155 216 160 222 c 0
 161 225 164 227 167 229 c 0
 168 230 174 235 177 240 c 0
 183 248 189 255 194 262 c 0
 198 267 206 279 213 280 c 0
 216 283 219 287 221 290 c 0
 224 294 232 303 235 307 c 0
 236 309 238 310 240 311 c 0
 241 312 247 317 250 321 c 1
 239 321 206 319 200 319 c 0
 197 319 195 319 192 319 c 0
 170 319 141 316 114 316 c 0
 85 315 80 314 61 314 c 0
EndSplineSet
Comment: "char_L0_P25_x10220_y180_x10448_y423_eg+AD0APQAA.svg"
EndChar

StartChar: c
Encoding: 99 99 18
Width: 385
VWidth: 608
Flags: HW
LayerCount: 2
Fore
SplineSet
193 469 m 0
 205 475 246 473 253 467 c 0
 255 465 258 464 259 464 c 0
 261 464 274 455 280 450 c 0
 287 444 294 429 300 421 c 0
 309 410 321 388 321 385 c 0
 321 383 322 379 324 376 c 0
 328 370 328 365 323 350 c 0
 320 341 319 340 310 335 c 0
 301 330 294 330 294 334 c 0
 294 336 278 343 276 344 c 0
 274 345 266 354 259 364 c 0
 252 374 242 386 238 391 c 0
 231 399 229 400 223 400 c 0
 202 400 154 347 129 295 c 0
 124 283 117 269 115 263 c 0
 113 257 110 250 109 248 c 0
 99 232 94 174 100 142 c 0
 106 106 126 86 171 94 c 0
 197 99 242 107 269 114 c 0
 311 125 316 126 324 122 c 0
 329 119 332 115 338 104 c 0
 349 83 348 69 332 61 c 0
 328 59 325 56 325 55 c 0
 325 54 302 48 301 47 c 0
 297 43 236 27 225 28 c 0
 223 28 219 28 216 27 c 0
 199 21 154 18 122 23 c 0
 108 25 87 33 87 37 c 0
 87 38 86 38 84 38 c 0
 79 38 52 64 45 76 c 0
 25 108 15 156 22 202 c 0
 26 226 35 270 38 273 c 0
 40 276 52 305 54 308 c 0
 55 310 60 318 63 326 c 0
 76 357 105 399 130 426 c 0
 142 439 178 466 184 466 c 0
 185 466 189 467 193 469 c 0
EndSplineSet
Comment: "char_L3_P25_x4749_y2050_x4923_y2291_Yw+AD0APQAA.svg"
EndChar

StartChar: d
Encoding: 100 100 19
Width: 427
VWidth: 833
Flags: HW
LayerCount: 2
Fore
SplineSet
333 631 m 0
 333 639 336 637 340 643 c 0
 346 652 354 648 366 646 c 0
 378 645 381 640 388 633 c 1
 386 612 l 2
 384 576 382 556 381 513 c 0
 380 470 376 428 375 389 c 0
 374 348 366 275 369 244 c 0
 370 229 369 127 368 104 c 0
 367 77 361 57 353 54 c 0
 346 52 310 51 305 54 c 0
 299 57 299 56 291 52 c 0
 281 48 257 41 244 40 c 0
 239 39 235 39 234 38 c 0
 230 35 181 31 161 31 c 0
 115 31 79 43 49 70 c 0
 39 78 25 106 21 126 c 0
 18 139 20 173 24 201 c 0
 28 228 34 240 40 257 c 0
 53 294 81 335 111 359 c 0
 118 364 144 381 147 381 c 0
 148 381 155 384 162 387 c 0
 180 395 187 393 208 397 c 0
 232 402 268 402 277 398 c 0
 279 397 303 389 303 389 c 2
 303 389 303 405 304 423 c 0
 309 510 324 618 331 624 c 0
 332 625 333 628 333 631 c 0
266 328 m 0
 259 332 234 331 211 327 c 0
 190 323 165 313 151 302 c 0
 139 293 120 264 111 244 c 0
 95 207 88 176 92 146 c 0
 97 109 114 102 159 101 c 0
 184 100 190 101 212 105 c 0
 249 112 265 116 278 122 c 2
 290 127 l 1
 290 136 l 2
 290 141 291 162 292 184 c 0
 295 243 294 265 291 281 c 0
 286 304 276 323 266 328 c 0
EndSplineSet
Comment: "char_L2_P7_x1559_y1354_x1764_y1698_ZA+AD0APQAA.svg"
EndChar

StartChar: e
Encoding: 101 101 20
Width: 432
VWidth: 574
Flags: HW
LayerCount: 2
Fore
SplineSet
110 200 m 0
 101 200 98 205 94 212 c 1
 92 202 88 167 89 158 c 0
 89 155 92 146 95 138 c 0
 99 125 101 121 114 108 c 0
 129 93 140 87 155 84 c 0
 169 81 235 86 261 92 c 0
 285 97 285 96 301 94 c 0
 310 93 313 90 320 76 c 0
 326 63 325 54 320 52 c 0
 319 51 317 49 316 46 c 0
 314 41 304 33 301 33 c 0
 300 33 296 31 292 29 c 0
 250 10 154 5 118 21 c 0
 89 34 63 53 49 73 c 0
 38 88 28 109 27 116 c 0
 27 119 25 128 23 136 c 0
 15 169 23 227 40 276 c 0
 50 304 64 330 79 346 c 0
 83 350 88 356 89 359 c 0
 94 371 138 409 162 421 c 0
 174 427 200 438 201 437 c 0
 201 437 227 442 231 443 c 0
 254 449 280 441 297 436 c 0
 312 432 345 412 359 398 c 0
 386 371 395 346 392 305 c 0
 391 282 386 269 375 251 c 0
 367 239 345 214 342 214 c 0
 341 214 335 212 330 210 c 0
 303 199 273 198 234 195 c 0
 189 191 133 189 119 198 c 0
 117 200 113 200 110 200 c 0
276 370 m 0
 254 379 232 376 199 360 c 0
 174 348 159 336 138 309 c 0
 125 292 109 265 111 263 c 0
 115 259 235 274 261 275 c 0
 297 277 298 277 306 287 c 0
 312 295 314 298 315 309 c 0
 316 323 315 336 311 343 c 0
 307 350 287 366 276 370 c 0
EndSplineSet
Comment: "char_L3_P4_x863_y2065_x1062_y2296_ZQ+AD0APQAA.svg"
EndChar

StartChar: f
Encoding: 102 102 21
Width: 463
VWidth: 772
Flags: HW
LayerCount: 2
Fore
SplineSet
240 589 m 0
 240 595 302 590 304 590 c 0
 344 582 391 563 411 539 c 0
 415 534 419 529 419 528 c 0
 419 527 419 525 420 523 c 0
 424 510 425 509 422 503 c 0
 418 494 407 484 399 482 c 0
 389 481 386 474 374 476 c 0
 367 477 363 478 355 486 c 0
 347 494 341 498 325 504 c 0
 306 512 303 512 279 513 c 0
 245 515 236 512 222 495 c 0
 211 480 212 482 205 456 c 0
 199 432 198 431 196 400 c 2
 195 380 l 1
 214 381 l 2
 277 385 275 385 280 380 c 0
 288 373 292 365 293 345 c 2
 294 327 l 1
 286 320 l 2
 277 311 273 311 207 306 c 2
 195 305 l 1
 196 296 l 2
 199 271 204 160 211 117 c 0
 213 107 222 26 213 10 c 0
 207 -3 205 -1 182 -4 c 0
 161 -6 161 -6 154 -2 c 0
 141 6 136 35 136 57 c 0
 137 91 130 134 129 162 c 0
 128 192 127 179 125 216 c 0
 123 256 121 242 119 278 c 0
 119 291 118 302 117 303 c 0
 116 304 103 304 88 304 c 0
 59 304 37 309 28 316 c 0
 26 318 24 320 24 320 c 0
 24 320 22 325 21 333 c 0
 19 345 20 348 23 354 c 0
 30 366 34 369 50 372 c 0
 72 377 86 379 103 380 c 2
 119 381 l 1
 119 406 l 2
 120 433 123 461 126 464 c 0
 128 467 135 494 134 494 c 0
 133 494 140 507 139 507 c 0
 139 507 143 514 148 522 c 0
 166 552 176 562 202 575 c 0
 213 581 226 585 231 586 c 0
 236 587 240 588 240 589 c 0
EndSplineSet
Comment: "char_L1_P52_x9550_y790_x9760_y1100_Zg+AD0APQAA.svg"
EndChar

StartChar: g
Encoding: 103 103 22
Width: 506
VWidth: 615
Flags: HW
LayerCount: 2
Fore
SplineSet
275 415 m 0
 300 421 342 419 353 412 c 0
 355 410 359 409 361 409 c 0
 367 409 376 402 385 401 c 0
 388 400 412 386 418 380 c 0
 426 373 429 362 436 352 c 0
 441 344 442 341 442 331 c 0
 442 319 440 310 431 292 c 0
 427 284 431 285 440 284 c 0
 442 284 459 267 462 262 c 0
 467 254 468 210 464 183 c 0
 462 168 462 162 464 130 c 0
 467 88 468 40 465 28 c 0
 461 10 457 -22 451 -40 c 0
 448 -50 445 -61 444 -66 c 0
 442 -79 421 -125 407 -146 c 0
 399 -159 383 -177 372 -189 c 0
 369 -192 367 -195 367 -196 c 0
 367 -198 338 -216 327 -221 c 0
 319 -225 297 -232 293 -232 c 0
 291 -232 289 -232 289 -233 c 0
 289 -234 275 -236 258 -238 c 0
 224 -241 208 -241 181 -233 c 0
 173 -231 164 -228 162 -228 c 0
 158 -228 117 -209 98 -198 c 0
 84 -190 52 -163 42 -150 c 0
 28 -132 23 -120 21 -100 c 0
 19 -87 20 -83 23 -77 c 0
 27 -67 36 -59 44 -59 c 0
 47 -59 58 -48 58 -45 c 0
 58 -44 59 -44 61 -46 c 0
 66 -51 57 -59 65 -61 c 0
 73 -63 80 -69 85 -81 c 0
 90 -92 110 -115 123 -126 c 0
 152 -149 204 -167 246 -167 c 0
 273 -167 305 -153 326 -131 c 0
 357 -98 382 -34 391 38 c 0
 393 51 394 57 385 49 c 0
 361 30 327 17 285 13 c 0
 260 11 240 12 230 18 c 0
 227 20 212 24 212 26 c 0
 212 27 212 27 211 27 c 0
 204 25 165 59 154 76 c 0
 149 83 136 112 130 128 c 0
 121 154 118 184 122 223 c 0
 124 245 130 272 132 275 c 0
 133 276 135 283 138 290 c 0
 150 321 163 345 188 365 c 0
 190 367 216 391 219 391 c 0
 220 391 225 394 231 398 c 0
 244 406 256 411 275 415 c 0
330 343 m 0
 308 348 309 348 290 343 c 0
 230 326 196 271 196 193 c 0
 196 156 207 126 228 105 c 0
 246 87 265 83 298 89 c 0
 314 92 318 93 330 101 c 0
 360 121 367 129 377 159 c 0
 385 183 384 172 384 209 c 0
 384 230 384 242 386 249 c 0
 389 259 389 259 384 262 c 0
 380 265 380 266 381 275 c 0
 383 287 382 300 379 309 c 0
 378 313 378 317 378 318 c 0
 379 321 366 331 357 335 c 0
 352 337 340 341 330 343 c 0
EndSplineSet
Comment: "char_L3_P5_x1006_y2079_x1245_y2430_Zw+AD0APQAA.svg"
EndChar

StartChar: h
Encoding: 104 104 23
Width: 358
VWidth: 753
Flags: HW
LayerCount: 2
Fore
SplineSet
41 584 m 0
 44 585 52 586 60 586 c 0
 73 586 74 586 80 580 c 2
 87 574 l 1
 88 552 l 2
 92 497 97 451 99 385 c 0
 100 358 100 339 100 339 c 1
 100 340 102 341 104 342 c 0
 106 343 109 347 111 351 c 0
 116 361 140 381 140 381 c 0
 141 381 144 382 147 385 c 0
 152 390 174 397 180 401 c 0
 182 402 213 408 214 410 c 0
 215 411 239 408 252 405 c 0
 258 403 271 393 277 392 c 0
 280 391 283 387 287 382 c 0
 296 369 298 371 305 351 c 0
 315 320 321 274 318 233 c 0
 317 223 317 199 317 180 c 0
 317 101 317 61 316 51 c 0
 315 42 313 40 307 34 c 0
 303 30 297 26 297 26 c 0
 297 23 285 26 268 32 c 0
 247 40 244 43 245 57 c 0
 245 61 246 81 246 100 c 0
 245 154 250 258 242 317 c 0
 241 328 234 332 226 338 c 1
 210 335 l 2
 189 331 174 321 164 306 c 0
 144 275 130 241 117 192 c 0
 107 152 104 134 103 113 c 0
 102 88 97 63 81 59 c 0
 74 57 72 53 63 52 c 0
 57 51 54 53 42 62 c 0
 27 73 26 75 23 95 c 0
 19 119 19 145 22 191 c 0
 26 266 29 411 26 430 c 0
 25 434 26 437 27 439 c 0
 29 441 29 453 28 489 c 0
 26 556 29 578 41 584 c 0
EndSplineSet
Comment: "char_L2_P34_x7146_y1389_x7313_y1701_aA+AD0APQAA.svg"
EndChar

StartChar: i
Encoding: 105 105 24
Width: 227
VWidth: 625
Flags: HW
LayerCount: 2
Fore
SplineSet
99 488 m 0
 121 491 130 491 141 487 c 0
 167 478 162 478 177 468 c 0
 182 465 186 461 186 460 c 0
 186 453 188 449 184 441 c 0
 179 430 181 424 173 416 c 0
 167 410 169 408 162 406 c 0
 149 403 146 403 135 409 c 0
 123 416 114 416 104 411 c 0
 96 407 90 410 82 406 c 0
 79 405 75 403 73 403 c 0
 66 403 50 395 42 397 c 0
 36 399 33 400 27 412 c 0
 16 434 17 448 32 456 c 0
 36 458 42 463 45 465 c 0
 53 472 87 486 99 488 c 0
67 314 m 2
 72 321 l 1
 91 321 l 2
 107 321 111 320 116 317 c 0
 120 315 122 311 122 309 c 0
 122 307 123 304 124 302 c 0
 130 291 132 246 128 222 c 0
 122 185 129 149 131 115 c 0
 133 94 134 89 139 80 c 2
 144 69 l 1
 142 63 138 54 133 52 c 0
 131 51 126 48 122 44 c 0
 115 38 114 38 102 38 c 0
 80 38 72 44 64 68 c 0
 60 82 58 92 56 112 c 0
 53 156 50 145 51 201 c 0
 52 255 59 302 67 314 c 2
EndSplineSet
Comment: "char_L3_P8_x1622_y2041_x1712_y2282_aQ+AD0APQAA.svg"
EndChar

StartChar: j
Encoding: 106 106 25
Width: 358
VWidth: 758
Flags: HW
LayerCount: 2
Fore
SplineSet
249 414 m 0
 220 414 201 441 201 469 c 0
 201 482 208 498 211 508 c 0
 216 529 235 539 255 545 c 0
 258 546 260 546 263 546 c 0
 272 546 284 541 287 534 c 0
 288 533 291 528 294 525 c 0
 309 511 315 505 315 492 c 0
 315 474 312 464 307 457 c 0
 305 454 302 449 301 447 c 0
 297 440 284 427 276 421 c 0
 274 420 272 418 269 418 c 0
 268 418 l 0
 264 415 258 414 249 414 c 0
322 53 m 0
 322 51 323 50 323 48 c 0
 323 44 321 40 321 32 c 0
 320 20 318 1 317 -10 c 0
 316 -21 313 -37 310 -44 c 0
 304 -56 303 -67 296 -78 c 0
 292 -84 293 -83 293 -87 c 0
 293 -93 284 -102 281 -107 c 0
 280 -112 276 -116 272 -120 c 0
 264 -129 250 -141 241 -150 c 0
 240 -154 236 -156 232 -158 c 0
 227 -161 204 -171 193 -178 c 0
 190 -182 182 -182 177 -183 c 0
 173 -186 163 -187 158 -189 c 0
 155 -191 153 -190 149 -190 c 0
 137 -190 117 -189 106 -185 c 0
 105 -186 104 -186 102 -186 c 0
 98 -186 98 -182 96 -182 c 0
 89 -181 76 -174 70 -170 c 0
 62 -166 47 -155 43 -151 c 0
 41 -149 37 -149 35 -147 c 0
 22 -138 15 -129 15 -106 c 0
 15 -89 22 -84 34 -78 c 0
 41 -75 46 -73 51 -73 c 0
 61 -73 74 -79 78 -85 c 0
 85 -97 103 -108 119 -111 c 0
 124 -112 129 -112 132 -115 c 0
 133 -115 133 -115 134 -115 c 0
 140 -115 144 -112 151 -111 c 0
 166 -108 194 -92 200 -86 c 1
 200 -80 207 -76 211 -72 c 0
 219 -63 233 -39 237 -26 c 0
 237 -21 241 -14 242 -10 c 0
 246 9 248 6 249 48 c 0
 250 68 250 90 250 111 c 0
 250 172 248 174 246 208 c 0
 246 216 244 224 244 226 c 0
 242 228 242 232 242 234 c 0
 242 236 242 237 242 238 c 0
 242 245 239 246 238 251 c 0
 237 256 235 281 234 284 c 0
 231 287 231 292 230 299 c 0
 229 308 229 321 229 333 c 0
 229 361 237 368 260 371 c 0
 269 372 273 373 277 373 c 0
 302 373 297 330 303 312 c 0
 305 307 305 296 307 291 c 0
 309 289 309 287 309 285 c 0
 309 284 309 281 309 280 c 0
 309 272 310 259 312 251 c 0
 315 248 314 243 314 238 c 0
 314 228 317 225 317 214 c 0
 317 179 322 189 322 156 c 0
 322 140 322 124 322 115 c 0
 322 102 322 86 322 72 c 0
 322 63 322 59 322 53 c 0
EndSplineSet
Comment: "char_L0_P9_x3083_y81_x3275_y547_ag+AD0APQAA.svg"
EndChar

StartChar: Eacute
Encoding: 201 201 26
Width: 475
VWidth: 1117
Flags: HW
LayerCount: 2
Fore
SplineSet
335 846 m 0
 351 850 354 849 371 833 c 0
 390 814 393 810 392 799 c 0
 391 781 385 771 366 754 c 0
 359 747 342 733 330 721 c 0
 318 709 307 700 306 700 c 0
 304 700 254 654 249 648 c 0
 243 640 212 611 208 609 c 0
 205 608 197 603 190 597 c 0
 177 587 173 585 151 588 c 0
 150 588 140 597 131 608 c 0
 115 626 115 628 115 639 c 0
 115 650 115 650 135 671 c 0
 174 712 181 719 269 796 c 0
 321 841 324 843 335 846 c 0
240 552 m 0
 254 554 284 554 320 554 c 0
 384 554 382 555 395 537 c 0
 400 530 402 526 403 508 c 0
 404 487 404 487 396 477 c 0
 383 461 379 459 332 459 c 0
 224 458 209 452 127 438 c 0
 119 437 119 437 119 426 c 0
 119 420 121 413 122 412 c 0
 124 410 125 394 124 359 c 2
 123 309 l 1
 157 314 218 319 221 314 c 0
 222 313 226 312 231 311 c 0
 248 309 266 285 266 270 c 0
 266 256 252 242 248 233 c 0
 244 223 232 218 218 220 c 0
 205 221 164 218 135 214 c 2
 117 212 l 1
 117 144 l 2
 117 83 117 77 121 75 c 0
 123 74 124 73 123 73 c 0
 122 73 123 71 125 69 c 0
 128 66 130 57 129 51 c 0
 129 50 150 51 157 52 c 0
 182 55 244 65 271 68 c 0
 285 69 306 72 320 74 c 0
 350 78 406 79 413 75 c 0
 423 70 432 60 432 45 c 0
 432 38 433 30 434 26 c 0
 438 15 429 -3 416 -11 c 0
 407 -16 403 -17 387 -17 c 0
 343 -17 248 -34 197 -40 c 0
 181 -42 163 -44 158 -45 c 0
 104 -52 51 -51 39 -44 c 0
 31 -39 23 -29 21 -22 c 0
 19 -14 21 20 25 27 c 0
 27 32 28 35 25 43 c 0
 20 58 19 125 22 233 c 0
 25 315 27 383 27 443 c 2
 27 471 l 2
 27 501 28 504 60 517 c 0
 111 538 95 529 141 536 c 0
 200 546 218 549 240 552 c 0
EndSplineSet
Comment: "char_L10_P0_x3701_y5713_x3877_y6093_w4k+AD0A.svg"
EndChar

StartChar: quotedblright
Encoding: 8221 8221 27
Width: 334
VWidth: 818
Flags: HW
LayerCount: 2
Fore
SplineSet
186 647 m 0
 184 647 174 659 171 659 c 0
 168 659 161 668 163 669 c 0
 163 670 162 674 160 679 c 0
 155 691 156 702 162 709 c 0
 170 717 166 723 180 727 c 0
 186 729 189 728 201 721 c 0
 209 717 226 710 225 706 c 0
 225 705 228 703 232 701 c 0
 241 697 240 690 246 685 c 0
 250 681 267 655 271 651 c 0
 273 649 274 647 274 646 c 0
 274 643 287 612 288 613 c 0
 289 614 293 588 293 587 c 0
 296 578 293 558 293 546 c 0
 293 538 292 533 291 533 c 0
 290 533 287 530 285 527 c 0
 276 513 262 509 247 516 c 0
 244 517 240 519 239 519 c 0
 225 522 221 529 218 556 c 0
 217 568 216 578 217 579 c 0
 220 584 210 601 208 609 c 0
 205 621 203 612 200 624 c 0
 199 629 197 633 196 633 c 0
 194 633 188 647 186 647 c 0
30 676 m 0
 36 679 37 679 70 676 c 0
 84 675 87 674 88 671 c 0
 89 669 89 667 90 668 c 0
 93 671 106 660 114 647 c 0
 119 639 125 633 126 633 c 0
 128 633 129 631 128 627 c 0
 128 625 138 608 148 592 c 0
 151 587 154 579 154 576 c 0
 154 572 156 568 158 566 c 0
 160 564 162 561 162 560 c 0
 162 556 168 545 169 540 c 0
 170 529 172 530 174 515 c 0
 177 501 180 498 179 486 c 0
 179 482 178 471 177 462 c 0
 176 443 175 442 170 442 c 0
 164 442 161 436 154 436 c 0
 151 436 148 435 148 434 c 0
 148 432 144 435 144 433 c 0
 144 431 128 428 126 430 c 0
 124 432 114 435 114 439 c 0
 114 441 113 442 111 442 c 0
 100 442 96 467 95 484 c 0
 94 499 94 496 93 506 c 0
 93 508 91 511 89 513 c 0
 86 516 83 527 81 540 c 0
 79 550 63 573 63 581 c 0
 63 583 29 616 24 619 c 0
 21 621 20 624 20 636 c 0
 20 658 23 672 30 676 c 0
EndSplineSet
Comment: "char_L9_P27_x8953_y5263_x9092_y5414_4oCd.svg"
EndChar

StartChar: Ograve
Encoding: 210 210 28
Width: 501
VWidth: 1089
Flags: HW
LayerCount: 2
Fore
SplineSet
119 822 m 0
 130 825 135 825 145 820 c 0
 149 818 156 816 159 816 c 0
 162 816 168 813 173 808 c 0
 178 804 187 798 192 795 c 0
 205 788 258 735 269 726 c 0
 282 716 322 695 341 690 c 0
 348 688 355 684 355 683 c 0
 355 682 356 681 358 681 c 0
 362 681 366 672 369 649 c 0
 371 634 371 632 367 627 c 0
 361 620 351 617 344 611 c 0
 336 603 328 600 317 600 c 0
 307 600 267 615 261 620 c 0
 259 621 257 622 256 621 c 0
 255 619 222 642 205 656 c 0
 190 668 188 670 143 714 c 0
 113 743 104 754 99 764 c 0
 90 783 92 785 101 803 c 0
 109 818 110 820 119 822 c 0
203 547 m 0
 212 552 255 552 262 547 c 0
 265 545 273 543 281 542 c 0
 317 539 330 536 356 523 c 0
 405 499 426 471 442 419 c 0
 458 369 453 369 458 330 c 0
 463 297 463 246 458 195 c 0
 453 138 454 112 437 66 c 0
 410 -8 366 -43 289 -52 c 0
 246 -57 197 -53 169 -41 c 0
 161 -37 146 -34 140 -28 c 0
 138 -25 134 -23 132 -23 c 0
 130 -23 122 -19 114 -14 c 0
 74 11 40 70 27 125 c 0
 22 144 18 202 20 224 c 0
 23 255 27 286 30 301 c 0
 31 308 32 315 31 316 c 0
 30 318 41 368 44 372 c 0
 48 378 52 394 57 400 c 0
 60 404 69 418 76 433 c 0
 102 486 132 523 186 540 c 0
 192 542 200 545 203 547 c 0
293 438 m 0
 284 444 244 451 230 452 c 0
 206 455 182 431 155 377 c 0
 132 331 127 312 120 249 c 0
 112 183 125 114 157 77 c 0
 167 65 172 62 203 51 c 0
 223 44 229 43 247 43 c 0
 258 43 278 44 289 46 c 0
 307 49 311 50 320 58 c 0
 342 76 341 89 349 118 c 0
 355 138 355 141 361 209 c 0
 367 277 362 345 348 393 c 0
 339 422 333 429 314 431 c 0
 306 432 298 434 293 438 c 0
EndSplineSet
Comment: "char_L10_P1_x3946_y5723_x4134_y6095_w5I+AD0A.svg"
EndChar

StartChar: Aring
Encoding: 197 197 29
Width: 534
VWidth: 1100
Flags: HW
LayerCount: 2
Fore
SplineSet
268 837 m 0
 282 839 309 839 315 836 c 0
 331 827 345 820 349 816 c 0
 355 811 374 775 377 764 c 0
 379 756 383 730 382 723 c 0
 382 716 379 698 377 693 c 0
 375 690 374 685 374 682 c 0
 374 669 342 619 329 612 c 0
 324 610 295 585 289 584 c 0
 286 584 282 583 281 582 c 0
 280 581 268 577 255 573 c 0
 223 565 203 569 181 579 c 0
 170 584 146 611 141 624 c 0
 137 634 129 666 130 669 c 0
 130 670 131 679 132 689 c 0
 134 719 146 759 162 779 c 0
 169 788 198 811 205 813 c 0
 209 814 211 816 211 817 c 0
 211 820 233 826 236 827 c 0
 247 831 263 836 268 837 c 0
292 741 m 0
 290 745 287 749 285 749 c 0
 276 748 262 746 260 744 c 0
 259 743 253 744 249 745 c 0
 241 747 240 746 231 736 c 0
 218 722 213 706 213 680 c 0
 213 656 215 658 223 649 c 1
 240 656 l 2
 268 667 276 674 287 695 c 0
 298 716 299 727 292 741 c 0
145 206 m 1
 145 203 145 193 145 191 c 0
 145 190 141 170 137 146 c 0
 133 122 127 83 123 60 c 0
 119 37 114 12 112 6 c 0
 110 0 107 -8 107 -11 c 0
 107 -18 101 -31 96 -35 c 0
 92 -38 50 -39 37 -36 c 0
 33 -35 28 -31 25 -27 c 0
 20 -20 20 -16 20 10 c 0
 20 29 22 49 25 66 c 0
 31 97 30 106 35 133 c 0
 39 154 44 181 48 204 c 0
 51 224 73 306 78 316 c 0
 80 320 82 327 82 331 c 0
 83 342 107 401 124 436 c 0
 141 471 157 497 171 510 c 0
 177 516 180 520 179 520 c 0
 176 520 189 532 198 538 c 0
 210 546 215 557 233 558 c 0
 256 559 279 559 286 556 c 0
 301 550 321 543 333 531 c 0
 337 527 342 525 343 525 c 0
 347 525 381 486 394 465 c 0
 422 422 446 361 458 306 c 0
 473 236 484 182 491 110 c 0
 494 81 495 26 493 26 c 0
 489 26 490 -5 485 -5 c 0
 483 -5 478 -19 477 -20 c 0
 473 -24 454 -35 452 -34 c 0
 449 -33 435 -31 430 -31 c 0
 422 -30 417 -22 409 -20 c 0
 404 -19 400 -15 396 -5 c 0
 391 6 391 8 393 19 c 0
 396 34 396 94 393 111 c 0
 391 123 384 171 380 206 c 0
 379 217 377 223 375 229 c 1
 336 222 l 2
 314 218 280 214 255 213 c 0
 210 211 201 206 165 206 c 2
 145 206 l 1
275 457 m 0
 270 461 263 463 261 463 c 0
 256 463 239 446 228 429 c 0
 213 407 198 370 180 315 c 0
 175 300 175 298 178 299 c 0
 194 305 353 318 353 320 c 0
 353 328 343 358 331 382 c 0
 314 416 292 446 275 457 c 0
EndSplineSet
Comment: "char_L10_P2_x4216_y5717_x4417_y6088_w4U+AD0A.svg"
EndChar

StartChar: Udieresis
Encoding: 220 220 30
Width: 472
VWidth: 1007
Flags: HW
LayerCount: 2
Fore
SplineSet
299 757 m 2
 316 765 l 1
 332 761 l 2
 370 750 373 749 381 735 c 0
 393 715 387 703 382 682 c 0
 379 670 365 651 353 644 c 0
 341 637 346 637 330 631 c 0
 299 621 264 633 254 659 c 0
 246 679 244 689 249 702 c 0
 260 729 274 745 299 757 c 2
93 746 m 0
 113 761 116 763 126 763 c 0
 140 763 145 760 163 738 c 0
 177 721 178 718 178 709 c 0
 178 703 176 696 174 692 c 0
 172 688 157 676 142 663 c 0
 104 632 97 632 70 666 c 0
 57 682 55 686 55 695 c 0
 55 711 66 725 93 746 c 0
358 557 m 0
 358 561 379 562 384 566 c 0
 389 569 397 568 406 563 c 0
 412 560 420 546 427 528 c 0
 430 520 433 451 433 407 c 0
 432 264 429 203 423 153 c 0
 418 111 412 86 402 62 c 0
 392 38 395 45 383 29 c 0
 370 10 339 -19 332 -19 c 0
 326 -19 307 -30 302 -31 c 0
 299 -32 289 -34 281 -36 c 0
 246 -44 220 -45 184 -37 c 0
 148 -30 157 -30 137 -19 c 0
 131 -16 123 -12 120 -10 c 0
 112 -6 84 24 84 28 c 0
 84 30 80 36 76 42 c 0
 67 55 58 75 51 98 c 0
 48 107 44 117 42 120 c 0
 38 127 27 200 23 255 c 0
 16 350 24 417 31 494 c 0
 32 504 33 515 35 518 c 0
 37 521 39 525 39 528 c 0
 39 535 48 552 54 556 c 0
 59 559 63 559 82 556 c 0
 106 552 112 549 114 537 c 0
 116 527 117 500 118 377 c 0
 119 246 123 191 135 144 c 0
 145 105 166 74 189 62 c 0
 202 56 206 55 226 55 c 0
 265 55 289 67 308 93 c 0
 314 101 324 130 322 134 c 0
 321 137 327 181 329 189 c 0
 331 196 332 235 334 368 c 0
 335 476 335 488 331 507 c 0
 327 527 327 529 331 537 c 0
 335 545 339 547 352 552 c 0
 356 554 358 556 358 557 c 0
EndSplineSet
Comment: "char_L10_P3_x4482_y5748_x4657_y6090_w5w+AD0A.svg"
EndChar

StartChar: uni226A
Encoding: 8810 8810 31
Width: 618
VWidth: 769
Flags: HW
LayerCount: 2
Fore
SplineSet
300 596 m 0
 313 607 322 598 341 578 c 0
 360 557 361 553 345 536 c 0
 339 530 334 524 335 523 c 0
 337 521 275 459 247 434 c 0
 216 406 179 373 147 345 c 0
 133 333 123 322 123 320 c 0
 124 316 131 310 165 284 c 0
 201 256 258 200 290 160 c 0
 298 150 304 144 307 144 c 0
 315 144 319 142 329 130 c 0
 339 117 341 110 335 96 c 0
 333 91 331 85 331 81 c 0
 331 72 320 59 313 59 c 0
 310 59 307 58 307 57 c 0
 307 56 304 53 301 52 c 0
 277 41 248 62 184 134 c 0
 156 166 129 190 100 213 c 0
 77 231 53 254 51 259 c 0
 50 262 47 266 44 270 c 0
 36 281 19 325 20 333 c 0
 20 337 24 346 29 355 c 0
 36 368 43 376 80 410 c 0
 104 432 125 450 126 450 c 0
 127 450 135 456 143 464 c 0
 176 495 206 521 219 531 c 0
 227 537 235 545 238 548 c 0
 241 551 245 554 247 554 c 0
 248 554 256 561 264 569 c 0
 272 577 283 586 288 589 c 0
 293 591 298 594 300 596 c 0
549 503 m 0
 549 494 544 495 544 488 c 0
 544 485 542 481 538 479 c 0
 525 472 500 448 487 439 c 0
 466 423 465 419 442 400 c 0
 416 378 403 365 378 342 c 2
 359 326 l 1
 375 310 l 2
 384 301 390 293 390 292 c 0
 390 281 477 221 493 206 c 0
 500 200 516 186 529 176 c 0
 574 140 584 127 576 115 c 0
 573 111 573 108 575 105 c 0
 579 98 572 85 564 81 c 0
 550 73 534 61 516 68 c 0
 500 74 451 111 422 139 c 0
 413 148 395 161 383 170 c 0
 352 192 327 215 322 225 c 0
 318 233 285 265 281 265 c 0
 280 265 275 274 269 285 c 0
 254 312 260 306 261 337 c 0
 261 351 262 359 266 364 c 0
 271 372 288 391 290 391 c 0
 290 391 303 401 319 415 c 0
 370 458 355 440 419 497 c 0
 481 552 475 549 491 550 c 0
 510 552 516 547 535 527 c 0
 547 514 549 510 549 503 c 0
EndSplineSet
Comment: "char_L10_P4_x5299_y5818_x5536_y6051_4omq.svg"
EndChar

StartChar: uni226B
Encoding: 8811 8811 32
Width: 618
VWidth: 769
Flags: HW
LayerCount: 2
Fore
SplineSet
278 597 m 0
 291 605 301 594 311 589 c 0
 316 586 327 577 335 569 c 0
 343 561 351 554 352 554 c 0
 354 554 357 551 360 548 c 0
 363 545 372 537 380 531 c 0
 393 521 423 495 456 464 c 0
 464 456 472 450 473 450 c 0
 474 450 495 432 519 410 c 0
 556 376 563 368 570 355 c 0
 575 346 579 337 579 333 c 0
 580 325 563 281 555 270 c 0
 552 266 549 262 548 259 c 0
 546 254 522 231 499 213 c 0
 470 190 443 166 415 134 c 0
 400 117 379 95 370 86 c 0
 349 66 324 50 312 50 c 0
 303 50 291 54 291 57 c 0
 291 58 289 59 286 59 c 0
 279 59 268 72 268 81 c 0
 268 85 266 91 264 96 c 0
 258 110 260 117 270 130 c 0
 280 142 283 144 291 144 c 0
 294 144 301 151 309 161 c 0
 341 201 398 256 434 284 c 0
 468 310 475 316 476 320 c 0
 476 322 466 333 452 345 c 0
 420 372 383 406 352 434 c 0
 324 459 262 521 264 523 c 0
 265 524 260 530 254 536 c 0
 238 552 239 557 257 577 c 0
 265 586 274 595 278 597 c 0
54 488 m 0
 54 495 50 494 50 503 c 0
 50 510 52 514 64 527 c 0
 72 536 81 545 85 547 c 0
 90 550 97 551 108 550 c 0
 125 549 118 553 180 498 c 0
 244 441 228 458 279 415 c 0
 295 401 309 391 309 391 c 0
 311 391 328 372 333 364 c 0
 337 359 338 352 338 338 c 0
 339 307 345 312 330 285 c 0
 324 274 319 265 318 265 c 0
 314 265 281 233 277 225 c 0
 272 215 246 192 215 170 c 0
 203 161 186 148 177 139 c 0
 148 111 99 74 83 68 c 0
 64 61 48 73 34 81 c 0
 26 85 20 98 24 105 c 0
 26 108 25 111 22 115 c 0
 14 127 25 140 70 176 c 0
 105 203 110 211 148 239 c 0
 178 260 208 287 208 292 c 0
 208 293 215 302 224 311 c 2
 240 326 l 1
 221 343 l 2
 196 366 182 378 156 400 c 0
 133 419 132 423 111 439 c 0
 98 448 73 472 61 479 c 0
 57 481 54 485 54 488 c 0
EndSplineSet
Comment: "char_L10_P5_x5699_y5818_x5936_y6051_4omr.svg"
EndChar

StartChar: uni203D
Encoding: 8253 8253 33
Width: 481
VWidth: 1097
Flags: HW
LayerCount: 2
Fore
SplineSet
377 735 m 0
 383 735 385 725 390 725 c 0
 392 725 398 716 405 704 c 0
 436 648 446 602 440 545 c 0
 439 532 418 481 413 478 c 0
 412 477 411 475 411 473 c 0
 411 466 359 414 345 406 c 0
 318 392 312 389 308 389 c 0
 303 389 298 382 283 354 c 2
 271 331 l 1
 273 309 l 2
 274 296 275 271 274 250 c 0
 273 216 272 213 267 208 c 0
 264 205 260 202 259 202 c 0
 258 202 250 199 243 196 c 0
 225 188 211 191 191 194 c 0
 184 195 167 209 167 213 c 0
 164 226 165 253 168 266 c 0
 175 292 175 319 171 347 c 0
 168 365 169 376 170 384 c 0
 178 431 184 532 182 580 c 2
 180 610 l 1
 168 597 l 2
 160 590 155 583 155 580 c 0
 155 564 116 528 104 515 c 0
 97 507 90 502 84 500 c 0
 73 497 66 499 39 517 c 0
 15 533 14 544 36 580 c 0
 42 589 49 600 53 604 c 0
 60 612 66 631 74 638 c 0
 77 641 86 649 93 657 c 0
 108 674 131 692 160 709 c 2
 181 721 l 1
 181 731 l 2
 181 736 182 742 183 743 c 0
 184 744 184 760 184 778 c 0
 184 807 184 812 188 820 c 0
 196 835 196 832 220 835 c 0
 253 839 258 840 265 834 c 0
 268 831 271 828 271 826 c 0
 271 824 272 822 273 822 c 0
 274 822 278 806 280 788 c 2
 284 756 l 1
 297 757 l 2
 311 758 331 755 342 753 c 0
 348 752 370 741 372 737 c 0
 373 736 375 735 377 735 c 0
320 655 m 0
 312 663 297 661 279 658 c 1
 279 599 279 541 279 482 c 1
 287 485 l 2
 314 496 339 533 343 566 c 0
 346 592 333 643 320 655 c 0
222 106 m 0
 239 109 271 95 271 85 c 0
 271 80 281 79 282 74 c 0
 283 72 284 70 285 70 c 0
 289 70 288 42 282 28 c 0
 275 10 265 -1 243 -14 c 0
 222 -27 216 -27 193 -15 c 0
 177 -6 169 5 166 18 c 0
 166 21 163 26 162 29 c 0
 160 35 164 58 169 63 c 0
 170 65 171 67 170 68 c 0
 166 72 209 103 222 106 c 0
EndSplineSet
Comment: "char_L10_P6_x6211_y5717_x6390_y6082_4oC9.svg"
EndChar

StartChar: Emacron
Encoding: 274 274 34
Width: 531
VWidth: 1039
Flags: HW
LayerCount: 2
Fore
SplineSet
345 777 m 0
 365 781 374 785 380 784 c 0
 382 784 385 783 387 783 c 0
 389 783 397 773 406 762 c 0
 425 739 426 734 415 718 c 0
 412 713 409 707 408 705 c 0
 406 700 390 690 383 690 c 0
 374 690 350 683 342 681 c 0
 337 680 313 679 286 679 c 0
 187 681 171 681 146 677 c 0
 115 672 68 674 62 680 c 0
 60 682 57 683 55 683 c 0
 53 683 48 689 45 694 c 0
 40 703 39 707 39 722 c 0
 39 739 40 741 46 747 c 0
 51 752 56 754 72 756 c 0
 83 757 94 761 97 763 c 0
 100 765 107 766 113 766 c 0
 119 766 136 768 151 770 c 0
 185 774 201 774 264 772 c 0
 314 770 316 771 345 777 c 0
390 601 m 0
 408 605 410 597 422 594 c 0
 435 591 437 586 436 552 c 0
 436 535 435 520 434 518 c 0
 432 513 410 503 401 503 c 0
 390 503 379 498 368 502 c 0
 362 505 353 504 329 503 c 0
 309 502 136 495 116 491 c 0
 111 490 111 497 115 416 c 0
 116 388 118 360 119 355 c 2
 120 345 l 1
 128 349 l 2
 134 353 143 354 178 355 c 0
 223 356 253 354 260 348 c 0
 266 342 277 342 281 332 c 0
 286 316 295 308 284 287 c 0
 281 281 279 273 279 271 c 0
 279 268 273 265 264 260 c 0
 248 252 236 250 228 257 c 0
 224 261 217 262 184 263 c 0
 153 264 137 265 121 268 c 0
 121 268 120 215 119 152 c 2
 118 37 l 1
 132 39 l 2
 140 40 166 43 189 47 c 0
 298 65 354 72 399 73 c 0
 422 73 449 71 449 68 c 0
 449 66 471 61 469 59 c 0
 468 57 475 51 486 43 c 0
 490 41 490 36 491 26 c 0
 492 -1 485 -17 471 -21 c 0
 467 -22 462 -24 459 -27 c 0
 450 -35 436 -35 421 -28 c 2
 408 -22 l 1
 375 -24 l 2
 345 -26 277 -38 251 -40 c 0
 202 -44 110 -64 68 -64 c 0
 46 -64 42 -63 34 -58 c 0
 29 -55 25 -51 25 -50 c 0
 25 -48 24 -37 22 -25 c 0
 20 -9 20 19 21 68 c 0
 23 164 23 347 22 349 c 0
 21 350 19 543 20 552 c 0
 20 554 23 558 26 562 c 0
 31 567 35 569 51 570 c 0
 76 572 108 586 128 587 c 0
 192 591 161 591 295 597 c 0
 345 599 388 601 390 601 c 0
EndSplineSet
Comment: "char_L10_P7_x6697_y5740_x6897_y6099_xJI+AD0A.svg"
EndChar

StartChar: Ohungarumlaut
Encoding: 336 336 35
Width: 557
VWidth: 1118
Flags: HW
LayerCount: 2
Fore
SplineSet
433 851 m 0
 447 857 458 851 480 829 c 0
 487 822 488 820 487 810 c 0
 486 793 485 792 475 781 c 0
 470 775 467 769 467 767 c 0
 467 762 441 736 431 731 c 0
 420 725 399 693 389 693 c 0
 388 693 383 688 378 683 c 0
 365 669 355 663 346 661 c 0
 339 660 336 661 325 669 c 0
 303 684 297 691 297 703 c 0
 297 711 299 716 304 722 c 0
 308 727 311 731 311 732 c 0
 311 736 343 774 349 778 c 0
 353 780 357 786 361 790 c 0
 365 794 369 797 370 797 c 0
 371 797 384 809 399 823 c 0
 414 837 429 850 433 851 c 0
209 837 m 0
 215 842 225 845 232 847 c 0
 234 847 264 826 268 821 c 0
 273 815 271 799 264 784 c 0
 261 778 249 763 236 750 c 0
 223 738 208 720 201 711 c 0
 187 691 187 696 172 681 c 0
 154 663 148 662 127 678 c 0
 106 693 103 701 110 722 c 0
 114 732 130 756 141 768 c 0
 147 774 200 828 209 837 c 0
282 608 m 0
 287 611 286 611 311 606 c 0
 370 593 420 570 452 528 c 0
 467 508 488 458 491 435 c 0
 491 432 494 421 496 412 c 0
 501 387 508 342 516 282 c 0
 519 259 515 189 510 179 c 0
 508 175 507 171 507 169 c 0
 507 162 492 121 488 116 c 0
 482 110 477 97 471 91 c 0
 469 88 467 85 467 83 c 0
 467 79 432 45 419 35 c 0
 383 9 323 -19 298 -23 c 0
 295 -23 287 -26 281 -28 c 0
 268 -32 191 -32 184 -28 c 0
 181 -27 171 -22 161 -18 c 0
 135 -8 109 11 84 37 c 0
 72 50 62 61 62 62 c 0
 62 64 60 68 58 72 c 0
 44 100 38 119 30 143 c 0
 25 160 21 180 21 207 c 0
 21 242 18 267 27 309 c 0
 34 339 50 414 61 426 c 0
 63 428 70 441 76 454 c 0
 82 467 93 486 100 496 c 0
 114 518 162 567 176 574 c 0
 189 581 200 589 219 589 c 0
 230 589 234 591 239 595 c 0
 249 604 255 605 267 605 c 0
 273 605 280 607 282 608 c 0
326 502 m 0
 318 506 312 508 312 508 c 0
 312 508 307 502 301 495 c 0
 289 480 283 479 267 487 c 0
 254 494 257 488 243 494 c 0
 235 498 231 498 228 496 c 0
 206 484 169 434 150 389 c 0
 137 359 121 289 121 262 c 0
 121 256 120 250 119 249 c 0
 116 246 120 180 124 163 c 0
 126 155 133 138 139 126 c 0
 155 93 170 80 210 66 c 0
 223 61 226 61 243 63 c 0
 282 68 331 88 356 109 c 0
 378 128 385 128 399 157 c 0
 415 190 417 203 417 244 c 0
 417 311 400 418 383 457 c 0
 377 470 359 488 349 492 c 0
 344 494 334 498 326 502 c 0
EndSplineSet
Comment: "char_L10_P8_x6999_y5711_x7210_y6085_xZA+AD0A.svg"
EndChar

StartChar: quotedblleft
Encoding: 8220 8220 36
Width: 328
VWidth: 798
Flags: HW
LayerCount: 2
Fore
SplineSet
65 666 m 0
 65 669 73 672 73 675 c 0
 73 677 81 686 88 691 c 0
 89 692 91 695 91 696 c 0
 91 697 100 701 109 704 c 0
 126 710 139 712 141 708 c 0
 142 707 143 706 144 707 c 0
 146 708 157 686 159 677 c 0
 162 666 162 664 160 664 c 0
 159 664 158 663 158 661 c 0
 158 659 157 658 155 658 c 0
 153 658 152 657 152 656 c 0
 152 652 141 638 137 638 c 0
 130 638 120 624 112 600 c 0
 110 593 103 582 103 576 c 0
 103 573 98 570 98 567 c 0
 95 552 90 542 90 524 c 0
 90 513 83 506 68 501 c 0
 55 497 53 496 44 498 c 0
 4 504 24 573 33 597 c 0
 35 602 36 606 36 607 c 2
 36 607 41 616 40 616 c 0
 38 616 46 626 44 626 c 0
 42 626 50 634 48 634 c 0
 46 634 58 655 62 660 c 0
 64 662 65 665 65 666 c 0
226 545 m 0
 226 544 221 533 221 533 c 0
 222 533 216 523 216 523 c 2
 216 522 216 521 215 519 c 0
 205 494 203 484 203 463 c 0
 203 441 203 441 196 433 c 0
 192 428 188 424 187 424 c 0
 185 424 180 418 178 419 c 0
 177 420 176 420 176 419 c 0
 176 416 166 413 159 414 c 0
 148 415 147 416 143 420 c 0
 141 422 138 424 137 424 c 0
 136 424 134 426 134 427 c 0
 134 428 131 432 128 435 c 0
 122 441 122 443 121 458 c 0
 120 467 120 475 120 476 c 0
 120 477 120 478 121 480 c 0
 127 496 129 517 136 533 c 0
 140 543 138 544 143 554 c 0
 148 566 147 566 153 579 c 0
 156 585 158 591 158 592 c 0
 158 597 176 622 179 632 c 0
 181 639 187 643 192 650 c 0
 197 658 205 666 207 666 c 0
 208 666 211 670 216 674 c 0
 225 682 234 695 248 695 c 0
 257 695 258 694 271 680 c 0
 279 672 285 664 285 663 c 0
 285 661 286 660 287 661 c 0
 288 662 289 659 289 655 c 0
 289 647 275 621 269 618 c 0
 267 617 265 615 265 614 c 0
 265 612 264 611 262 610 c 0
 257 608 247 585 244 580 c 0
 239 573 243 573 237 568 c 0
 235 566 233 563 233 561 c 0
 233 557 226 549 226 545 c 0
EndSplineSet
Comment: "char_L9_P24_x8516_y5272_x8652_y5422_4oCc.svg"
EndChar

StartChar: c_o
Encoding: 1114112 -1 37
Width: 767
VWidth: -51
Flags: HW
LayerCount: 2
Fore
SplineSet
287 432 m 0
 295 429 308 423 314 419 c 0
 320 415 326 412 327 412 c 0
 331 412 352 387 360 373 c 0
 369 357 369 356 365 345 c 0
 364 341 363 337 363 336 c 0
 364 330 336 306 326 316 c 0
 322 319 313 323 311 328 c 0
 310 330 308 332 307 332 c 0
 304 332 296 339 286 349 c 0
 271 364 265 366 241 366 c 0
 217 366 212 364 189 351 c 0
 171 341 167 337 152 319 c 0
 133 296 121 286 109 253 c 0
 100 229 94 198 96 179 c 0
 97 161 104 136 108 128 c 0
 113 118 134 96 144 91 c 0
 167 79 220 82 248 91 c 0
 262 95 290 109 300 117 c 0
 313 126 320 125 334 114 c 0
 340 109 346 105 346 105 c 0
 346 105 346 109 345 113 c 0
 339 132 339 202 347 221 c 0
 349 227 359 270 361 275 c 0
 362 278 365 285 366 289 c 0
 369 300 389 340 398 352 c 0
 425 391 445 409 475 423 c 0
 481 426 503 427 555 427 c 0
 608 427 647 405 674 375 c 0
 684 364 706 332 706 329 c 0
 706 328 709 320 712 313 c 0
 718 300 720 297 725 270 c 0
 730 244 726 192 717 173 c 0
 706 149 703 145 702 144 c 0
 701 143 699 139 697 135 c 0
 692 125 686 119 668 99 c 0
 642 71 630 60 614 49 c 0
 590 33 557 11 556 12 c 0
 555 13 530 2 528 2 c 0
 524 1 520 1 498 -6 c 0
 489 -9 458 -8 444 -5 c 0
 405 4 377 30 363 61 c 0
 357 74 357 75 355 72 c 0
 354 71 349 64 343 58 c 0
 322 33 267 14 223 7 c 0
 205 4 160 5 153 8 c 0
 150 10 143 12 137 14 c 0
 112 21 83 38 68 54 c 0
 47 77 27 117 25 139 c 0
 25 143 23 153 22 162 c 0
 20 175 19 183 21 204 c 0
 25 248 38 294 60 327 c 0
 75 350 84 360 101 377 c 0
 150 426 216 461 287 432 c 0
510 350 m 0
 509 350 506 351 505 353 c 0
 503 356 501 354 485 337 c 0
 452 302 435 269 423 211 c 0
 411 152 423 91 449 73 c 0
 455 69 458 68 474 68 c 0
 492 68 494 69 513 77 c 0
 550 92 580 113 604 141 c 0
 613 152 624 165 628 169 c 0
 647 190 655 234 645 270 c 0
 635 304 607 346 572 351 c 0
 564 352 563 352 563 349 c 0
 563 345 541 330 535 330 c 0
 532 330 530 332 528 335 c 0
 525 340 514 350 510 350 c 0
EndSplineSet
Ligature2: "liga" c o
Comment: "char_L1_P34_x6344_y867_x6710_y1101_Y28+AD0A.svg"
EndChar

StartChar: r_i
Encoding: 1114113 -1 38
Width: 572
VWidth: 111
Flags: HW
LayerCount: 2
Fore
SplineSet
413 460 m 0
 443 465 506 483 527 460 c 0
 536 450 531 441 530 425 c 0
 528 403 522 396 506 396 c 0
 485 396 436 386 409 384 c 0
 392 383 392 383 383 389 c 0
 372 396 371 397 367 419 c 0
 364 436 364 438 367 444 c 0
 371 452 379 454 413 460 c 0
179 431 m 0
 211 444 299 409 310 404 c 0
 330 394 327 399 342 386 c 0
 347 381 353 377 354 377 c 0
 356 377 363 366 364 361 c 0
 364 359 367 353 370 347 c 2
 376 336 l 1
 371 324 l 2
 363 305 360 302 331 301 c 2
 316 301 l 1
 301 316 l 2
 286 332 274 340 253 347 c 0
 243 350 196 357 194 356 c 0
 193 356 183 355 170 354 c 2
 147 352 l 1
 139 343 l 2
 121 326 124 326 120 296 c 0
 113 241 113 230 112 77 c 0
 112 55 107 29 103 21 c 0
 101 17 100 13 100 11 c 0
 100 9 97 5 94 2 c 0
 88 -4 88 -4 68 -4 c 0
 48 -4 47 -3 42 2 c 0
 36 9 28 21 27 26 c 0
 25 38 22 66 22 75 c 0
 22 122 21 159 20 230 c 0
 20 297 20 314 22 318 c 0
 25 323 33 327 41 327 c 0
 48 327 45 339 49 342 c 0
 50 343 52 349 55 356 c 0
 58 363 63 373 68 379 c 0
 73 385 77 391 77 392 c 0
 77 399 105 412 112 417 c 0
 118 422 149 429 162 429 c 0
 169 429 176 430 179 431 c 0
407 316 m 0
 411 320 412 321 424 320 c 0
 451 318 458 316 460 296 c 0
 461 285 457 218 454 193 c 0
 447 143 446 59 452 47 c 0
 460 32 456 13 445 7 c 0
 441 5 438 3 438 2 c 0
 438 -1 426 -8 420 -8 c 0
 414 -8 395 -2 390 2 c 0
 388 3 386 5 386 5 c 0
 383 6 377 32 375 51 c 0
 372 80 371 140 375 169 c 0
 382 227 379 225 397 298 c 0
 398 302 400 305 401 305 c 0
 402 305 403 307 403 309 c 0
 403 311 405 314 407 316 c 0
EndSplineSet
Ligature2: "liga" r i
Comment: "char_L1_P7_x1397_y853_x1663_y1101_cmk+AD0A.svg"
EndChar

StartChar: t_t
Encoding: 1114114 -1 39
Width: 693
VWidth: 156
Flags: HW
LayerCount: 2
Fore
SplineSet
467 598 m 0
 475 602 480 601 495 595 c 0
 505 591 509 590 509 587 c 0
 509 578 512 575 508 564 c 0
 503 549 508 555 502 538 c 0
 497 522 479 444 481 443 c 0
 481 443 494 444 508 445 c 0
 522 446 543 448 555 448 c 2
 576 448 l 1
 583 442 l 2
 590 435 590 434 591 417 c 0
 592 402 592 399 589 394 c 0
 583 384 567 379 529 376 c 0
 510 375 469 371 468 370 c 0
 467 369 458 287 457 273 c 0
 457 268 456 247 455 228 c 0
 453 186 456 149 471 131 c 0
 478 122 484 120 498 120 c 0
 514 120 526 123 544 133 c 0
 563 143 575 152 592 168 c 0
 607 182 610 183 627 181 c 0
 636 180 639 179 646 172 c 2
 654 163 l 1
 653 150 l 2
 653 141 652 135 650 132 c 0
 642 121 617 96 605 88 c 0
 575 67 550 58 516 51 c 0
 460 38 406 79 394 131 c 0
 392 141 390 145 389 146 c 0
 377 160 382 293 387 306 c 0
 389 313 391 345 393 352 c 0
 395 361 394 360 376 359 c 0
 357 358 333 361 328 366 c 0
 326 368 324 370 323 370 c 0
 320 370 315 385 315 397 c 0
 315 409 315 410 320 415 c 0
 325 421 331 422 356 426 c 0
 401 432 408 434 409 438 c 0
 411 451 415 458 421 482 c 0
 428 511 427 511 433 531 c 0
 438 548 438 546 445 566 c 0
 451 584 457 593 467 598 c 0
149 575 m 0
 152 580 161 593 166 593 c 0
 166 593 174 592 184 589 c 0
 216 580 205 575 203 550 c 0
 202 535 201 527 199 511 c 0
 197 494 186 450 186 431 c 0
 186 428 246 430 277 414 c 0
 280 413 292 409 292 406 c 0
 292 405 293 404 295 403 c 0
 298 402 301 398 302 393 c 0
 302 390 295 371 289 359 c 0
 282 343 272 340 250 348 c 0
 236 353 203 359 189 358 c 2
 177 357 l 1
 177 350 l 2
 177 346 175 333 174 323 c 0
 171 302 169 278 166 232 c 0
 162 169 170 105 184 91 c 0
 191 84 195 85 214 94 c 0
 225 99 229 102 245 120 c 0
 255 131 266 142 269 143 c 0
 272 144 280 145 287 145 c 0
 299 145 301 145 306 140 c 0
 318 130 318 129 319 120 c 0
 319 111 314 97 303 78 c 0
 299 71 278 49 275 49 c 0
 274 49 272 47 269 45 c 0
 264 40 237 22 219 19 c 0
 195 15 196 12 162 20 c 0
 152 22 119 52 119 58 c 0
 119 59 117 63 115 67 c 0
 108 82 110 91 103 104 c 0
 97 116 95 128 94 161 c 0
 91 231 95 294 105 348 c 1
 79 349 l 2
 42 350 33 349 24 363 c 0
 20 370 19 372 20 388 c 0
 21 410 23 415 38 416 c 0
 52 417 87 421 102 422 c 0
 114 423 115 423 115 426 c 0
 115 428 117 435 118 441 c 0
 121 452 128 490 129 497 c 0
 132 519 143 564 149 575 c 0
EndSplineSet
Ligature2: "liga" t t
Comment: "char_L2_P10_x2209_y1381_x2561_y1707_dHQ+AD0A.svg"
EndChar

StartChar: r_r
Encoding: 1114115 -1 40
Width: 679
VWidth: -6
Flags: HW
LayerCount: 2
Fore
SplineSet
158 426 m 0
 165 427 173 429 175 428 c 0
 191 424 212 416 215 413 c 0
 221 407 248 395 262 392 c 0
 269 391 284 389 295 388 c 0
 314 387 315 387 319 382 c 0
 324 376 325 363 328 355 c 0
 333 339 322 322 310 319 c 0
 307 318 295 318 282 319 c 0
 249 321 223 328 194 343 c 0
 181 350 169 355 168 355 c 0
 161 355 155 350 142 334 c 0
 126 315 115 296 107 275 c 0
 94 243 103 167 105 126 c 0
 105 119 106 98 106 79 c 0
 107 32 104 48 96 28 c 0
 93 22 85 18 66 16 c 0
 61 15 46 22 41 28 c 0
 36 34 28 52 25 68 c 0
 20 93 19 147 21 232 c 0
 22 255 22 280 22 287 c 0
 22 303 25 299 28 311 c 0
 32 325 40 335 51 339 c 0
 58 341 61 343 68 354 c 0
 81 374 102 399 109 404 c 0
 124 415 131 421 158 426 c 0
508 424 m 0
 518 425 526 427 527 427 c 0
 571 427 603 414 626 390 c 0
 640 376 643 362 637 350 c 0
 633 343 620 333 614 333 c 0
 612 333 608 331 604 329 c 0
 594 323 584 328 579 336 c 0
 577 339 571 345 566 348 c 0
 553 356 542 357 514 353 c 0
 492 350 489 349 470 340 c 0
 451 331 449 328 440 317 c 0
 421 294 422 297 423 210 c 0
 424 169 424 130 425 123 c 0
 427 102 424 80 417 67 c 0
 409 52 401 47 381 47 c 0
 372 47 356 57 351 66 c 0
 346 76 344 105 346 130 c 0
 347 141 347 182 348 221 c 0
 349 292 351 306 357 318 c 0
 361 325 359 326 364 335 c 0
 367 340 369 344 369 345 c 0
 369 346 371 348 374 351 c 0
 378 355 381 364 385 367 c 0
 386 368 391 372 397 377 c 0
 411 389 434 403 450 408 c 0
 452 409 456 411 459 413 c 0
 465 417 485 421 508 424 c 0
EndSplineSet
Ligature2: "liga" r r
Comment: "char_L2_P30_x6202_y1477_x6546_y1706_cnI+AD0A.svg"
EndChar

StartChar: o_o
Encoding: 1114116 -1 41
Width: 829
VWidth: -118
Flags: HW
LayerCount: 2
Fore
SplineSet
537 403 m 0
 565 419 608 430 634 403 c 0
 642 395 650 383 652 378 c 0
 654 373 655 373 684 354 c 0
 723 328 767 281 783 232 c 0
 790 211 791 191 786 171 c 0
 781 151 770 118 762 105 c 0
 751 87 722 59 698 44 c 0
 678 32 640 12 635 12 c 0
 634 12 632 12 632 11 c 0
 631 9 596 -1 579 -3 c 0
 548 -7 516 -6 512 -2 c 0
 510 0 508 1 506 1 c 0
 488 1 437 32 431 46 c 0
 430 49 428 53 426 55 c 0
 412 73 408 87 401 110 c 0
 397 125 396 145 398 172 c 2
 400 189 l 1
 394 178 l 2
 385 159 368 126 357 114 c 0
 354 111 352 108 352 107 c 0
 352 106 346 98 337 90 c 0
 308 62 251 27 229 24 c 0
 225 23 220 23 219 22 c 0
 218 22 171 8 159 13 c 0
 156 15 151 15 149 14 c 0
 141 11 108 22 105 25 c 0
 102 27 99 29 98 29 c 0
 95 29 78 43 66 55 c 0
 55 66 51 71 42 90 c 0
 36 102 30 117 28 122 c 0
 21 148 18 189 22 214 c 0
 26 240 32 265 36 274 c 0
 38 277 39 282 39 283 c 0
 39 289 53 321 64 340 c 0
 75 360 93 383 99 387 c 0
 101 388 109 394 118 400 c 0
 134 411 142 414 161 417 c 0
 172 419 193 418 196 415 c 0
 197 414 201 413 205 412 c 0
 222 409 220 401 237 401 c 0
 249 401 267 397 290 387 c 0
 309 379 319 373 332 361 c 0
 337 356 343 352 344 352 c 0
 347 352 373 319 374 318 c 0
 380 311 396 277 397 269 c 0
 398 257 401 252 401 238 c 0
 402 221 403 228 401 209 c 0
 400 201 400 194 400 194 c 0
 400 194 402 199 404 207 c 0
 409 227 424 266 435 287 c 0
 454 324 459 327 477 349 c 0
 489 364 518 394 521 394 c 0
 522 394 528 398 537 403 c 0
190 340 m 0
 190 342 180 349 178 348 c 0
 152 341 135 322 115 277 c 0
 103 250 103 250 98 212 c 0
 93 175 95 149 108 124 c 0
 121 99 134 88 166 88 c 0
 184 88 189 88 207 94 c 0
 237 104 254 116 283 145 c 0
 305 167 310 172 317 187 c 2
 325 204 l 1
 325 229 l 2
 325 252 324 253 319 263 c 0
 310 280 291 301 275 311 c 0
 267 316 260 320 259 320 c 0
 258 320 255 318 252 316 c 0
 246 311 239 312 232 319 c 0
 230 321 228 323 228 323 c 1
 219 325 190 331 190 340 c 0
554 320 m 0
 549 323 548 323 537 311 c 0
 523 296 511 276 498 251 c 0
 483 221 477 207 473 182 c 0
 469 161 469 159 472 139 c 0
 476 108 488 86 513 75 c 0
 524 70 527 70 547 70 c 0
 591 70 620 82 648 100 c 0
 684 123 700 142 709 170 c 0
 711 177 713 188 713 194 c 0
 713 212 709 222 687 253 c 0
 681 262 670 268 661 277 c 0
 649 289 635 299 615 309 c 0
 599 317 594 318 579 316 c 0
 571 315 562 316 554 320 c 0
EndSplineSet
Ligature2: "liga" o o
Comment: "char_L3_P31_x5948_y2078_x6356_y2305_b28+AD0A.svg"
EndChar

StartChar: A
Encoding: 65 65 42
Width: 452
VWidth: 771
Flags: HW
LayerCount: 2
Fore
SplineSet
220 598 m 0
 243 602 277 598 289 588 c 0
 292 586 295 584 297 584 c 0
 301 584 330 557 338 545 c 0
 348 529 353 526 361 507 c 0
 364 499 369 489 371 484 c 0
 380 463 399 372 404 327 c 0
 405 316 407 300 408 291 c 0
 413 247 415 165 411 107 c 0
 410 95 404 68 402 66 c 0
 401 65 400 62 398 59 c 0
 394 52 380 44 372 44 c 0
 369 44 357 49 347 55 c 0
 323 68 324 68 329 109 c 0
 331 129 333 182 331 220 c 2
 330 244 l 1
 291 249 188 254 149 250 c 0
 137 249 125 247 124 247 c 0
 121 247 114 207 113 203 c 0
 110 189 108 157 106 142 c 0
 101 110 99 100 99 86 c 0
 99 69 97 60 94 47 c 0
 90 31 82 27 54 27 c 0
 33 27 33 27 28 32 c 0
 24 36 23 40 22 57 c 0
 18 101 20 135 29 192 c 0
 35 230 49 314 56 333 c 0
 58 339 60 346 61 350 c 0
 62 359 68 378 79 407 c 0
 98 460 124 525 164 566 c 0
 181 583 203 596 220 598 c 0
260 512 m 0
 247 521 235 522 223 511 c 0
 204 494 181 456 170 421 c 0
 167 411 161 398 158 391 c 0
 150 375 152 370 146 351 c 0
 143 343 141 335 141 334 c 0
 141 332 298 328 304 327 c 0
 313 326 321 326 321 326 c 0
 322 327 309 407 307 409 c 0
 305 412 299 438 298 447 c 0
 297 459 292 459 287 471 c 0
 280 488 269 506 260 512 c 0
EndSplineSet
Comment: "char_L9_P31_x10020_y5328_x10220_y5618_QQ+AD0APQAA.svg"
EndChar

StartChar: K
Encoding: 75 75 43
Width: 469
VWidth: 771
Flags: HW
LayerCount: 2
Fore
SplineSet
317 591 m 0
 325 592 337 591 339 588 c 0
 367 556 365 553 354 531 c 0
 349 519 317 494 306 488 c 0
 291 480 195 374 176 349 c 0
 167 337 166 336 169 334 c 0
 175 330 175 331 180 321 c 0
 188 304 261 252 261 252 c 1
 263 252 283 236 301 218 c 0
 329 191 363 156 363 155 c 0
 363 154 380 131 386 125 c 0
 393 119 413 85 424 61 c 0
 430 48 430 27 428 13 c 0
 428 10 419 1 417 1 c 0
 416 1 414 0 412 -2 c 0
 408 -6 381 -8 378 -4 c 0
 377 -3 373 -1 371 -1 c 0
 362 -1 354 11 352 27 c 0
 351 33 351 41 349 44 c 0
 336 69 293 121 259 152 c 0
 249 161 241 169 240 171 c 0
 239 174 214 196 212 196 c 0
 211 196 167 228 163 233 c 0
 156 240 130 260 122 264 c 1
 122 217 l 2
 122 191 122 145 122 114 c 0
 122 67 121 57 119 52 c 0
 113 40 109 39 85 37 c 0
 60 35 54 37 48 52 c 0
 45 58 45 67 46 109 c 0
 47 228 42 315 31 394 c 0
 30 401 29 412 29 419 c 0
 29 434 25 465 22 472 c 0
 17 486 20 549 32 562 c 0
 37 567 37 566 54 565 c 0
 81 563 88 564 88 543 c 0
 88 532 89 529 95 508 c 0
 97 501 98 493 97 487 c 0
 96 468 99 469 102 446 c 0
 103 434 106 416 107 408 c 0
 108 400 109 393 108 392 c 0
 107 391 107 389 108 388 c 0
 109 386 122 400 128 409 c 0
 141 430 213 505 262 549 c 0
 274 560 283 569 283 570 c 0
 283 573 310 590 317 591 c 0
EndSplineSet
Comment: "char_L5_P28_x6369_y3067_x6591_y3390_Sw+AD0APQAA.svg"
EndChar

StartChar: L
Encoding: 76 76 44
Width: 449
VWidth: 723
Flags: HW
LayerCount: 2
Fore
SplineSet
45 549 m 0
 54 556 56 555 77 555 c 0
 97 555 99 555 103 551 c 0
 109 546 110 540 112 495 c 0
 114 461 110 367 105 336 c 0
 100 305 100 251 98 214 c 0
 95 158 100 102 110 82 c 0
 113 76 115 74 121 73 c 0
 137 70 204 86 232 99 c 0
 245 105 269 112 290 115 c 0
 317 119 337 126 363 122 c 0
 389 117 396 116 397 112 c 0
 398 110 399 109 400 109 c 0
 402 109 407 99 409 90 c 0
 411 83 410 81 402 65 c 0
 391 42 389 41 362 44 c 0
 335 46 294 39 245 22 c 0
 223 15 196 9 178 3 c 0
 163 -3 132 -5 112 -5 c 0
 104 -5 75 6 70 12 c 0
 64 19 65 19 58 25 c 0
 46 36 32 64 26 91 c 0
 19 120 18 208 24 283 c 0
 27 327 27 349 31 394 c 0
 33 414 35 450 36 475 c 0
 38 535 39 545 45 549 c 0
EndSplineSet
Comment: "char_L7_P42_x9598_y3985_x9805_y4282_TA+AD0APQAA.svg"
EndChar

StartChar: M
Encoding: 77 77 45
Width: 517
VWidth: 788
Flags: HW
LayerCount: 2
Fore
SplineSet
371 601 m 0
 376 604 407 602 417 598 c 0
 426 594 455 566 455 561 c 0
 455 558 465 531 468 523 c 0
 473 512 477 474 478 423 c 0
 479 371 478 339 470 267 c 0
 466 231 466 208 461 174 c 0
 455 128 455 65 461 49 c 0
 464 41 464 40 461 33 c 0
 459 29 457 25 456 25 c 0
 454 25 449 20 443 13 c 0
 440 9 423 5 415 7 c 0
 412 8 404 12 398 18 c 0
 388 27 387 29 383 44 c 0
 379 58 379 64 379 98 c 0
 379 137 382 184 386 200 c 0
 388 208 394 285 397 336 c 0
 398 346 398 355 399 356 c 0
 403 361 400 463 395 492 c 0
 392 508 385 526 383 526 c 0
 377 526 339 480 309 435 c 0
 278 390 267 377 240 355 c 0
 233 350 207 340 199 340 c 0
 184 340 164 343 160 346 c 0
 152 354 143 357 134 367 c 0
 129 372 124 376 124 376 c 0
 122 376 117 382 106 395 c 2
 96 407 l 1
 97 346 l 2
 98 312 98 282 99 279 c 0
 100 274 106 182 106 174 c 0
 106 171 110 121 109 117 c 0
 108 115 109 103 111 91 c 0
 114 65 113 16 109 4 c 0
 108 2 108 1 108 0 c 0
 108 -3 99 -15 97 -16 c 0
 95 -17 85 -18 76 -19 c 0
 59 -21 58 -21 53 -17 c 0
 50 -15 48 -11 48 -10 c 0
 48 -8 45 -2 43 6 c 0
 40 14 38 30 36 45 c 0
 32 83 32 65 31 118 c 0
 30 143 29 174 27 186 c 0
 25 198 25 214 25 221 c 0
 25 228 24 245 23 259 c 0
 22 274 20 325 20 380 c 0
 19 499 21 512 36 528 c 0
 41 533 57 539 68 540 c 0
 74 540 88 535 90 531 c 0
 91 530 92 529 93 530 c 0
 95 531 127 499 127 496 c 0
 127 495 132 488 138 480 c 0
 144 472 155 458 161 449 c 0
 172 434 189 418 194 418 c 0
 199 418 228 452 248 481 c 0
 270 513 271 512 287 536 c 0
 296 549 325 580 328 580 c 0
 330 580 352 596 353 598 c 0
 353 599 357 599 361 599 c 0
 365 599 369 600 371 601 c 0
EndSplineSet
Comment: "char_L7_P6_x1338_y3960_x1581_y4290_TQ+AD0APQAA.svg"
EndChar

StartChar: N
Encoding: 78 78 46
Width: 454
VWidth: 809
Flags: HW
LayerCount: 2
Fore
SplineSet
346 621 m 0
 359 633 371 634 390 624 c 0
 405 616 413 609 414 603 c 0
 415 592 415 588 413 583 c 0
 409 574 400 540 399 524 c 0
 395 475 394 404 396 373 c 0
 401 313 402 200 398 153 c 0
 396 124 393 110 385 98 c 0
 380 90 374 84 374 86 c 0
 374 86 352 80 350 80 c 0
 343 80 329 85 324 89 c 0
 320 93 311 96 310 102 c 0
 307 110 266 170 253 184 c 0
 240 198 224 220 210 238 c 0
 176 281 142 330 115 375 c 2
 99 401 l 1
 101 370 l 2
 103 327 106 296 107 250 c 0
 108 218 111 182 111 157 c 0
 111 153 112 140 113 128 c 0
 117 93 116 52 111 45 c 0
 108 40 99 37 76 34 c 0
 62 32 58 32 54 34 c 0
 48 37 42 46 42 53 c 0
 42 56 42 61 40 64 c 0
 35 75 29 136 29 184 c 0
 29 224 23 270 21 312 c 0
 20 345 19 371 20 495 c 0
 20 523 18 555 29 565 c 0
 43 579 55 585 65 584 c 0
 69 584 75 584 77 584 c 0
 83 584 96 571 100 569 c 0
 105 568 108 554 111 550 c 0
 112 548 113 546 113 545 c 0
 112 542 118 533 138 495 c 0
 163 450 181 417 205 381 c 0
 228 346 272 286 292 263 c 0
 300 254 310 242 313 238 c 2
 319 231 l 1
 318 277 l 2
 318 302 316 350 315 383 c 0
 312 449 314 525 320 557 c 0
 324 582 337 613 346 621 c 0
EndSplineSet
Comment: "char_L9_P32_x10235_y5312_x10436_y5615_Tg+AD0APQAA.svg"
EndChar

StartChar: O
Encoding: 79 79 47
Width: 489
VWidth: 759
Flags: HW
LayerCount: 2
Fore
SplineSet
188 577 m 0
 210 586 231 579 248 572 c 0
 256 569 287 564 294 561 c 0
 303 556 333 542 341 536 c 0
 346 533 350 530 351 530 c 0
 353 530 379 507 383 502 c 0
 385 500 388 497 390 495 c 0
 406 480 426 446 438 414 c 0
 449 386 448 373 449 344 c 0
 449 322 447 280 443 263 c 0
 436 231 427 207 409 173 c 0
 392 140 373 106 369 102 c 0
 368 101 362 94 356 87 c 0
 323 46 281 13 246 0 c 0
 237 -3 221 -8 209 -10 c 0
 197 -12 161 -11 156 -8 c 0
 153 -7 142 -1 132 4 c 0
 103 19 79 44 63 76 c 0
 53 96 37 136 32 157 c 0
 27 177 27 178 24 209 c 0
 23 221 21 235 20 241 c 0
 19 254 22 321 25 337 c 0
 27 349 33 367 34 378 c 0
 35 386 43 412 46 415 c 0
 47 416 54 430 62 445 c 0
 86 492 114 530 141 552 c 0
 166 573 163 566 188 577 c 0
203 503 m 0
 202 504 200 505 199 505 c 0
 195 505 166 473 155 456 c 0
 119 401 103 359 97 299 c 0
 95 280 98 232 102 210 c 0
 104 202 105 189 106 181 c 0
 108 167 122 127 132 107 c 0
 138 95 155 76 166 71 c 0
 180 64 196 64 213 70 c 0
 221 73 229 75 231 76 c 0
 244 80 296 131 313 157 c 0
 324 173 342 205 353 231 c 0
 366 261 372 295 372 339 c 0
 372 362 372 365 366 380 c 0
 363 389 360 398 360 400 c 0
 360 406 340 435 327 449 c 0
 310 467 286 482 270 487 c 0
 253 492 246 493 239 488 c 0
 227 481 208 495 203 503 c 0
EndSplineSet
Comment: "char_L7_P5_x1087_y3971_x1315_y4285_Tw+AD0APQAA.svg"
EndChar

StartChar: P
Encoding: 80 80 48
Width: 459
VWidth: 786
Flags: HW
LayerCount: 2
Fore
SplineSet
415 384 m 0
 415 383 406 361 406 361 c 1
 407 361 400 346 395 339 c 0
 393 336 390 333 391 332 c 0
 392 330 359 296 349 289 c 0
 324 272 303 260 262 248 c 0
 241 242 171 239 140 243 c 0
 128 244 117 245 116 244 c 0
 113 243 112 225 115 165 c 0
 117 119 121 83 123 79 c 0
 126 74 128 45 126 36 c 0
 124 23 120 19 100 12 c 0
 82 6 81 6 74 9 c 0
 70 11 64 15 60 19 c 0
 54 25 53 28 49 44 c 0
 40 84 38 115 38 208 c 0
 38 301 41 299 43 380 c 0
 44 408 44 440 45 450 c 2
 46 468 l 1
 37 471 l 2
 22 477 15 488 22 509 c 0
 27 524 27 532 41 541 c 0
 46 544 50 548 52 550 c 0
 66 564 105 578 124 588 c 0
 133 592 159 600 189 605 c 0
 203 607 235 604 254 599 c 0
 271 594 275 595 291 588 c 0
 298 585 305 582 308 581 c 0
 323 574 362 546 367 539 c 0
 368 537 370 536 371 536 c 0
 372 536 374 534 376 531 c 0
 381 523 395 512 399 501 c 0
 401 497 403 493 404 492 c 0
 407 490 412 473 415 458 c 0
 416 453 417 448 418 447 c 0
 420 444 419 396 417 392 c 0
 416 390 415 386 415 384 c 0
238 526 m 0
 195 535 159 529 124 515 c 0
 120 513 119 512 119 506 c 0
 119 502 120 498 121 497 c 0
 122 495 123 473 121 416 c 0
 119 365 119 336 120 323 c 1
 132 321 l 2
 146 318 206 317 229 320 c 0
 261 324 308 347 322 367 c 0
 336 387 347 415 342 420 c 0
 341 421 340 426 340 431 c 0
 340 442 333 460 326 471 c 0
 310 494 270 520 238 526 c 0
EndSplineSet
Comment: "char_L4_P15_x5204_y2612_x5418_y2933_UA+AD0APQAA.svg"
EndChar

StartChar: Q
Encoding: 81 81 49
Width: 578
VWidth: 795
Flags: HW
LayerCount: 2
Fore
SplineSet
204 600 m 0
 212 605 239 613 252 613 c 0
 261 613 278 608 292 602 c 0
 295 601 299 599 301 599 c 0
 308 599 340 586 353 577 c 0
 370 566 389 547 404 527 c 0
 415 511 440 466 449 442 c 0
 456 423 470 393 470 373 c 0
 470 359 474 346 475 329 c 0
 476 313 480 287 475 277 c 0
 473 273 472 269 473 265 c 0
 475 249 460 211 455 195 c 0
 452 187 447 172 444 168 c 0
 439 159 433 149 433 148 c 0
 433 147 452 136 456 135 c 0
 457 135 495 112 497 112 c 0
 498 112 508 103 519 92 c 2
 539 73 l 1
 538 63 l 2
 537 53 535 51 528 45 c 0
 524 42 500 17 496 19 c 0
 482 23 482 21 465 37 c 0
 449 52 429 65 395 82 c 2
 385 87 l 1
 376 78 l 2
 364 66 343 49 334 45 c 0
 320 39 289 20 272 16 c 0
 253 11 225 8 220 9 c 0
 217 10 211 11 206 11 c 0
 188 11 136 38 111 60 c 0
 85 83 75 100 51 151 c 0
 46 162 39 184 34 193 c 0
 25 212 25 233 22 256 c 0
 17 292 20 344 29 374 c 0
 45 431 64 469 100 515 c 0
 122 544 175 588 193 594 c 0
 195 595 200 598 204 600 c 0
278 517 m 0
 266 528 261 528 247 519 c 0
 234 510 219 506 210 510 c 0
 204 512 204 512 193 502 c 0
 179 489 152 458 141 443 c 0
 128 424 108 374 102 346 c 0
 98 324 97 320 98 283 c 0
 99 226 103 211 130 161 c 0
 139 144 145 136 159 121 c 0
 179 100 190 93 214 89 c 0
 237 84 241 83 270 97 c 0
 288 105 311 120 311 123 c 0
 311 125 298 134 297 135 c 0
 286 143 257 164 247 175 c 0
 240 182 233 190 230 192 c 0
 222 198 219 203 218 212 c 0
 217 220 218 222 228 234 c 0
 240 249 240 249 250 250 c 0
 254 251 258 251 259 251 c 0
 260 251 289 233 302 223 c 0
 309 218 325 207 339 198 c 2
 364 182 l 1
 373 198 l 2
 384 217 388 231 394 252 c 0
 398 265 398 270 398 302 c 0
 398 350 394 368 380 406 c 0
 367 441 349 475 336 491 c 1
 328 485 316 479 306 490 c 0
 297 500 290 506 278 517 c 0
EndSplineSet
Comment: "char_L4_P16_x5513_y2608_x5791_y2932_UQ+AD0APQAA.svg"
EndChar

StartChar: R
Encoding: 82 82 50
Width: 446
VWidth: 788
Flags: HW
LayerCount: 2
Fore
SplineSet
253 604 m 0
 256 607 299 601 318 596 c 0
 327 593 335 591 337 591 c 0
 340 591 355 583 359 583 c 0
 363 584 368 576 371 576 c 0
 374 576 378 567 382 566 c 0
 387 565 394 545 398 543 c 0
 399 542 400 540 400 537 c 0
 400 532 408 520 407 515 c 0
 405 503 403 482 399 473 c 0
 391 458 394 455 385 439 c 0
 376 423 377 425 366 411 c 0
 352 393 359 396 338 377 c 0
 312 353 295 338 260 319 c 0
 242 309 204 290 191 284 c 1
 218 260 l 2
 233 247 248 232 251 228 c 0
 254 224 257 222 258 222 c 0
 260 223 303 180 309 171 c 0
 312 167 314 163 315 162 c 0
 324 154 355 107 355 102 c 0
 355 101 355 100 356 101 c 0
 358 103 394 27 393 23 c 0
 392 17 390 10 386 6 c 0
 380 0 353 -13 349 -12 c 0
 341 -9 331 -8 326 -1 c 0
 324 1 317 14 310 27 c 0
 292 62 274 92 262 106 c 0
 256 113 249 121 247 125 c 0
 239 136 208 165 172 197 c 0
 139 226 127 238 108 261 c 1
 106 231 l 2
 105 214 104 182 103 158 c 0
 99 94 104 125 106 70 c 0
 107 42 106 40 96 19 c 0
 91 9 85 3 82 5 c 0
 81 6 81 5 81 4 c 0
 81 3 73 3 64 3 c 0
 38 3 32 9 25 29 c 2
 20 44 l 1
 21 92 l 2
 22 118 23 155 25 174 c 0
 32 256 34 381 29 427 c 0
 26 453 29 455 25 472 c 0
 20 491 29 527 37 535 c 0
 39 537 41 540 43 543 c 0
 47 550 70 562 77 566 c 0
 108 584 160 597 220 601 c 0
 237 602 252 603 253 604 c 0
94 490 m 0
 94 481 100 482 100 471 c 0
 100 466 101 459 102 454 c 0
 105 440 109 382 109 361 c 2
 109 343 l 1
 123 346 l 2
 131 348 143 350 151 352 c 0
 183 359 245 396 278 427 c 0
 309 456 328 487 328 506 c 2
 328 515 l 1
 317 520 l 2
 299 528 292 531 276 532 c 0
 268 533 259 533 257 533 c 0
 249 534 191 531 179 529 c 0
 120 519 94 506 94 490 c 0
EndSplineSet
Comment: "char_L7_P1_x262_y3959_x467_y4286_Ug+AD0APQAA.svg"
EndChar

StartChar: S
Encoding: 83 83 51
Width: 467
VWidth: 768
Flags: HW
LayerCount: 2
Fore
SplineSet
44 127 m 0
 44 130 38 133 38 136 c 0
 38 138 36 142 33 146 c 0
 21 165 22 179 36 192 c 0
 54 208 58 208 77 191 c 0
 91 179 92 177 125 140 c 0
 161 99 178 85 205 75 c 0
 215 71 221 71 237 71 c 0
 255 71 256 71 268 77 c 0
 279 82 284 86 303 107 c 0
 336 145 348 161 349 231 c 0
 349 268 343 285 323 304 c 0
 305 321 300 323 279 323 c 0
 243 323 164 301 151 297 c 0
 121 287 93 283 83 287 c 0
 72 292 67 289 57 298 c 0
 41 313 34 322 32 332 c 0
 30 337 29 341 28 341 c 0
 21 341 20 400 22 410 c 0
 27 433 30 444 41 464 c 0
 58 493 60 500 91 528 c 0
 103 539 107 543 122 552 c 0
 154 570 151 567 170 576 c 0
 177 579 199 584 206 587 c 0
 215 590 257 591 259 588 c 0
 260 587 262 586 265 586 c 0
 273 586 305 575 322 566 c 0
 338 557 356 544 356 542 c 0
 356 539 363 534 363 530 c 0
 364 524 367 520 371 518 c 0
 378 514 376 504 364 486 c 0
 358 477 353 477 342 481 c 0
 338 483 333 483 330 483 c 0
 325 483 323 486 320 486 c 0
 316 486 300 493 285 500 c 0
 266 509 242 513 223 511 c 0
 173 506 124 460 105 421 c 0
 98 407 98 407 99 389 c 0
 100 377 101 354 111 364 c 0
 113 366 142 375 151 376 c 0
 154 376 171 381 190 386 c 0
 238 398 250 400 285 399 c 2
 315 399 l 1
 340 386 l 2
 370 369 402 341 411 312 c 0
 419 287 426 270 427 239 c 0
 428 207 426 192 419 161 c 0
 409 116 388 81 342 36 c 0
 322 16 283 -7 241 -7 c 0
 232 -7 222 -7 218 -7 c 0
 191 -7 139 19 106 49 c 0
 86 67 70 85 67 92 c 0
 65 96 60 105 54 112 c 0
 49 119 44 126 44 127 c 0
EndSplineSet
Comment: "char_L7_P24_x5225_y3967_x5441_y4283_Uw+AD0APQAA.svg"
EndChar

StartChar: T
Encoding: 84 84 52
Width: 485
VWidth: 795
Flags: HW
LayerCount: 2
Fore
SplineSet
321 618 m 0
 351 620 360 622 397 622 c 2
 429 623 l 1
 434 618 439 612 444 607 c 1
 445 586 l 2
 446 564 446 560 438 552 c 0
 434 548 431 548 418 548 c 0
 410 548 400 547 396 546 c 0
 392 545 373 543 353 541 c 0
 281 535 295 536 242 527 c 0
 234 526 235 525 235 519 c 0
 236 512 239 500 236 493 c 0
 233 486 232 341 235 270 c 0
 236 240 238 181 238 140 c 0
 239 71 238 64 235 61 c 0
 233 59 232 56 232 54 c 0
 232 50 226 45 220 43 c 0
 216 42 189 45 185 45 c 0
 180 44 168 50 164 54 c 0
 156 62 155 66 156 80 c 0
 159 181 153 292 153 411 c 2
 153 510 l 1
 131 506 110 499 85 496 c 0
 65 493 37 501 27 510 c 2
 20 516 l 1
 21 533 l 2
 23 563 29 570 54 572 c 0
 81 574 101 580 128 586 c 0
 141 589 157 592 164 594 c 0
 196 602 290 616 321 618 c 0
EndSplineSet
Comment: "char_L9_P34_x10529_y5316_x10745_y5610_VA+AD0APQAA.svg"
EndChar

StartChar: B
Encoding: 66 66 53
Width: 431
VWidth: 759
Flags: HW
LayerCount: 2
Fore
SplineSet
344 540 m 0
 346 540 352 532 355 532 c 0
 356 532 359 530 360 527 c 0
 363 521 372 512 374 512 c 0
 379 512 388 466 384 461 c 0
 383 460 382 454 381 447 c 0
 379 428 368 404 351 382 c 0
 340 369 317 346 311 343 c 0
 309 342 307 340 306 339 c 0
 302 335 271 317 263 314 c 0
 259 312 256 311 256 310 c 0
 256 308 299 287 300 286 c 0
 309 280 329 270 337 262 c 0
 341 258 345 254 346 254 c 0
 348 254 367 230 371 222 c 0
 374 217 380 205 384 196 c 0
 390 185 393 130 390 107 c 0
 387 91 389 88 383 70 c 0
 378 53 380 50 372 39 c 0
 369 35 367 31 367 30 c 0
 367 26 345 5 333 -1 c 0
 327 -4 297 -13 285 -16 c 0
 273 -19 218 -20 204 -18 c 0
 198 -17 189 -16 183 -15 c 0
 164 -12 118 9 105 20 c 0
 103 22 98 23 87 23 c 0
 69 23 65 24 59 31 c 0
 52 39 50 57 48 150 c 0
 47 195 45 245 44 259 c 0
 39 306 37 337 38 341 c 0
 39 347 35 395 31 414 c 0
 28 431 24 459 24 466 c 0
 24 476 23 500 21 506 c 0
 20 510 19 515 21 519 c 0
 23 525 27 527 43 533 c 0
 53 537 56 549 70 549 c 0
 76 549 87 553 87 555 c 0
 87 557 113 564 116 565 c 0
 139 573 180 580 193 578 c 0
 203 576 206 582 214 580 c 0
 217 579 227 579 237 578 c 0
 256 577 288 569 303 562 c 0
 314 557 314 559 322 553 c 0
 325 551 328 549 329 549 c 0
 331 549 342 540 344 540 c 0
236 501 m 0
 213 505 211 505 176 502 c 0
 155 500 110 491 99 487 c 0
 93 484 102 468 101 461 c 0
 101 458 102 449 104 442 c 0
 111 415 112 335 117 289 c 0
 121 245 125 180 124 158 c 0
 124 149 124 132 125 119 c 2
 127 95 l 1
 130 94 139 91 139 88 c 0
 139 83 179 61 193 59 c 0
 196 58 213 57 231 56 c 0
 262 55 263 55 278 60 c 0
 287 63 296 67 299 69 c 0
 310 78 319 124 315 146 c 0
 310 170 309 176 304 186 c 0
 301 192 295 199 291 202 c 0
 277 213 244 232 199 254 c 0
 160 273 153 278 143 287 c 0
 131 299 131 298 132 323 c 0
 132 330 134 337 135 339 c 0
 139 345 164 360 170 360 c 0
 175 360 194 366 221 377 c 0
 251 389 297 426 305 455 c 0
 308 466 308 467 305 473 c 0
 302 478 297 481 284 488 c 0
 274 493 264 497 261 497 c 0
 258 497 247 499 236 501 c 0
EndSplineSet
Comment: "char_L5_P25_x5722_y3073_x5924_y3397_Qg+AD0APQAA.svg"
EndChar

StartChar: U
Encoding: 85 85 54
Width: 454
VWidth: 776
Flags: HW
LayerCount: 2
Fore
SplineSet
315 588 m 0
 317 590 325 589 343 588 c 0
 351 587 373 564 375 552 c 0
 376 545 380 531 382 525 c 0
 382 523 385 515 387 508 c 0
 399 467 408 414 411 374 c 0
 411 368 412 362 413 361 c 0
 415 357 416 306 414 277 c 0
 412 247 407 215 404 207 c 0
 403 205 401 198 399 192 c 0
 386 150 342 80 310 47 c 0
 306 43 298 35 293 29 c 0
 283 18 258 -3 255 -3 c 0
 253 -3 232 -14 226 -18 c 0
 223 -20 213 -24 204 -27 c 0
 187 -32 187 -32 168 -30 c 0
 131 -26 117 -18 93 1 c 0
 88 6 67 32 67 34 c 0
 67 35 62 44 57 55 c 0
 38 93 30 125 25 162 c 0
 19 203 18 248 22 341 c 0
 23 373 31 439 35 448 c 0
 36 450 37 458 37 464 c 0
 37 478 40 484 41 495 c 0
 42 502 43 507 51 527 c 0
 60 548 66 554 79 560 c 1
 99 550 l 2
 119 541 126 534 123 529 c 0
 122 528 120 522 120 516 c 0
 118 487 118 479 113 470 c 0
 112 467 110 461 110 456 c 0
 110 451 108 430 105 410 c 0
 101 376 97 297 97 259 c 0
 97 226 103 165 111 127 c 0
 114 112 130 76 141 63 c 0
 173 24 215 62 242 89 c 0
 263 110 272 121 285 140 c 0
 311 178 329 220 334 255 c 0
 340 301 335 337 331 377 c 0
 327 415 317 464 309 500 c 0
 308 506 306 511 305 511 c 0
 301 511 294 523 291 533 c 0
 284 561 292 586 307 586 c 0
 310 586 313 587 315 588 c 0
EndSplineSet
Comment: "char_L7_P26_x5789_y3967_x5998_y4296_VQ+AD0APQAA.svg"
EndChar

StartChar: V
Encoding: 86 86 55
Width: 426
VWidth: 747
Flags: HW
LayerCount: 2
Fore
SplineSet
317 567 m 0
 328 578 329 576 350 576 c 0
 365 576 372 575 372 570 c 0
 372 569 373 567 375 566 c 0
 379 563 387 550 387 545 c 0
 387 543 383 523 377 500 c 0
 371 477 364 449 361 437 c 0
 354 410 353 415 348 390 c 0
 338 338 313 258 307 208 c 0
 305 186 288 108 285 100 c 0
 283 96 284 93 284 93 c 0
 286 91 273 57 267 46 c 0
 260 33 241 11 236 11 c 0
 234 11 234 11 234 10 c 0
 234 4 210 3 192 9 c 0
 174 15 171 17 166 26 c 0
 164 30 160 35 158 36 c 0
 151 41 133 73 126 93 c 0
 121 107 120 104 116 116 c 0
 111 130 106 143 97 176 c 0
 95 182 94 189 94 192 c 0
 94 199 86 228 83 234 c 0
 81 238 66 293 66 298 c 0
 66 303 54 341 52 342 c 0
 50 343 41 375 41 379 c 0
 41 381 39 385 37 389 c 0
 31 398 29 420 24 430 c 0
 22 434 20 441 20 445 c 0
 20 458 22 462 39 472 c 0
 57 483 56 482 71 480 c 1
 89 453 l 2
 99 438 107 425 107 424 c 0
 107 420 116 404 117 398 c 0
 119 384 140 319 143 305 c 0
 148 284 157 262 161 241 c 0
 173 182 176 181 192 136 c 0
 198 119 204 104 204 104 c 0
 217 149 l 0
 218 152 219 164 221 176 c 0
 225 204 228 220 230 222 c 0
 231 223 232 227 232 230 c 0
 232 253 242 269 245 290 c 0
 248 310 265 373 272 404 c 0
 274 414 277 424 278 427 c 0
 280 433 287 460 302 517 c 0
 310 547 315 565 317 567 c 0
EndSplineSet
Comment: "char_L7_P29_x6388_y3974_x6582_y4277_Vg+AD0APQAA.svg"
EndChar

StartChar: W
Encoding: 87 87 56
Width: 621
VWidth: 813
Flags: HW
LayerCount: 2
Fore
SplineSet
479 609 m 0
 482 609 496 622 499 623 c 0
 501 623 504 624 506 624 c 0
 511 624 537 614 542 610 c 0
 548 604 561 577 564 563 c 0
 568 542 572 504 576 476 c 0
 577 464 579 377 581 365 c 0
 583 357 579 314 576 307 c 0
 574 304 572 297 572 291 c 0
 569 256 561 249 551 223 c 0
 544 204 523 166 516 158 c 0
 514 155 512 152 512 151 c 0
 512 147 488 116 486 113 c 0
 481 106 452 76 450 76 c 0
 449 76 441 70 432 63 c 0
 408 44 373 29 334 42 c 0
 323 46 300 59 300 61 c 0
 300 62 298 66 295 69 c 0
 292 73 286 81 282 88 c 0
 278 95 275 101 274 101 c 0
 273 101 269 95 265 88 c 0
 242 47 238 39 219 21 c 0
 199 2 181 -7 161 -9 c 0
 142 -10 117 -2 107 10 c 0
 104 14 99 20 96 23 c 0
 90 29 76 57 76 61 c 0
 76 62 74 66 72 71 c 0
 68 80 62 100 61 109 c 0
 60 119 55 161 54 162 c 0
 53 163 47 230 46 254 c 0
 45 264 44 295 43 322 c 0
 40 389 32 456 25 473 c 0
 20 485 18 514 22 519 c 0
 23 521 33 526 42 532 c 0
 59 542 65 544 75 541 c 0
 80 540 111 487 107 487 c 1
 107 487 112 472 113 467 c 0
 121 386 119 336 127 229 c 0
 129 202 131 176 131 170 c 0
 131 165 132 158 133 156 c 0
 134 154 136 141 138 127 c 0
 142 103 149 80 155 73 c 0
 157 70 157 70 163 74 c 0
 173 82 194 116 229 180 c 0
 251 220 255 225 264 231 c 0
 281 242 305 244 311 234 c 0
 312 233 316 230 320 228 c 0
 326 225 327 223 328 217 c 0
 329 213 334 205 333 203 c 0
 332 201 336 174 341 152 c 0
 349 114 358 107 381 122 c 0
 418 146 465 209 480 257 c 0
 483 266 486 274 487 276 c 0
 489 280 496 315 496 322 c 0
 496 325 498 330 499 332 c 0
 504 340 503 363 501 417 c 0
 498 479 497 477 491 524 c 0
 489 541 486 554 484 555 c 0
 479 559 473 573 472 584 c 0
 471 595 475 609 479 609 c 0
EndSplineSet
Comment: "char_L6_P11_x2857_y3504_x3153_y3837_Vw+AD0APQAA.svg"
EndChar

StartChar: X
Encoding: 88 88 57
Width: 470
VWidth: 777
Flags: HW
LayerCount: 2
Fore
SplineSet
77 22 m 0
 75 22 64 16 62 16 c 0
 57 16 22 39 21 43 c 0
 15 63 38 95 49 114 c 0
 61 137 74 157 87 180 c 0
 92 190 112 224 131 257 c 2
 166 316 l 1
 155 337 l 2
 149 348 143 359 143 360 c 0
 143 361 137 372 130 384 c 0
 118 403 105 426 86 464 c 0
 71 493 67 497 41 550 c 0
 37 557 40 561 41 570 c 0
 42 577 44 579 55 587 c 0
 62 592 69 595 72 596 c 0
 75 596 77 598 77 598 c 0
 83 604 104 577 109 572 c 0
 118 563 130 542 156 492 c 0
 181 444 171 466 195 422 c 2
 212 391 l 1
 235 430 l 2
 248 451 264 477 271 488 c 0
 290 516 314 555 315 559 c 0
 316 574 322 583 339 592 c 0
 355 601 381 596 383 585 c 0
 384 582 387 579 390 578 c 0
 397 575 399 570 398 557 c 0
 397 545 396 542 370 503 c 0
 339 456 294 384 285 367 c 0
 279 356 260 325 256 319 c 0
 254 316 256 312 279 273 c 0
 310 221 328 196 359 155 c 0
 383 123 397 103 409 82 c 0
 416 70 420 67 423 54 c 0
 424 50 426 43 428 38 c 0
 431 30 431 29 427 20 c 0
 424 14 422 12 420 12 c 0
 418 12 410 8 402 4 c 0
 390 -2 386 -3 381 -2 c 0
 370 0 361 5 357 14 c 0
 347 37 328 70 309 96 c 0
 276 140 252 170 225 216 c 0
 217 229 211 240 210 240 c 0
 208 240 149 134 128 101 c 0
 123 93 82 18 77 22 c 0
EndSplineSet
Comment: "char_L4_P23_x8099_y2616_x8319_y2938_WA+AD0APQAA.svg"
EndChar

StartChar: Y
Encoding: 89 89 58
Width: 521
VWidth: 734
Flags: HW
LayerCount: 2
Fore
SplineSet
444 565 m 0
 461 569 468 566 476 548 c 0
 482 535 482 534 480 524 c 0
 473 495 467 483 449 459 c 0
 428 432 397 391 370 352 c 0
 342 311 327 297 297 246 c 0
 288 231 288 229 285 208 c 0
 282 188 283 164 278 148 c 0
 276 142 271 74 271 43 c 0
 271 22 268 13 261 10 c 0
 257 9 222 3 215 3 c 0
 208 3 200 11 199 19 c 0
 191 71 191 66 196 109 c 0
 201 150 202 165 206 203 c 0
 207 211 208 220 209 224 c 0
 211 231 210 231 203 238 c 0
 194 246 179 268 170 283 c 0
 149 320 71 434 65 438 c 0
 58 442 24 505 21 517 c 0
 18 529 22 542 30 549 c 0
 32 551 41 554 50 557 c 2
 65 562 l 1
 73 558 l 2
 82 553 88 547 98 527 c 0
 102 520 108 508 113 501 c 0
 121 489 158 438 160 436 c 0
 168 430 246 303 246 305 c 0
 246 307 284 365 288 368 c 0
 289 369 298 379 306 391 c 0
 314 403 337 434 356 460 c 0
 398 517 404 526 404 536 c 0
 405 548 405 549 409 554 c 0
 414 560 427 565 433 564 c 0
 435 564 440 564 444 565 c 0
EndSplineSet
Comment: "char_L4_P24_x8417_y2633_x8666_y2935_WQ+AD0APQAA.svg"
EndChar

StartChar: Z
Encoding: 90 90 59
Width: 509
VWidth: 750
Flags: HW
LayerCount: 2
Fore
SplineSet
343 581 m 0
 345 582 387 584 390 583 c 0
 402 582 433 574 435 572 c 0
 436 571 452 566 452 564 c 0
 452 563 453 562 455 561 c 0
 461 559 465 552 465 547 c 0
 465 544 467 538 468 534 c 0
 471 524 468 509 462 502 c 0
 460 499 458 497 458 495 c 0
 458 494 453 485 447 476 c 0
 436 460 418 440 339 360 c 0
 288 308 244 262 219 232 c 0
 209 220 195 204 190 198 c 0
 170 176 121 109 121 105 c 0
 121 103 162 104 199 108 c 0
 235 112 291 112 381 110 c 0
 443 109 451 108 455 105 c 0
 460 101 468 68 466 58 c 0
 464 49 456 41 445 38 c 0
 414 30 400 30 329 36 c 0
 296 39 283 36 250 35 c 0
 215 34 178 31 141 30 c 0
 111 29 47 22 37 34 c 0
 17 58 16 61 28 91 c 0
 38 118 57 150 80 180 c 0
 93 197 120 235 134 249 c 0
 142 258 156 275 160 281 c 0
 165 289 224 353 261 390 c 0
 278 407 339 471 356 489 c 0
 369 502 371 505 368 506 c 0
 363 508 310 502 278 497 c 0
 245 492 241 493 213 488 c 0
 188 484 176 481 158 480 c 0
 137 479 135 476 115 475 c 0
 96 473 88 468 72 468 c 0
 56 468 55 469 44 491 c 0
 28 524 42 527 66 539 c 0
 82 547 90 549 97 550 c 0
 124 552 186 560 261 571 c 0
 300 577 318 579 332 579 c 0
 337 579 342 580 343 581 c 0
EndSplineSet
Comment: "char_L4_P25_x8746_y2624_x8987_y2922_Wg+AD0APQAA.svg"
EndChar

StartChar: I_hyphen_p_r_o_n_o_u_n
Encoding: 1114117 -1 60
Width: 449
VWidth: 189
Flags: HW
LayerCount: 2
Fore
SplineSet
356 606 m 0
 360 607 375 613 379 611 c 0
 382 609 385 609 388 607 c 0
 391 605 407 579 409 574 c 0
 411 568 404 548 400 546 c 0
 398 545 394 542 391 538 c 0
 386 532 382 530 364 526 c 0
 332 518 301 515 269 514 c 2
 258 513 l 1
 258 475 l 2
 257 425 254 389 252 342 c 0
 249 291 248 314 246 254 c 0
 243 192 244 211 242 155 c 0
 241 127 240 117 238 115 c 0
 235 113 234 101 237 99 c 0
 238 98 240 99 242 100 c 0
 245 101 274 104 285 104 c 0
 312 104 328 103 337 101 c 0
 348 98 353 102 359 97 c 0
 367 91 374 90 379 80 c 0
 382 75 384 72 385 72 c 0
 391 72 392 43 388 37 c 0
 387 35 381 22 381 22 c 0
 380 23 379 22 377 20 c 0
 372 15 363 10 353 9 c 0
 344 8 344 8 336 15 c 0
 332 19 325 24 322 25 c 0
 315 27 276 27 273 25 c 0
 271 24 259 22 232 21 c 0
 207 19 182 16 158 15 c 0
 147 14 136 12 135 14 c 0
 134 16 113 12 112 12 c 0
 89 12 50 15 39 21 c 0
 35 23 31 25 30 25 c 0
 29 25 26 27 24 30 c 0
 20 35 19 38 20 56 c 0
 21 75 22 76 26 81 c 0
 33 88 43 86 54 89 c 0
 60 91 67 92 80 91 c 0
 105 89 113 88 132 89 c 0
 157 91 158 92 159 103 c 0
 167 178 167 248 173 325 c 0
 181 414 183 451 180 490 c 2
 178 507 l 1
 140 507 l 2
 69 507 56 514 54 548 c 0
 53 565 54 566 70 577 c 2
 78 583 l 1
 120 583 l 2
 176 583 272 589 274 592 c 0
 275 593 283 593 293 593 c 0
 314 593 332 597 343 602 c 0
 347 604 353 606 356 606 c 0
EndSplineSet
Ligature2: "liga" I hyphen p r o n o u n
Comment: "char_L4_P26_x9173_y2609_x9382_y2932_SS1wcm9ub3Vu.svg"
EndChar

StartChar: C
Encoding: 67 67 61
Width: 468
VWidth: 802
Flags: HW
LayerCount: 2
Fore
SplineSet
241 618 m 0
 257 621 288 617 295 611 c 0
 298 609 303 608 306 607 c 0
 311 606 334 592 344 585 c 0
 353 578 370 560 373 554 c 0
 378 544 393 524 391 511 c 0
 390 502 388 500 377 493 c 0
 371 489 364 485 362 484 c 0
 358 483 348 486 348 488 c 0
 348 489 347 490 345 490 c 0
 344 490 340 492 337 495 c 0
 329 503 297 527 284 534 c 0
 269 543 253 546 237 537 c 0
 224 530 195 499 181 478 c 0
 157 442 139 413 124 366 c 0
 118 349 113 332 112 330 c 0
 103 311 97 251 98 216 c 0
 99 182 98 180 105 159 c 0
 109 147 115 134 118 128 c 0
 126 114 144 95 159 88 c 0
 184 76 233 82 258 92 c 0
 285 103 328 128 347 146 c 0
 362 159 371 166 375 167 c 0
 377 167 381 169 383 170 c 0
 392 175 398 174 410 164 c 0
 426 151 426 151 428 143 c 0
 430 135 426 126 417 112 c 0
 411 102 378 70 374 70 c 0
 371 70 348 56 343 51 c 0
 334 44 270 14 262 14 c 0
 260 14 253 12 246 10 c 0
 221 2 168 4 140 14 c 0
 93 31 55 71 37 125 c 0
 32 140 22 158 20 181 c 0
 19 187 19 218 20 229 c 0
 20 231 21 242 21 252 c 0
 21 269 24 293 30 317 c 0
 34 335 41 362 43 365 c 0
 44 367 45 370 45 372 c 0
 45 377 54 402 58 407 c 0
 60 409 62 415 63 418 c 0
 65 427 85 465 101 492 c 0
 133 545 171 588 197 601 c 0
 210 608 232 616 241 618 c 0
EndSplineSet
Comment: "char_L4_P2_x828_y2605_x1048_y2934_Qw+AD0APQAA.svg"
EndChar

StartChar: D
Encoding: 68 68 62
Width: 500
VWidth: 767
Flags: HW
LayerCount: 2
Fore
SplineSet
365 520 m 0
 367 520 383 503 386 503 c 0
 387 503 389 500 391 498 c 0
 393 496 398 488 404 482 c 0
 421 463 421 462 433 438 c 0
 449 406 449 407 451 399 c 0
 453 387 454 389 456 372 c 0
 457 364 459 357 460 356 c 0
 464 354 458 335 457 322 c 0
 455 303 454 294 447 273 c 0
 442 259 438 245 437 242 c 0
 435 235 413 198 411 197 c 0
 410 197 410 196 410 195 c 0
 410 193 402 184 403 182 c 0
 404 180 367 143 350 128 c 0
 322 104 301 90 270 75 c 0
 259 69 249 63 248 62 c 0
 241 53 153 27 130 27 c 0
 126 27 119 26 115 25 c 0
 102 22 74 23 65 26 c 0
 52 31 35 32 31 42 c 0
 30 45 29 48 28 48 c 0
 27 48 25 50 23 54 c 0
 21 59 20 67 20 95 c 0
 20 144 24 131 25 181 c 0
 28 280 36 390 36 499 c 0
 36 503 35 511 35 518 c 0
 34 533 37 539 56 565 c 0
 72 587 69 576 88 585 c 0
 95 588 116 593 124 595 c 0
 126 596 142 595 159 595 c 0
 201 594 244 586 272 572 c 0
 290 563 299 562 320 549 c 0
 331 542 341 537 342 537 c 0
 343 537 363 520 365 520 c 0
239 505 m 0
 212 517 153 533 120 525 c 0
 93 518 105 518 107 499 c 0
 108 492 109 478 110 467 c 0
 115 417 109 321 107 262 c 0
 106 210 100 123 98 115 c 0
 95 104 96 101 103 101 c 0
 129 101 173 117 195 124 c 0
 213 130 251 150 271 163 c 0
 298 181 347 232 362 266 c 0
 369 282 378 321 380 339 c 0
 382 368 375 381 367 398 c 0
 357 423 327 447 306 466 c 0
 295 475 267 495 264 495 c 0
 264 495 252 499 239 505 c 0
EndSplineSet
Comment: "char_L6_P5_x940_y3519_x1171_y3820_RA+AD0APQAA.svg"
EndChar

StartChar: E
Encoding: 69 69 63
Width: 474
VWidth: 752
Flags: HW
LayerCount: 2
Fore
SplineSet
296 572 m 0
 302 573 323 572 343 572 c 0
 380 571 399 569 411 563 c 0
 422 558 432 555 431 538 c 0
 431 534 432 529 433 526 c 0
 436 519 433 508 424 503 c 0
 420 501 416 497 415 495 c 0
 410 486 393 484 376 490 c 0
 368 493 358 489 352 493 c 0
 345 498 318 497 273 490 c 0
 224 482 202 477 156 462 c 0
 145 458 133 455 130 454 c 0
 125 453 124 452 124 444 c 0
 124 439 125 418 125 398 c 2
 125 361 l 1
 153 366 221 371 247 368 c 0
 251 368 264 364 274 361 c 0
 289 356 294 354 296 350 c 0
 300 344 310 342 309 333 c 0
 309 332 310 332 311 331 c 0
 315 329 312 304 308 299 c 0
 304 294 279 282 274 282 c 0
 272 282 267 284 262 286 c 0
 248 293 228 295 172 294 c 2
 122 294 l 1
 121 262 l 2
 119 208 115 195 112 130 c 0
 110 83 110 71 112 65 c 0
 114 61 115 56 116 55 c 0
 121 49 216 76 236 81 c 0
 264 88 288 90 310 97 c 0
 326 103 392 108 392 103 c 0
 392 102 395 102 398 102 c 0
 407 102 415 98 422 91 c 0
 428 85 428 84 428 69 c 0
 428 40 415 34 387 32 c 0
 359 30 318 23 259 8 c 0
 228 0 200 -8 197 -9 c 0
 186 -14 123 -26 107 -26 c 0
 90 -26 50 -20 43 -16 c 0
 41 -15 38 -14 37 -14 c 0
 34 -14 23 0 21 6 c 0
 20 9 20 18 21 26 c 0
 23 39 24 41 29 46 c 0
 35 52 35 52 34 65 c 0
 31 93 32 116 42 246 c 0
 45 285 46 316 46 375 c 2
 46 453 l 1
 41 465 l 2
 38 472 36 480 36 482 c 0
 36 487 47 508 51 513 c 0
 56 518 68 522 77 522 c 0
 82 522 94 525 104 528 c 0
 124 534 125 535 154 542 c 0
 179 549 191 556 219 559 c 0
 234 560 252 563 268 566 c 0
 286 568 280 571 296 572 c 0
EndSplineSet
Comment: "char_L7_P7_x1595_y3976_x1815_y4293_RQ+AD0APQAA.svg"
EndChar

StartChar: F
Encoding: 70 70 64
Width: 493
VWidth: 746
Flags: HW
LayerCount: 2
Fore
SplineSet
158 579 m 0
 175 582 256 576 277 570 c 0
 283 568 286 568 335 564 c 0
 410 558 432 557 436 554 c 0
 438 553 440 551 442 551 c 0
 445 551 451 541 453 531 c 0
 456 516 441 485 430 483 c 0
 427 483 410 483 391 484 c 0
 372 485 345 487 330 487 c 0
 303 488 305 490 289 491 c 0
 278 491 254 496 244 497 c 0
 169 506 172 507 162 489 c 0
 153 472 155 468 149 446 c 0
 140 408 130 347 128 317 c 2
 127 297 l 1
 136 298 l 2
 157 300 212 304 235 307 c 0
 267 310 253 309 281 307 c 0
 291 306 302 305 304 304 c 0
 310 301 321 277 319 270 c 0
 318 265 311 257 308 257 c 0
 307 257 303 255 300 251 c 0
 285 235 253 232 222 228 c 0
 213 227 186 225 162 223 c 2
 119 220 l 1
 116 188 l 2
 113 158 109 146 107 124 c 0
 106 112 102 89 98 76 c 0
 95 67 95 54 90 49 c 0
 84 42 88 38 78 33 c 0
 71 30 69 30 55 32 c 0
 33 35 28 37 24 46 c 0
 16 61 21 84 25 109 c 0
 32 150 36 178 38 201 c 0
 48 320 46 338 64 429 c 0
 69 454 78 485 80 489 c 0
 85 498 90 523 96 532 c 0
 98 535 100 539 102 542 c 0
 108 556 137 575 158 579 c 0
EndSplineSet
Comment: "char_L6_P2_x472_y3527_x701_y3816_Rg+AD0APQAA.svg"
EndChar

StartChar: G
Encoding: 71 71 65
Width: 482
VWidth: 750
Flags: HW
LayerCount: 2
Fore
SplineSet
197 581 m 0
 221 583 251 581 270 576 c 0
 297 569 294 571 320 561 c 0
 331 557 351 550 364 545 c 0
 388 536 385 535 402 528 c 0
 425 519 425 505 414 481 c 0
 409 471 404 462 402 461 c 0
 397 459 386 458 382 460 c 0
 380 461 367 466 353 470 c 0
 314 482 298 487 293 490 c 0
 286 493 261 500 243 504 c 0
 225 508 195 504 183 497 c 0
 174 492 150 470 150 467 c 0
 150 466 147 460 143 454 c 0
 136 444 125 425 125 423 c 0
 125 422 125 421 124 420 c 0
 118 411 104 371 103 359 c 0
 103 356 101 344 99 334 c 0
 96 317 96 313 98 286 c 0
 100 254 106 231 109 206 c 0
 110 197 114 187 122 171 c 0
 133 149 135 147 152 132 c 0
 175 112 195 101 228 97 c 0
 243 95 246 95 257 99 c 0
 278 106 291 116 314 142 c 0
 334 164 347 186 355 208 c 0
 358 216 366 254 366 260 c 0
 366 262 352 266 336 267 c 0
 318 268 244 259 238 264 c 0
 227 273 223 276 221 301 c 0
 220 314 220 317 224 323 c 0
 226 327 230 329 232 329 c 0
 234 329 235 330 235 331 c 0
 235 335 299 343 331 343 c 0
 352 343 376 340 380 337 c 0
 385 333 397 331 404 327 c 0
 414 321 431 317 431 303 c 0
 431 302 433 301 434 300 c 0
 438 298 441 282 442 265 c 0
 443 252 442 244 437 213 c 0
 435 200 423 165 420 163 c 0
 419 162 416 157 413 150 c 0
 410 143 403 133 399 128 c 0
 395 123 392 118 392 117 c 0
 392 111 346 62 329 50 c 0
 324 46 320 45 320 45 c 1
 304 37 285 25 262 22 c 0
 235 18 207 21 181 30 c 0
 158 38 163 38 148 43 c 0
 138 46 131 53 122 57 c 0
 111 63 74 100 69 110 c 0
 68 112 67 114 66 114 c 0
 65 114 52 140 51 141 c 0
 46 146 37 174 33 196 c 0
 27 223 24 220 22 256 c 0
 20 274 19 290 21 310 c 0
 23 325 27 387 33 387 c 0
 34 387 34 389 34 390 c 0
 34 395 42 415 43 420 c 0
 46 438 92 517 109 533 c 0
 125 548 169 575 177 575 c 0
 179 575 182 576 183 577 c 0
 184 579 191 581 197 581 c 0
EndSplineSet
Comment: "char_L4_P6_x2155_y2625_x2381_y2926_Rw+AD0APQAA.svg"
EndChar

StartChar: H
Encoding: 72 72 66
Width: 432
VWidth: 710
Flags: HW
LayerCount: 2
Fore
SplineSet
306 333 m 1
 306 336 306 344 306 346 c 0
 306 347 307 367 309 391 c 0
 311 415 313 446 313 460 c 0
 315 521 317 533 333 547 c 1
 355 545 l 2
 375 543 378 542 383 537 c 0
 394 525 391 514 392 474 c 0
 393 385 380 244 378 158 c 0
 377 99 378 61 383 43 c 0
 387 30 380 24 372 20 c 0
 353 10 349 8 343 6 c 0
 335 3 324 5 319 11 c 0
 303 27 302 31 298 63 c 0
 296 77 295 179 297 182 c 0
 297 183 297 199 298 218 c 2
 300 253 l 1
 290 254 l 2
 274 256 237 252 174 241 c 0
 161 239 147 236 141 236 c 0
 131 236 123 234 116 231 c 1
 114 204 l 2
 111 167 111 156 108 119 c 0
 105 87 105 50 99 29 c 0
 97 22 92 15 88 15 c 0
 87 15 85 14 83 12 c 0
 80 9 76 10 56 11 c 0
 43 12 33 13 33 14 c 0
 33 15 32 16 30 18 c 0
 28 20 25 26 23 31 c 0
 19 40 19 42 22 69 c 0
 23 85 26 104 27 113 c 0
 28 122 28 129 28 130 c 0
 26 132 34 239 38 266 c 0
 42 295 43 326 48 434 c 0
 52 517 54 530 58 536 c 0
 66 546 73 548 95 548 c 0
 117 548 119 547 121 536 c 0
 122 532 123 529 124 528 c 0
 130 524 131 426 126 343 c 0
 125 328 124 315 124 315 c 0
 125 313 234 337 283 334 c 2
 306 333 l 1
EndSplineSet
Comment: "char_L9_P25_x8646_y5354_x8835_y5629_SA+AD0APQAA.svg"
EndChar

StartChar: I
Encoding: 73 73 67
Width: 156
VWidth: 731
Flags: HW
LayerCount: 2
Fore
SplineSet
43 563 m 0
 46 563 56 565 66 565 c 0
 88 565 92 563 95 551 c 0
 96 546 98 513 98 452 c 0
 99 350 103 326 103 240 c 0
 103 166 109 68 114 58 c 0
 117 52 118 32 115 23 c 0
 110 7 102 5 73 5 c 0
 58 5 55 7 46 21 c 0
 42 28 40 34 37 52 c 0
 31 88 30 109 27 219 c 0
 26 277 24 324 23 325 c 0
 22 326 19 487 20 499 c 0
 22 540 30 561 43 563 c 0
EndSplineSet
Comment: "char_L4_P8_x2852_y2634_x2905_y2934_SQ+AD0APQAA.svg"
EndChar

StartChar: J
Encoding: 74 74 68
Width: 551
VWidth: 759
Flags: HW
LayerCount: 2
Fore
SplineSet
320 574 m 0
 389 588 393 590 460 589 c 0
 501 588 505 587 510 577 c 0
 513 572 513 565 510 541 c 0
 508 523 508 523 501 519 c 0
 495 515 493 513 469 514 c 0
 438 515 358 509 352 504 c 0
 350 503 328 500 328 497 c 0
 328 496 331 485 334 472 c 0
 343 435 349 396 349 376 c 0
 349 366 350 356 351 354 c 0
 354 349 352 281 349 268 c 0
 347 259 340 215 336 208 c 0
 335 205 334 200 334 198 c 0
 334 187 313 142 299 122 c 0
 295 117 293 113 294 113 c 0
 295 113 288 105 289 104 c 0
 290 103 255 67 248 62 c 0
 244 60 241 57 240 56 c 0
 236 51 206 36 189 31 c 0
 159 22 138 19 116 27 c 0
 99 33 93 34 77 43 c 0
 70 47 64 51 63 51 c 0
 61 51 35 79 32 85 c 0
 20 107 19 116 21 132 c 0
 23 147 26 150 47 155 c 0
 60 158 66 159 69 158 c 0
 74 156 85 146 89 139 c 0
 97 125 109 113 124 105 c 2
 139 97 l 1
 157 102 l 2
 184 108 190 110 212 133 c 0
 229 151 234 156 244 176 c 0
 258 203 275 262 275 316 c 0
 276 391 269 404 257 465 c 0
 254 480 252 485 250 485 c 0
 247 485 217 479 195 474 c 0
 175 470 139 475 125 484 c 0
 115 490 115 493 117 515 c 0
 119 531 119 532 125 538 c 0
 133 545 143 548 172 550 c 0
 240 556 261 561 320 574 c 0
EndSplineSet
Comment: "char_L4_P9_x3038_y2621_x3302_y2925_Sg+AD0APQAA.svg"
EndChar

StartChar: E_A
Encoding: 1114118 -1 69
Width: 920
VWidth: 12
Flags: HW
LayerCount: 2
Fore
SplineSet
88 568 m 0
 90 568 120 581 122 581 c 0
 123 581 164 595 166 594 c 0
 167 593 170 594 171 595 c 0
 177 600 227 611 263 615 c 0
 275 616 336 614 351 612 c 0
 368 610 371 609 372 607 c 0
 374 604 381 604 382 599 c 0
 383 597 384 595 385 595 c 0
 386 595 387 591 387 587 c 0
 387 583 389 577 390 575 c 0
 394 570 389 566 389 561 c 0
 389 559 380 555 380 552 c 0
 380 548 371 545 369 543 c 0
 366 539 346 536 339 538 c 0
 311 545 248 540 196 526 c 0
 177 521 113 496 109 492 c 0
 107 491 118 448 119 443 c 0
 120 436 123 417 124 401 c 0
 127 361 126 362 133 362 c 0
 136 362 146 363 154 365 c 0
 220 377 253 372 279 350 c 0
 285 345 293 331 286 320 c 0
 284 317 283 313 284 311 c 0
 285 307 279 298 275 298 c 0
 274 298 271 296 268 293 c 0
 260 284 237 286 233 290 c 0
 231 292 227 295 225 296 c 0
 220 297 173 293 149 289 c 0
 141 288 137 289 132 290 c 1
 132 266 l 2
 132 250 134 121 139 109 c 2
 140 104 l 1
 150 108 l 2
 155 110 161 112 163 113 c 0
 172 118 237 134 256 136 c 0
 262 137 268 138 269 139 c 0
 273 142 321 148 349 149 c 0
 368 150 412 142 418 137 c 0
 421 135 421 136 426 179 c 0
 433 241 442 296 457 350 c 0
 460 361 463 372 463 373 c 0
 463 376 474 411 476 414 c 0
 477 415 481 426 485 437 c 0
 503 484 520 517 539 545 c 0
 551 562 575 588 579 588 c 0
 582 588 595 599 598 599 c 0
 603 599 610 607 617 607 c 0
 621 607 624 607 626 608 c 0
 634 612 657 604 664 602 c 0
 671 601 695 587 706 579 c 0
 710 576 713 574 714 574 c 0
 715 574 744 545 755 534 c 0
 783 504 818 446 838 398 c 0
 852 363 867 314 867 301 c 0
 867 297 868 292 869 289 c 0
 877 269 881 225 880 147 c 0
 880 109 879 77 879 75 c 0
 878 70 861 55 855 54 c 0
 852 53 848 51 846 50 c 0
 841 46 829 48 824 53 c 0
 822 55 819 57 817 57 c 0
 806 57 799 86 802 102 c 0
 805 115 804 214 801 234 c 0
 799 250 790 289 789 303 c 0
 788 313 786 326 785 326 c 0
 783 326 772 314 770 313 c 0
 768 311 759 310 733 309 c 0
 694 308 609 301 601 299 c 0
 591 295 565 291 556 286 c 0
 551 284 545 282 544 282 c 0
 542 282 535 280 529 278 c 0
 516 274 517 275 514 252 c 0
 514 248 512 234 510 221 c 0
 504 179 502 174 498 134 c 0
 494 91 491 79 480 73 c 0
 475 70 473 70 450 73 c 0
 427 76 425 76 419 73 c 0
 411 69 402 68 379 71 c 0
 339 75 305 68 269 63 c 0
 236 58 246 58 215 50 c 0
 189 43 147 30 131 27 c 0
 107 22 95 22 88 28 c 0
 84 32 77 46 77 52 c 0
 77 56 66 68 65 73 c 0
 60 92 59 216 57 252 c 0
 55 284 53 350 49 378 c 0
 47 398 45 432 40 450 c 0
 34 471 41 470 28 486 c 0
 20 497 19 498 20 506 c 0
 21 517 24 523 31 529 c 0
 34 532 36 535 36 536 c 0
 36 537 38 539 41 540 c 0
 44 541 51 546 56 550 c 0
 65 557 83 568 88 568 c 0
652 526 m 0
 643 532 632 532 624 527 c 0
 617 522 599 501 592 489 c 0
 582 472 566 437 565 432 c 0
 564 426 549 395 549 395 c 1
 550 395 548 388 545 379 c 2
 539 363 l 1
 555 365 566 369 582 371 c 0
 602 373 623 378 648 379 c 0
 660 379 671 381 673 382 c 0
 675 383 693 384 719 384 c 0
 743 384 762 384 762 385 c 0
 762 387 753 404 744 420 c 0
 735 437 720 458 710 471 c 0
 700 484 665 517 652 526 c 0
EndSplineSet
Ligature2: "liga" E A
Comment: "char_L5_P20_x4474_y3054_x4938_y3374_RUE+AD0A.svg"
EndChar

StartChar: C_O
Encoding: 1114119 -1 70
Width: 776
VWidth: 91
Flags: HW
LayerCount: 2
Fore
SplineSet
615 529 m 0
 617 529 635 516 637 516 c 0
 641 516 668 486 678 472 c 0
 700 441 708 428 714 413 c 0
 725 385 727 373 732 353 c 0
 735 340 737 291 736 277 c 0
 735 262 731 262 729 250 c 0
 726 232 713 200 706 193 c 0
 703 190 700 187 700 185 c 0
 700 184 700 182 699 182 c 0
 698 182 693 177 688 170 c 0
 673 148 632 110 613 99 c 0
 597 90 556 66 539 64 c 0
 530 63 512 60 499 58 c 0
 486 56 487 60 476 60 c 0
 468 60 451 64 449 67 c 0
 448 68 416 84 415 85 c 0
 413 88 393 104 392 104 c 0
 391 104 391 103 391 102 c 0
 391 99 384 89 383 85 c 0
 381 71 379 67 371 59 c 0
 362 50 342 39 327 34 c 0
 323 33 319 31 318 30 c 0
 314 27 278 19 262 18 c 0
 229 16 165 23 156 30 c 0
 155 31 151 32 146 34 c 0
 132 40 102 62 86 78 c 0
 77 87 70 95 70 96 c 0
 70 97 68 101 65 105 c 0
 53 121 33 163 33 173 c 0
 33 176 32 183 30 187 c 0
 26 195 23 210 21 233 c 0
 19 250 20 317 22 328 c 0
 28 359 33 378 37 398 c 0
 44 431 67 482 100 532 c 0
 110 548 146 581 154 581 c 0
 155 581 157 581 158 582 c 0
 160 584 187 593 194 594 c 0
 207 596 226 594 241 589 c 0
 259 583 271 572 287 559 c 0
 292 555 298 548 301 544 c 0
 306 536 320 497 320 491 c 0
 320 488 316 483 305 472 c 0
 301 468 282 459 275 463 c 0
 273 465 270 466 270 467 c 0
 270 469 244 497 243 499 c 0
 241 504 212 521 207 521 c 0
 200 521 182 511 172 500 c 0
 152 479 125 431 115 398 c 0
 104 361 96 327 96 273 c 0
 96 231 98 219 108 190 c 0
 120 158 117 154 148 124 c 0
 165 107 166 106 182 100 c 2
 199 94 l 1
 233 94 l 2
 277 94 311 102 331 116 c 0
 335 119 340 121 343 121 c 0
 350 121 350 127 358 128 c 0
 364 129 367 128 374 123 c 0
 381 118 386 118 379 123 c 0
 375 126 359 160 355 172 c 0
 351 188 343 219 341 234 c 0
 339 249 340 307 343 323 c 0
 347 343 351 371 358 392 c 0
 362 404 365 416 365 418 c 0
 365 423 376 449 379 452 c 0
 380 453 382 456 384 460 c 0
 394 479 402 492 409 503 c 0
 419 519 444 547 447 547 c 0
 448 547 451 549 453 551 c 0
 468 567 507 585 533 579 c 0
 554 574 559 571 575 555 c 0
 587 544 593 539 600 537 c 0
 605 535 611 532 612 531 c 0
 613 530 614 529 615 529 c 0
513 479 m 0
 507 486 501 492 500 492 c 0
 498 492 476 467 470 458 c 0
 461 445 441 409 440 403 c 0
 439 400 435 387 431 374 c 0
 414 319 411 274 420 224 c 0
 436 137 486 111 560 153 c 0
 600 176 634 213 648 250 c 0
 650 256 654 262 655 263 c 0
 656 264 658 267 658 269 c 0
 658 271 659 276 660 282 c 0
 662 297 658 334 653 353 c 0
 643 388 637 401 620 423 c 0
 608 439 607 441 604 438 c 0
 603 437 596 435 590 433 c 0
 577 429 572 430 569 438 c 0
 568 441 565 444 563 445 c 0
 561 446 557 451 554 457 c 0
 551 463 548 467 547 467 c 0
 546 467 543 466 541 465 c 0
 533 461 525 465 513 479 c 0
EndSplineSet
Ligature2: "liga" C O
Comment: "char_L5_P34_x7615_y3065_x8003_y3377_Q08+AD0A.svg"
EndChar

StartChar: C_R
Encoding: 1114120 -1 71
Width: 778
VWidth: 113
Flags: HW
LayerCount: 2
Fore
SplineSet
306 434 m 0
 306 430 300 430 300 427 c 0
 300 426 297 422 294 418 c 0
 287 411 282 410 268 414 c 0
 261 416 258 418 256 421 c 0
 253 427 257 427 254 433 c 0
 253 435 252 445 252 456 c 0
 252 474 246 497 233 496 c 0
 214 495 190 479 168 453 c 0
 136 416 126 397 108 341 c 0
 100 317 96 283 97 245 c 0
 98 212 101 203 112 177 c 0
 132 131 167 106 231 118 c 0
 257 123 264 125 277 131 c 0
 283 134 288 136 288 135 c 1
 288 135 301 142 305 142 c 0
 311 142 313 143 320 150 c 0
 324 155 330 159 332 159 c 0
 334 159 341 155 346 150 c 2
 355 142 l 1
 357 173 l 2
 358 190 358 218 358 236 c 0
 358 254 358 270 359 272 c 0
 361 277 358 398 356 408 c 0
 355 413 354 424 354 432 c 0
 354 450 351 506 360 515 c 0
 363 518 370 521 381 523 c 0
 396 526 398 527 402 533 c 0
 419 559 444 583 469 598 c 0
 487 609 491 611 494 611 c 0
 495 611 497 611 497 612 c 0
 498 616 530 618 537 617 c 0
 543 616 553 615 560 615 c 0
 573 615 603 604 606 600 c 0
 607 599 610 597 614 596 c 0
 622 593 642 581 649 578 c 0
 652 577 682 553 685 553 c 0
 687 553 693 544 695 545 c 0
 697 546 702 535 704 535 c 0
 706 535 715 519 716 518 c 0
 723 512 733 487 734 477 c 0
 736 462 741 463 738 446 c 0
 736 432 739 435 735 424 c 0
 729 408 715 373 704 363 c 0
 702 361 700 359 700 358 c 0
 700 354 667 325 652 317 c 0
 630 305 626 299 599 291 c 0
 576 284 577 283 558 279 c 1
 565 273 l 2
 574 265 612 237 613 237 c 0
 617 237 666 191 670 183 c 0
 671 180 674 177 676 175 c 0
 679 172 696 145 699 142 c 0
 701 141 717 101 716 100 c 0
 716 99 717 95 718 90 c 0
 722 76 728 44 726 44 c 0
 725 44 725 41 726 38 c 0
 727 33 726 30 720 24 c 0
 713 16 712 15 683 13 c 2
 669 12 l 1
 661 20 l 2
 656 24 654 28 654 31 c 0
 654 33 652 47 648 61 c 0
 636 107 621 129 580 165 c 0
 554 188 490 237 470 249 c 0
 459 255 438 272 437 275 c 0
 436 280 434 230 433 165 c 0
 432 124 432 101 433 100 c 0
 436 98 437 80 438 76 c 0
 439 72 438 68 432 60 c 0
 425 49 420 46 412 46 c 0
 409 46 405 44 402 43 c 0
 389 36 372 44 361 63 c 0
 357 70 357 74 356 103 c 0
 355 134 355 136 352 131 c 0
 349 126 341 105 341 101 c 0
 341 96 323 75 317 72 c 0
 314 71 309 67 306 65 c 0
 298 58 268 46 257 45 c 0
 252 44 243 43 238 42 c 0
 223 39 187 38 176 41 c 0
 170 42 163 44 159 44 c 0
 152 44 121 56 121 59 c 0
 121 60 115 63 108 68 c 0
 67 94 35 148 25 207 c 0
 20 234 19 260 21 271 c 0
 22 277 23 287 23 293 c 0
 23 308 29 342 35 361 c 0
 52 416 63 439 99 488 c 0
 109 502 141 536 145 536 c 0
 147 536 170 552 172 553 c 0
 174 554 177 555 179 557 c 0
 185 562 212 571 222 572 c 0
 238 573 265 571 273 563 c 0
 279 557 302 546 302 537 c 0
 302 536 313 523 313 522 c 0
 313 521 314 517 315 513 c 0
 316 509 317 498 318 488 c 0
 319 471 319 470 313 454 c 0
 309 445 306 436 306 434 c 0
547 541 m 0
 528 545 520 545 509 539 c 0
 481 524 457 499 441 467 c 0
 438 461 434 455 433 454 c 0
 430 451 432 418 435 404 c 0
 439 385 434 386 435 358 c 2
 436 331 l 1
 448 342 448 344 485 346 c 0
 509 347 512 349 529 350 c 0
 533 350 539 352 543 353 c 0
 578 364 598 371 608 377 c 0
 621 385 643 406 651 419 c 0
 656 427 661 451 660 459 c 0
 656 477 629 504 598 521 c 0
 577 532 565 537 547 541 c 0
EndSplineSet
Ligature2: "liga" C R
Comment: "char_L5_P40_x9038_y3053_x9427_y3380_Q1I+AD0A.svg"
EndChar

StartChar: O_C_H
Encoding: 1114121 -1 72
Width: 1224
VWidth: -222
Flags: HW
LayerCount: 2
Fore
SplineSet
615 585 m 0
 632 596 660 598 682 590 c 0
 694 585 698 583 712 569 c 0
 727 554 737 537 737 530 c 0
 737 529 740 523 744 516 c 0
 749 505 750 502 750 487 c 0
 750 468 750 466 733 458 c 0
 715 450 713 456 705 464 c 0
 700 469 693 476 691 480 c 0
 688 486 683 484 680 491 c 0
 677 499 667 512 661 517 c 0
 655 521 656 521 650 518 c 0
 620 501 570 417 552 352 c 0
 543 321 537 290 537 246 c 0
 537 203 539 189 551 156 c 0
 560 130 562 128 581 109 c 0
 595 95 599 91 610 86 c 0
 622 81 624 81 648 81 c 0
 677 81 705 86 730 97 c 0
 747 104 763 114 780 115 c 0
 786 115 807 134 813 134 c 2
 818 134 l 1
 819 177 l 2
 820 201 821 236 822 256 c 0
 823 288 823 293 820 299 c 0
 815 309 815 339 819 346 c 0
 822 350 823 355 823 381 c 0
 823 426 818 454 820 503 c 0
 821 540 821 544 825 549 c 0
 830 556 833 558 857 558 c 0
 875 558 877 558 882 553 c 0
 885 550 887 545 887 543 c 0
 887 541 888 538 889 536 c 0
 892 530 897 471 898 414 c 2
 899 362 l 1
 905 361 l 2
 910 360 1086 359 1086 360 c 0
 1086 360 1087 370 1088 381 c 0
 1093 423 1103 495 1106 525 c 0
 1109 563 1114 573 1127 586 c 1
 1147 585 l 2
 1158 584 1167 583 1168 582 c 0
 1169 581 1171 580 1172 580 c 0
 1175 580 1181 573 1184 567 c 0
 1187 561 1182 496 1174 444 c 0
 1160 344 1155 316 1147 243 c 0
 1143 209 1141 140 1143 132 c 0
 1144 128 1146 116 1147 104 c 0
 1148 88 1150 81 1154 72 c 0
 1157 65 1160 60 1161 60 c 0
 1163 61 1171 53 1172 48 c 0
 1176 28 1174 17 1165 13 c 0
 1162 12 1158 9 1157 6 c 0
 1153 -1 1146 -3 1132 -2 c 0
 1109 0 1097 20 1088 34 c 0
 1082 43 1075 65 1071 87 c 0
 1068 102 1068 115 1068 159 c 0
 1068 211 1071 263 1074 277 c 0
 1075 283 1075 284 1072 285 c 0
 1065 287 920 285 913 286 c 2
 899 288 l 1
 898 244 l 2
 897 220 897 181 896 158 c 0
 895 118 894 111 900 90 c 0
 901 85 898 73 893 73 c 0
 892 73 886 68 880 62 c 0
 870 52 868 51 861 51 c 0
 855 51 851 53 843 58 c 0
 824 71 825 72 820 88 c 1
 815 78 l 2
 813 73 809 66 806 62 c 0
 803 58 800 55 800 54 c 0
 800 53 785 42 784 41 c 0
 781 37 748 23 743 23 c 0
 738 23 718 16 714 15 c 0
 707 14 677 6 667 7 c 0
 661 7 653 7 649 6 c 0
 630 3 588 13 565 26 c 0
 552 33 526 53 524 57 c 0
 523 58 519 65 513 71 c 0
 488 100 471 146 464 192 c 0
 462 206 461 225 461 247 c 2
 461 281 l 1
 456 267 l 2
 454 260 450 252 449 250 c 0
 448 249 447 247 447 246 c 0
 447 244 432 214 430 211 c 0
 429 210 423 202 417 193 c 0
 411 184 404 172 399 166 c 0
 383 145 318 84 312 84 c 0
 311 84 309 82 307 80 c 0
 295 67 255 51 235 42 c 0
 213 32 168 26 154 30 c 0
 144 33 117 39 108 44 c 0
 97 50 87 55 79 63 c 0
 76 66 72 69 71 69 c 0
 68 70 48 95 48 98 c 0
 48 99 46 104 43 110 c 0
 17 160 13 248 30 324 c 0
 35 348 42 366 46 380 c 0
 47 384 52 395 55 402 c 0
 79 453 86 466 91 472 c 0
 94 476 96 480 96 481 c 0
 96 483 124 523 124 524 c 0
 125 528 153 556 155 556 c 0
 156 556 162 561 168 566 c 0
 183 578 202 587 214 589 c 0
 223 590 241 590 247 589 c 0
 255 588 262 580 272 564 c 0
 283 547 282 547 288 548 c 0
 297 550 320 549 334 545 c 0
 396 526 445 471 462 400 c 0
 471 364 466 314 466 314 c 0
 469 339 477 360 483 382 c 0
 488 402 494 410 499 426 c 0
 504 441 526 482 540 504 c 0
 548 515 554 525 554 526 c 0
 554 531 600 580 605 580 c 0
 606 580 611 583 615 585 c 0
234 495 m 0
 234 497 224 514 222 514 c 0
 219 514 191 486 181 474 c 0
 176 468 165 451 157 437 c 0
 130 393 118 362 107 314 c 0
 98 271 94 237 96 205 c 0
 97 184 99 179 105 163 c 0
 109 153 113 141 114 138 c 0
 117 130 133 114 142 110 c 0
 148 107 153 106 168 106 c 0
 184 106 189 107 206 112 c 0
 231 120 243 127 266 143 c 0
 290 160 331 201 345 221 c 0
 351 230 358 238 360 240 c 0
 380 263 398 331 388 377 c 0
 386 388 382 399 381 404 c 0
 373 431 346 460 321 471 c 0
 305 478 298 478 279 470 c 0
 273 468 267 465 266 465 c 0
 261 465 251 470 247 474 c 0
 243 478 234 493 234 495 c 0
461 287 m 1
 464 293 465 299 464 307 c 1
 463 301 l 2
 463 296 462 291 461 287 c 1
EndSplineSet
Ligature2: "liga" O C H
Comment: "char_L5_P41_x9424_y3065_x10054_y3388_T0NI.svg"
EndChar

StartChar: E_E
Encoding: 1114122 -1 73
Width: 901
VWidth: -1
Flags: HW
LayerCount: 2
Fore
SplineSet
422 50 m 1
 408 36 409 33 375 33 c 0
 361 33 338 34 326 35 c 0
 292 37 296 33 262 30 c 0
 230 27 200 22 175 15 c 0
 132 4 97 -3 65 3 c 0
 63 4 60 4 58 4 c 0
 51 4 44 14 42 25 c 0
 41 35 36 43 25 55 c 0
 21 60 20 62 20 71 c 0
 19 94 21 112 25 143 c 0
 31 187 32 192 33 210 c 0
 34 242 38 251 42 291 c 0
 49 354 48 330 49 434 c 0
 50 511 51 536 53 540 c 0
 55 545 65 551 71 551 c 0
 73 551 82 554 92 558 c 0
 118 567 136 570 170 571 c 0
 186 571 226 573 258 574 c 0
 323 577 439 580 439 570 c 0
 439 569 442 567 446 565 c 0
 453 562 459 552 457 547 c 0
 455 542 463 536 460 530 c 0
 458 526 458 526 462 528 c 0
 465 530 496 536 498 539 c 0
 501 543 524 553 532 554 c 0
 536 555 546 557 554 559 c 0
 612 574 691 584 781 587 c 0
 807 588 830 588 833 588 c 0
 838 587 844 578 848 578 c 0
 851 578 852 570 854 570 c 0
 855 570 858 555 859 553 c 0
 863 546 861 538 855 531 c 0
 853 528 851 525 851 524 c 0
 851 522 845 517 838 511 c 0
 833 508 800 510 798 510 c 0
 762 512 697 504 662 500 c 0
 635 497 638 497 619 495 c 0
 585 491 574 488 552 478 c 0
 536 470 535 470 536 464 c 0
 539 447 541 423 541 404 c 2
 540 383 l 1
 547 388 547 388 565 385 c 0
 576 383 591 383 617 383 c 0
 666 383 717 378 729 373 c 0
 738 370 742 370 750 363 c 0
 754 359 758 356 759 356 c 0
 761 356 762 352 763 344 c 0
 764 340 762 332 759 323 c 0
 758 321 758 320 758 319 c 0
 758 318 756 316 754 315 c 0
 750 312 744 300 739 299 c 0
 732 297 716 298 686 301 c 0
 639 307 560 312 540 329 c 0
 537 331 537 330 536 319 c 0
 535 312 535 304 535 301 c 0
 536 278 527 213 517 161 c 0
 513 138 505 87 503 82 c 0
 503 81 504 78 505 76 c 0
 507 73 509 74 525 77 c 0
 554 83 561 88 608 94 c 0
 650 100 646 103 695 107 c 0
 723 110 743 113 770 114 c 0
 790 115 826 112 830 109 c 0
 837 103 841 101 845 87 c 0
 851 66 851 65 837 51 c 2
 825 39 l 1
 797 38 l 2
 751 36 707 33 664 24 c 0
 640 19 598 14 572 8 c 0
 531 -1 514 -4 492 -4 c 0
 472 -4 471 -4 463 2 c 0
 452 10 438 9 430 19 c 0
 429 21 427 28 425 36 c 2
 422 50 l 1
127 383 m 1
 132 382 137 381 145 381 c 2
 176 381 l 2
 189 381 206 382 214 383 c 0
 240 386 289 384 292 380 c 0
 293 377 304 375 306 373 c 0
 315 366 318 364 321 363 c 0
 327 361 326 333 324 332 c 0
 323 331 323 327 323 323 c 0
 323 317 321 314 317 309 c 0
 311 302 310 302 296 302 c 0
 288 302 280 304 278 305 c 0
 275 307 260 307 224 307 c 0
 180 307 171 308 151 312 c 0
 138 314 126 315 125 315 c 0
 124 315 122 311 122 306 c 0
 118 252 110 192 103 138 c 2
 100 113 l 1
 105 102 l 2
 108 96 110 88 110 85 c 0
 110 81 110 79 112 80 c 0
 123 83 236 105 253 108 c 0
 275 111 401 111 403 108 c 0
 404 107 407 105 410 105 c 0
 417 104 424 98 424 94 c 0
 424 70 453 253 455 282 c 0
 458 324 465 414 459 452 c 0
 457 462 456 480 456 494 c 0
 456 507 456 519 455 519 c 0
 453 519 443 510 442 507 c 0
 440 502 426 496 418 497 c 0
 374 501 365 502 336 500 c 0
 319 499 303 498 301 498 c 0
 252 498 160 493 148 491 c 0
 139 489 132 488 130 488 c 0
 128 488 127 476 127 435 c 2
 127 383 l 1
EndSplineSet
Ligature2: "liga" E E
Comment: "char_L6_P12_x3143_y3523_x3584_y3834_RUU+AD0A.svg"
EndChar

StartChar: T_T
Encoding: 1114123 -1 74
Width: 908
VWidth: 27
Flags: HW
LayerCount: 2
Fore
SplineSet
817 620 m 0
 830 620 824 622 838 622 c 0
 861 622 859 605 866 589 c 0
 869 581 869 580 866 571 c 0
 862 562 856 554 853 554 c 0
 852 554 851 553 849 551 c 0
 843 545 826 545 815 543 c 0
 800 540 760 538 745 535 c 0
 739 534 728 533 720 533 c 0
 712 533 702 532 698 531 c 0
 683 527 599 517 579 517 c 0
 578 517 578 494 578 465 c 0
 578 415 575 369 570 349 c 0
 569 344 568 335 568 329 c 0
 568 316 560 264 557 237 c 0
 556 223 556 217 550 180 c 0
 548 170 546 159 546 156 c 0
 546 148 535 74 536 74 c 0
 538 72 539 59 540 57 c 0
 542 52 535 37 536 31 c 0
 537 27 537 24 532 20 c 0
 529 17 526 14 526 13 c 0
 526 10 519 4 514 2 c 0
 510 0 477 6 474 6 c 0
 470 6 463 17 461 24 c 0
 460 28 458 33 457 35 c 0
 455 38 458 91 461 104 c 0
 464 119 470 185 473 201 c 0
 478 233 481 271 486 308 c 0
 495 381 501 447 501 488 c 2
 501 513 l 1
 475 513 l 2
 436 512 425 518 387 515 c 0
 340 512 315 506 279 503 c 0
 258 501 247 499 230 496 c 1
 231 446 l 2
 232 387 227 300 224 246 c 0
 222 201 219 221 219 183 c 0
 219 150 218 134 213 107 c 0
 208 83 211 36 190 25 c 0
 181 20 137 27 131 34 c 0
 124 42 123 49 126 60 c 0
 136 98 140 216 146 254 c 0
 150 283 154 390 153 442 c 0
 153 452 153 464 153 468 c 0
 153 474 155 480 156 485 c 1
 144 484 l 2
 118 481 77 481 70 483 c 0
 67 484 39 489 39 491 c 0
 39 492 38 493 36 493 c 0
 35 493 31 496 27 500 c 0
 20 508 20 508 20 526 c 0
 20 543 20 543 25 548 c 0
 31 554 38 555 90 557 c 0
 133 559 149 561 221 573 c 0
 318 589 407 595 422 589 c 0
 427 587 431 587 440 588 c 0
 446 589 461 590 471 590 c 2
 471 590 636 598 653 601 c 0
 701 609 716 610 768 616 c 0
 790 618 812 620 817 620 c 0
EndSplineSet
Ligature2: "liga" T T
Comment: "char_L6_P16_x4373_y3505_x4818_y3831_VFQ+AD0A.svg"
EndChar

StartChar: L_B
Encoding: 1114124 -1 75
Width: 810
VWidth: 78
Flags: HW
LayerCount: 2
Fore
SplineSet
682 574 m 0
 685 574 705 553 708 553 c 0
 712 553 722 533 722 528 c 0
 722 519 729 510 728 499 c 0
 726 488 725 464 722 460 c 0
 721 459 716 451 712 443 c 0
 708 435 699 421 692 413 c 0
 679 398 651 369 642 363 c 0
 633 357 643 358 656 354 c 0
 666 351 677 346 681 344 c 0
 695 337 716 324 718 321 c 0
 719 319 721 318 722 318 c 0
 725 318 740 303 746 293 c 0
 749 288 752 285 753 284 c 0
 754 283 756 280 757 277 c 0
 758 274 761 268 763 263 c 0
 767 254 768 244 770 211 c 0
 771 188 755 139 735 104 c 0
 706 53 698 42 680 22 c 0
 646 -16 633 -23 598 -41 c 0
 581 -50 584 -53 568 -55 c 0
 563 -56 558 -57 558 -58 c 0
 558 -61 498 -59 493 -56 c 0
 491 -55 488 -54 486 -54 c 0
 481 -54 463 -44 459 -43 c 0
 457 -42 449 -36 442 -29 c 0
 429 -16 428 -17 420 -18 c 0
 414 -19 410 -18 405 -16 c 0
 399 -13 387 -1 381 7 c 0
 377 13 371 37 370 54 c 0
 368 78 367 84 365 80 c 0
 361 73 351 69 326 66 c 0
 276 60 289 58 249 48 c 0
 207 38 218 36 168 30 c 0
 143 27 108 31 101 38 c 0
 97 41 91 44 78 51 c 0
 70 55 47 79 47 83 c 0
 47 84 45 90 42 96 c 0
 34 113 24 153 22 171 c 0
 18 208 19 353 24 401 c 0
 25 413 28 512 29 512 c 0
 30 512 31 521 32 535 c 0
 33 550 33 552 39 557 c 0
 45 563 49 563 69 565 c 0
 75 566 81 567 83 567 c 0
 88 568 96 562 98 557 c 0
 99 554 109 474 107 471 c 0
 105 469 106 461 107 443 c 0
 108 423 107 416 105 414 c 0
 100 409 97 307 99 234 c 0
 100 175 100 169 104 152 c 0
 112 121 121 109 142 107 c 0
 161 105 198 112 252 128 c 0
 296 141 305 142 325 143 c 0
 346 144 361 141 365 135 c 0
 367 131 367 301 365 316 c 0
 362 334 358 390 357 414 c 0
 356 441 352 481 349 514 c 0
 347 530 347 532 351 536 c 0
 355 541 366 545 372 545 c 0
 375 545 377 546 379 552 c 0
 383 562 394 573 407 579 c 0
 448 599 450 599 489 604 c 0
 509 606 537 605 580 603 c 0
 592 602 617 596 638 589 c 0
 647 586 655 583 657 583 c 0
 660 583 678 574 682 574 c 0
563 531 m 0
 528 535 487 536 470 533 c 0
 456 530 441 523 441 520 c 0
 441 519 439 517 436 515 c 0
 419 506 424 478 429 457 c 0
 438 412 435 396 439 352 c 0
 443 303 445 266 446 176 c 2
 447 83 l 1
 456 74 468 60 470 57 c 0
 474 50 489 30 498 24 c 0
 504 20 507 20 526 20 c 0
 538 20 550 20 554 22 c 0
 568 27 591 43 608 60 c 0
 637 89 648 104 674 154 c 0
 687 180 694 216 689 233 c 0
 684 251 663 268 634 278 c 0
 613 285 607 291 583 293 c 0
 558 295 506 295 497 292 c 0
 487 289 479 292 474 301 c 0
 472 304 471 306 470 307 c 0
 466 310 460 353 464 353 c 0
 465 353 466 354 467 356 c 0
 468 361 483 369 504 375 c 0
 538 386 572 405 608 435 c 0
 631 454 653 490 648 499 c 0
 641 511 600 526 563 531 c 0
EndSplineSet
Ligature2: "liga" L B
Comment: "char_L6_P21_x5690_y3514_x6085_y3863_TEI+AD0A.svg"
EndChar

StartChar: E_R
Encoding: 1114125 -1 76
Width: 890
VWidth: 876
Flags: HW
LayerCount: 2
Fore
SplineSet
335 624 m 0
 367 627 409 627 418 622 c 0
 423 619 438 617 440 612 c 0
 442 606 449 602 449 595 c 0
 449 584 460 569 449 561 c 0
 447 559 445 558 445 557 c 0
 445 554 435 545 431 544 c 0
 429 543 428 543 428 542 c 0
 428 534 384 536 382 539 c 0
 381 540 378 543 375 545 c 0
 369 549 368 549 342 547 c 0
 290 543 160 514 140 500 c 0
 131 494 124 497 122 482 c 0
 120 468 125 407 124 391 c 0
 123 376 124 375 128 374 c 0
 130 373 144 374 158 375 c 0
 221 379 267 375 277 366 c 0
 280 364 282 362 283 362 c 0
 285 362 294 353 297 347 c 0
 301 340 301 329 298 327 c 0
 297 326 296 323 297 321 c 0
 298 316 293 307 290 307 c 0
 289 307 287 306 285 304 c 0
 276 296 252 290 247 295 c 0
 243 299 217 301 188 299 c 0
 166 297 155 298 141 300 c 0
 119 303 122 305 120 276 c 0
 117 218 111 159 107 138 c 0
 106 132 105 126 106 124 c 0
 106 124 104 99 101 78 c 1
 108 78 l 2
 123 78 194 87 246 95 c 0
 288 102 337 108 345 108 c 0
 348 108 363 108 378 108 c 0
 411 108 413 108 418 91 c 0
 423 73 423 80 424 99 c 0
 426 125 429 152 432 173 c 0
 438 213 455 415 450 444 c 0
 448 459 454 479 454 494 c 0
 454 517 458 526 477 528 c 0
 485 529 489 530 491 533 c 0
 496 539 516 553 532 562 c 0
 551 572 545 572 567 579 c 0
 582 584 593 589 608 589 c 0
 612 589 615 590 615 591 c 0
 615 594 669 591 688 587 c 0
 715 581 743 569 765 556 c 0
 771 552 777 549 779 549 c 0
 789 549 827 512 836 493 c 0
 840 486 844 479 845 478 c 0
 848 476 851 448 850 434 c 0
 849 418 836 392 827 383 c 0
 824 380 821 376 821 375 c 0
 821 373 798 352 789 346 c 0
 784 343 779 340 778 338 c 0
 775 334 726 313 707 308 c 0
 688 303 657 297 645 297 c 2
 637 297 l 1
 665 276 l 2
 718 237 747 214 766 195 c 0
 797 164 817 134 826 104 c 0
 828 96 831 90 832 89 c 0
 836 87 844 31 835 26 c 0
 833 25 832 23 832 21 c 0
 832 20 829 17 826 14 c 0
 820 9 820 9 805 10 c 0
 776 12 773 13 766 20 c 0
 760 26 760 28 760 39 c 0
 760 58 748 97 737 113 c 0
 730 123 701 151 681 167 c 0
 673 174 664 181 662 183 c 0
 657 188 564 258 558 261 c 0
 551 265 529 285 526 290 c 0
 524 293 523 290 522 274 c 0
 520 244 519 243 516 211 c 0
 513 171 508 145 504 102 c 0
 498 47 499 49 492 42 c 0
 486 36 485 36 465 35 c 0
 454 34 442 34 440 35 c 0
 432 37 425 48 424 60 c 2
 423 70 l 1
 419 62 416 56 407 53 c 0
 403 51 398 49 396 47 c 0
 394 45 392 43 391 43 c 0
 390 43 387 42 385 40 c 0
 378 33 313 28 286 23 c 0
 258 18 267 22 240 17 c 0
 213 11 181 6 147 4 c 0
 117 2 129 1 94 -2 c 0
 68 -4 66 -5 54 -1 c 0
 38 5 29 12 29 32 c 0
 29 37 27 42 24 47 c 0
 19 54 19 56 21 73 c 0
 27 127 30 164 32 174 c 0
 36 196 38 244 40 274 c 0
 42 306 44 350 45 420 c 0
 45 454 47 487 48 494 c 0
 52 519 54 527 59 532 c 0
 70 543 109 570 124 576 c 0
 139 583 177 594 200 600 c 0
 242 610 267 617 335 624 c 0
662 522 m 0
 615 530 581 515 553 495 c 0
 546 490 539 486 538 486 c 0
 537 486 533 483 529 480 c 2
 521 474 l 1
 523 460 l 2
 524 452 524 444 525 442 c 0
 526 440 527 419 527 395 c 0
 527 354 527 352 530 355 c 0
 538 362 555 368 567 369 c 0
 624 373 675 376 712 392 c 0
 738 403 739 404 757 422 c 0
 772 437 771 437 770 445 c 0
 768 457 764 465 748 479 c 0
 724 500 689 517 662 522 c 0
EndSplineSet
Ligature2: "liga" E R
Ligature2: "liga" E R
Comment: "char_L6_P6_x1165_y3503_x1601_y3834_RVI+AD0A.svg"
EndChar

StartChar: R_R
Encoding: 1114126 -1 77
Width: 860
VWidth: 26
Flags: HW
LayerCount: 2
Fore
SplineSet
757 554 m 0
 760 554 800 526 800 514 c 0
 800 512 801 510 802 510 c 0
 807 508 809 472 805 457 c 0
 800 438 791 425 784 413 c 0
 770 390 736 364 708 349 c 0
 685 337 695 338 669 328 c 0
 652 322 645 320 632 317 c 0
 627 316 587 302 583 300 c 0
 579 298 579 297 594 286 c 0
 603 280 617 268 626 260 c 0
 635 252 645 244 648 243 c 0
 656 239 701 194 731 160 c 0
 758 129 777 104 803 70 c 0
 821 46 823 44 820 30 c 0
 819 25 820 27 797 11 c 0
 781 0 777 -2 771 -2 c 0
 760 -1 758 1 748 16 c 0
 734 37 735 33 718 55 c 0
 710 65 703 74 702 74 c 0
 699 75 666 115 666 117 c 0
 666 121 587 196 583 196 c 0
 581 196 555 217 554 219 c 0
 554 221 501 261 500 262 c 0
 494 268 486 273 485 271 c 0
 483 269 483 178 485 176 c 0
 486 175 489 137 489 113 c 0
 489 111 490 106 491 104 c 0
 493 99 495 90 495 80 c 0
 495 65 494 62 482 53 c 0
 476 48 473 44 469 44 c 0
 468 44 466 43 464 41 c 0
 459 34 443 42 436 43 c 0
 433 44 430 44 429 45 c 0
 426 47 413 66 413 69 c 0
 413 70 412 71 411 69 c 0
 410 68 411 40 409 40 c 0
 408 40 407 38 407 37 c 0
 407 33 399 27 391 25 c 0
 387 24 376 23 367 22 c 2
 351 21 l 1
 345 27 l 2
 336 35 333 40 331 57 c 0
 328 81 326 89 319 99 c 0
 312 111 289 134 274 144 c 0
 257 156 209 184 176 199 c 0
 159 207 138 217 129 222 c 0
 120 227 113 230 113 230 c 0
 113 230 113 205 114 175 c 0
 116 124 118 102 122 88 c 0
 126 76 126 58 123 52 c 0
 117 40 116 30 103 23 c 0
 96 19 69 20 61 24 c 0
 54 27 45 43 40 59 c 0
 36 71 34 112 36 134 c 0
 37 146 37 158 36 167 c 0
 35 175 34 229 33 286 c 0
 32 383 30 443 28 447 c 0
 27 449 25 474 24 476 c 0
 21 481 19 523 22 528 c 0
 33 549 42 563 46 567 c 0
 49 570 51 571 51 570 c 0
 51 569 54 571 57 574 c 0
 62 579 65 580 74 580 c 0
 88 580 93 586 105 587 c 0
 110 587 117 587 121 588 c 0
 142 593 195 587 218 585 c 0
 231 584 252 580 264 578 c 0
 278 576 323 560 334 553 c 0
 350 543 344 552 357 540 c 0
 363 535 367 532 368 533 c 0
 369 534 376 520 377 520 c 0
 378 520 387 502 388 501 c 0
 391 499 391 495 391 470 c 0
 391 439 391 438 378 416 c 0
 351 370 301 333 233 307 c 0
 208 298 213 298 189 290 c 2
 172 285 l 1
 187 278 l 2
 195 274 208 267 216 263 c 0
 246 249 293 225 307 215 c 0
 310 213 313 210 314 210 c 0
 315 210 323 204 331 198 c 0
 334 196 337 194 338 194 c 0
 341 194 372 160 380 148 c 0
 387 137 403 106 404 100 c 0
 406 91 407 321 406 458 c 2
 405 514 l 1
 412 522 413 526 427 530 c 0
 437 533 441 535 446 541 c 0
 458 556 463 560 479 568 c 0
 506 581 530 586 579 588 c 0
 598 589 616 588 630 587 c 0
 656 584 703 576 710 573 c 0
 713 572 715 571 716 571 c 0
 721 572 754 554 757 554 c 0
185 521 m 0
 134 526 93 523 96 513 c 0
 102 494 107 469 108 455 c 0
 109 443 113 436 111 424 c 0
 109 406 108 348 110 348 c 0
 111 348 117 350 123 352 c 0
 136 357 179 368 191 374 c 0
 196 376 210 382 221 386 c 0
 255 399 278 413 296 432 c 0
 315 452 320 459 320 469 c 0
 320 476 319 478 308 486 c 0
 302 491 295 495 294 495 c 0
 293 495 285 498 276 502 c 0
 257 510 224 517 185 521 c 0
487 354 m 0
 490 354 513 364 517 364 c 0
 523 364 563 376 584 383 c 0
 593 386 603 389 606 389 c 0
 620 391 661 408 679 420 c 0
 706 437 731 465 731 478 c 0
 731 484 727 488 711 495 c 0
 670 513 644 517 586 519 c 0
 552 520 545 519 531 516 c 0
 515 512 493 502 493 498 c 0
 493 497 492 495 491 495 c 0
 483 492 485 442 487 427 c 0
 488 422 487 418 487 405 c 0
 487 397 486 354 487 354 c 0
EndSplineSet
Ligature2: "liga" R R
Comment: "char_L6_P34_x8716_y3522_x9138_y3833_UlI+AD0A.svg"
EndChar

StartChar: L_A
Encoding: 1114127 -1 78
Width: 843
VWidth: 40
Flags: HW
LayerCount: 2
Fore
SplineSet
565 591 m 0
 577 595 604 589 626 578 c 0
 636 573 668 549 668 546 c 0
 668 545 673 540 679 534 c 0
 704 508 731 463 748 419 c 0
 755 401 764 382 771 352 c 0
 777 326 784 299 788 270 c 0
 792 244 800 201 800 178 c 0
 800 173 801 160 802 149 c 0
 804 133 805 83 804 16 c 0
 804 13 802 10 800 8 c 0
 798 7 796 4 796 3 c 0
 796 -6 765 -22 753 -14 c 0
 751 -12 747 -11 746 -11 c 0
 741 -11 734 -3 728 8 c 0
 725 14 723 20 724 21 c 0
 729 29 722 195 716 230 c 2
 713 242 l 1
 677 241 l 2
 638 241 621 239 572 233 c 0
 528 227 503 226 488 227 c 0
 481 228 475 227 475 226 c 0
 473 215 470 185 467 181 c 0
 466 180 466 172 465 165 c 0
 463 145 455 93 452 73 c 0
 451 63 449 53 447 51 c 0
 446 49 444 45 444 42 c 0
 443 36 427 10 420 4 c 0
 417 2 412 -1 408 -2 c 0
 402 -4 400 -3 384 8 c 0
 367 19 367 19 364 29 c 0
 360 40 359 49 362 51 c 0
 364 52 371 88 369 89 c 0
 367 91 325 79 313 73 c 0
 285 60 218 40 188 34 c 0
 162 29 110 31 94 43 c 0
 86 49 72 54 66 62 c 0
 62 67 51 75 50 81 c 0
 50 83 48 87 45 91 c 0
 34 108 22 150 22 174 c 0
 22 181 22 188 21 189 c 0
 19 192 20 245 22 298 c 0
 24 346 29 406 34 441 c 0
 44 514 48 535 53 541 c 0
 54 543 59 546 64 548 c 2
 72 553 l 1
 91 550 l 2
 111 547 114 545 120 534 c 0
 125 524 120 510 120 496 c 0
 120 470 114 439 111 412 c 0
 109 391 91 234 105 149 c 0
 107 136 116 119 126 113 c 0
 137 105 158 106 189 114 c 0
 220 122 286 143 292 147 c 0
 298 151 358 173 379 162 c 2
 384 159 l 1
 393 213 l 2
 403 271 409 291 418 338 c 0
 423 364 436 409 439 415 c 0
 440 417 441 420 441 421 c 0
 441 422 442 426 444 429 c 0
 451 442 456 460 463 475 c 0
 473 497 478 513 491 533 c 0
 497 542 502 550 502 551 c 0
 502 552 505 556 510 560 c 0
 517 567 527 580 537 582 c 0
 544 583 547 589 555 589 c 0
 558 589 562 590 565 591 c 0
599 503 m 0
 584 513 581 514 571 509 c 0
 565 506 561 500 543 464 c 0
 522 423 517 405 498 337 c 0
 493 318 491 303 494 305 c 0
 496 306 509 307 524 308 c 0
 552 309 600 315 626 316 c 0
 634 316 654 317 670 318 c 2
 699 320 l 1
 696 338 692 347 678 381 c 0
 675 389 671 400 670 405 c 0
 663 432 623 487 599 503 c 0
EndSplineSet
Ligature2: "liga" L A
Comment: "char_L6_P8_x2001_y3521_x2413_y3841_TEE+AD0A.svg"
EndChar

StartChar: L_L
Encoding: 1114128 -1 79
Width: 772
VWidth: 43
Flags: HW
LayerCount: 2
Fore
SplineSet
99 -2 m 0
 96 -2 82 7 79 7 c 0
 77 7 50 35 48 40 c 0
 45 47 30 79 30 87 c 0
 30 89 29 92 28 94 c 0
 27 96 25 105 23 115 c 0
 21 129 20 143 20 179 c 0
 21 257 22 301 27 351 c 0
 29 378 31 407 30 443 c 0
 30 460 31 469 29 484 c 0
 26 503 27 515 30 523 c 0
 35 534 37 535 56 540 c 0
 90 549 92 547 103 504 c 0
 110 477 111 464 111 425 c 0
 111 391 111 379 109 376 c 0
 101 362 101 255 98 222 c 0
 96 193 99 136 104 113 c 0
 113 73 119 66 148 68 c 0
 172 69 243 87 261 96 c 0
 275 103 312 112 331 113 c 0
 336 113 342 112 345 111 c 0
 349 109 350 110 349 112 c 0
 347 117 340 142 340 147 c 0
 335 206 342 359 349 401 c 0
 350 407 352 420 353 431 c 0
 357 472 360 489 361 491 c 0
 362 492 363 499 363 508 c 0
 364 522 365 525 370 531 c 0
 376 538 375 537 391 538 c 0
 410 539 426 536 428 517 c 0
 430 499 429 416 427 405 c 0
 422 380 421 324 418 294 c 0
 414 253 414 177 418 157 c 0
 425 123 432 111 449 101 c 0
 461 94 498 94 517 97 c 0
 551 102 592 107 623 115 c 0
 640 119 670 123 692 125 c 0
 708 126 708 126 717 121 c 0
 726 115 726 115 730 97 c 0
 737 66 731 58 700 53 c 0
 683 50 660 43 643 41 c 0
 612 36 544 24 517 20 c 0
 476 14 437 20 410 35 c 0
 396 44 390 45 377 59 c 0
 368 69 366 70 366 66 c 0
 366 57 355 43 348 43 c 0
 343 43 298 29 295 27 c 0
 291 24 262 15 254 14 c 0
 250 14 244 12 241 10 c 0
 231 5 205 -2 198 -2 c 0
 194 -2 187 -3 182 -5 c 0
 169 -10 116 -10 108 -5 c 0
 105 -3 101 -2 99 -2 c 0
EndSplineSet
Ligature2: "liga" L L
Comment: "char_L7_P10_x2191_y3991_x2569_y4284_TEw+AD0A.svg"
EndChar

StartChar: O_N
Encoding: 1114129 -1 80
Width: 855
VWidth: 42
Flags: HW
LayerCount: 2
Fore
SplineSet
497 58 m 0
 497 51 491 47 491 42 c 0
 491 41 489 38 487 36 c 0
 484 33 481 32 461 32 c 0
 449 32 438 32 438 33 c 0
 438 34 436 35 434 36 c 0
 432 36 429 39 427 42 c 0
 424 47 423 53 423 112 c 0
 423 171 420 300 418 302 c 0
 418 302 417 300 417 297 c 0
 417 272 403 243 396 224 c 0
 380 182 359 149 333 123 c 0
 329 119 326 115 326 114 c 0
 326 112 285 75 282 74 c 0
 280 73 268 64 261 59 c 0
 255 54 224 39 213 36 c 0
 180 26 176 25 153 25 c 0
 135 25 128 27 116 31 c 0
 99 36 102 39 90 45 c 0
 86 47 76 54 69 62 c 0
 49 82 34 115 25 153 c 0
 22 168 21 171 20 225 c 0
 19 265 20 277 23 296 c 0
 25 308 26 319 27 320 c 0
 28 321 29 324 29 327 c 0
 29 338 46 408 50 413 c 0
 51 414 55 424 59 434 c 0
 68 457 82 486 92 503 c 0
 112 538 142 566 158 568 c 0
 167 569 173 574 182 571 c 0
 186 570 190 571 190 570 c 0
 190 569 195 566 201 563 c 0
 209 559 213 555 217 549 c 0
 220 544 224 541 226 541 c 0
 230 541 267 526 281 519 c 0
 293 513 310 500 331 483 c 0
 343 473 377 438 377 436 c 0
 377 435 381 428 385 421 c 0
 400 397 410 370 412 352 c 0
 415 323 416 340 416 425 c 0
 416 553 417 558 430 584 c 0
 432 589 446 596 456 597 c 0
 469 599 475 597 483 590 c 0
 486 587 490 584 491 584 c 0
 494 584 505 559 506 556 c 0
 507 553 538 482 551 454 c 0
 559 438 602 362 608 347 c 0
 617 327 668 243 689 216 c 0
 702 200 723 168 735 154 c 1
 734 185 l 2
 733 202 732 247 730 284 c 0
 725 381 725 479 730 523 c 0
 734 561 737 572 741 579 c 0
 746 587 756 597 762 599 c 0
 768 602 770 602 791 592 c 0
 808 584 811 581 814 576 c 0
 817 570 817 568 814 560 c 0
 812 555 810 540 809 525 c 0
 800 409 805 400 808 315 c 0
 809 282 812 211 814 161 c 0
 816 111 816 70 812 62 c 0
 810 59 809 56 810 56 c 0
 812 56 805 45 801 43 c 0
 796 40 792 34 786 32 c 0
 781 30 764 30 757 32 c 0
 755 33 752 33 750 33 c 0
 743 34 734 44 728 49 c 0
 723 52 720 55 720 56 c 0
 720 57 712 66 702 76 c 0
 685 94 674 107 633 164 c 0
 592 220 587 233 560 278 c 0
 544 304 532 326 506 376 c 0
 500 388 493 397 493 397 c 0
 492 397 498 259 499 248 c 0
 502 206 501 70 498 67 c 0
 497 66 497 62 497 58 c 0
194 458 m 0
 191 471 192 469 175 470 c 2
 161 471 l 1
 154 460 148 450 137 426 c 0
 118 386 115 372 102 295 c 0
 101 291 100 287 99 286 c 0
 98 284 97 265 97 233 c 2
 97 182 l 1
 104 159 l 2
 108 146 113 133 115 130 c 0
 132 106 138 102 159 102 c 0
 170 102 176 103 188 107 c 0
 211 115 223 125 268 165 c 0
 293 187 314 224 326 259 c 0
 336 288 345 295 335 340 c 0
 328 374 320 388 292 415 c 0
 271 435 264 442 247 451 c 0
 236 457 234 457 233 454 c 0
 232 449 210 443 202 446 c 0
 197 448 196 450 194 458 c 0
EndSplineSet
Ligature2: "liga" O N
Comment: "char_L7_P22_x4721_y3961_x5142_y4266_T04+AD0A.svg"
EndChar

StartChar: C_A
Encoding: 1114130 -1 81
Width: 790
VWidth: 102
Flags: HW
LayerCount: 2
Fore
SplineSet
167 -30 m 0
 147 -30 103 -2 103 -2 c 2
 103 -1 101 2 98 3 c 0
 87 9 66 35 54 59 c 0
 48 71 43 84 43 86 c 0
 43 88 42 89 41 90 c 0
 38 92 28 129 25 149 c 0
 25 151 24 153 23 155 c 0
 19 165 19 234 23 289 c 0
 25 322 41 380 56 413 c 0
 74 453 87 480 118 525 c 0
 123 531 138 548 151 561 c 0
 170 579 178 587 192 595 c 0
 213 607 211 606 233 612 c 0
 250 617 284 617 289 613 c 0
 291 611 294 610 296 610 c 0
 301 610 331 594 333 591 c 0
 334 589 340 584 345 580 c 0
 359 569 372 549 384 520 c 0
 389 506 384 500 373 492 c 0
 357 481 354 480 342 492 c 0
 306 527 300 532 283 540 c 0
 269 546 259 546 243 539 c 0
 209 524 172 481 143 425 c 0
 104 350 74 201 116 106 c 0
 129 77 153 53 177 46 c 0
 189 43 191 43 206 45 c 0
 228 49 258 59 276 70 c 0
 291 79 314 91 317 91 c 0
 318 91 324 95 329 101 c 0
 338 111 340 112 347 111 c 0
 354 110 355 111 356 115 c 0
 357 117 357 120 356 121 c 0
 356 122 357 136 359 152 c 0
 364 193 366 205 367 220 c 0
 369 246 374 281 376 291 c 0
 382 313 384 347 390 367 c 0
 398 400 407 440 421 472 c 0
 431 495 451 527 467 539 c 0
 472 543 477 549 483 551 c 0
 485 552 487 552 487 553 c 0
 487 559 535 562 548 557 c 0
 552 555 555 554 555 555 c 0
 555 558 577 540 581 540 c 0
 585 540 617 507 628 492 c 0
 638 478 645 462 654 450 c 0
 660 442 672 417 676 403 c 0
 691 352 702 340 718 280 c 0
 725 253 736 207 738 190 c 0
 739 182 741 170 743 163 c 0
 752 121 754 40 746 31 c 0
 744 29 742 27 742 26 c 0
 742 24 734 17 734 14 c 0
 734 5 688 6 682 14 c 0
 679 18 672 33 672 35 c 0
 672 37 671 39 669 40 c 0
 665 43 666 59 671 64 c 0
 674 67 674 71 673 85 c 0
 672 102 667 145 661 184 c 0
 654 229 657 225 633 225 c 0
 622 225 602 226 590 227 c 0
 566 229 541 228 476 222 c 2
 443 218 l 1
 444 205 l 2
 444 190 435 141 435 128 c 0
 433 98 426 65 413 33 c 0
 405 13 394 3 383 5 c 0
 359 10 347 14 346 17 c 0
 343 25 341 25 324 13 c 0
 300 -5 246 -30 232 -30 c 0
 227 -30 183 -34 179 -32 c 0
 177 -31 171 -30 167 -30 c 0
632 300 m 1
 627 308 615 337 615 345 c 0
 615 350 597 392 587 413 c 0
 574 438 565 452 547 468 c 0
 535 479 531 482 526 482 c 0
 508 482 489 446 474 387 c 0
 467 356 457 306 457 300 c 0
 457 297 458 297 461 298 c 0
 476 301 501 300 520 302 c 0
 540 304 599 304 622 301 c 2
 632 300 l 1
EndSplineSet
Ligature2: "liga" C A
Comment: "char_L7_P37_x8007_y3953_x8395_y4297_Q0E+AD0A.svg"
EndChar

StartChar: P_S
Encoding: 1114131 -1 82
Width: 859
VWidth: 45
Flags: HW
LayerCount: 2
Fore
SplineSet
123 42 m 1
 112 33 111 30 79 30 c 2
 59 30 l 1
 55 35 50 41 46 46 c 1
 47 119 l 2
 47 159 48 204 49 219 c 0
 52 257 52 286 48 290 c 0
 44 294 47 321 50 326 c 0
 54 332 56 363 55 408 c 2
 54 446 l 1
 44 449 l 2
 31 452 26 457 23 470 c 0
 19 489 19 493 24 511 c 0
 29 531 32 535 62 562 c 0
 69 569 99 586 113 591 c 0
 146 604 202 611 244 604 c 0
 262 601 291 591 313 580 c 0
 325 574 335 570 336 570 c 0
 338 570 347 563 363 551 c 0
 369 547 375 543 376 543 c 0
 378 543 410 508 417 498 c 0
 426 485 431 474 431 470 c 0
 431 468 433 472 436 479 c 0
 439 486 443 493 445 496 c 0
 447 499 448 502 448 503 c 0
 448 505 463 522 463 524 c 0
 463 526 496 553 498 553 c 0
 499 553 503 554 507 557 c 0
 527 570 561 586 573 588 c 0
 590 591 633 604 662 605 c 0
 688 606 719 600 735 591 c 0
 742 587 757 575 757 572 c 0
 757 566 759 556 758 548 c 0
 758 546 753 539 748 533 c 0
 735 518 727 518 705 523 c 0
 673 530 671 530 646 526 c 0
 621 522 604 516 584 510 c 0
 568 506 538 488 526 476 c 0
 513 462 506 446 504 423 c 0
 502 399 499 405 503 380 c 0
 506 364 507 360 511 357 c 0
 513 355 517 354 518 354 c 0
 526 354 543 359 563 368 c 0
 576 374 587 378 588 378 c 0
 592 378 619 392 624 393 c 0
 628 394 633 395 635 397 c 0
 642 401 673 401 682 396 c 0
 686 394 690 392 691 392 c 0
 694 392 720 379 736 370 c 0
 756 358 768 346 782 331 c 0
 787 326 802 296 802 291 c 0
 802 290 803 287 805 284 c 0
 807 279 811 262 817 236 c 0
 819 225 820 192 818 177 c 0
 815 157 806 127 794 103 c 0
 789 94 785 85 785 84 c 0
 785 80 754 50 747 47 c 0
 743 45 736 41 731 38 c 0
 708 24 664 6 647 3 c 0
 635 1 637 -2 617 -3 c 0
 561 -7 522 20 496 47 c 0
 478 65 476 69 464 92 c 2
 452 116 l 1
 451 138 l 2
 450 159 450 161 455 170 c 0
 461 182 467 184 487 186 c 0
 500 187 502 187 504 184 c 0
 506 182 507 180 507 178 c 0
 507 176 508 174 509 174 c 0
 510 174 511 172 511 168 c 0
 511 161 516 159 516 154 c 0
 516 149 528 127 541 110 c 0
 560 84 578 75 610 75 c 0
 629 75 629 75 653 85 c 0
 699 104 714 115 725 137 c 0
 731 150 741 180 743 191 c 0
 746 213 732 273 719 287 c 0
 709 298 675 319 664 321 c 0
 655 323 625 314 610 306 c 0
 594 297 562 284 557 284 c 0
 555 284 552 283 552 282 c 0
 552 281 550 280 547 280 c 0
 544 280 538 279 533 277 c 0
 525 274 523 274 511 277 c 0
 486 282 477 283 458 301 c 0
 438 320 429 342 423 375 c 1
 417 363 l 2
 413 356 407 346 402 340 c 0
 397 334 393 329 393 328 c 0
 393 326 361 296 353 291 c 0
 329 275 314 266 298 259 c 0
 265 243 186 234 143 245 c 0
 136 247 130 248 129 247 c 0
 126 244 122 123 123 68 c 2
 123 42 l 1
241 530 m 0
 217 537 161 536 140 527 c 2
 129 523 l 1
 130 513 l 2
 130 507 131 462 131 414 c 2
 132 326 l 1
 143 323 l 2
 152 320 161 319 190 318 c 0
 222 317 228 318 243 322 c 0
 268 328 302 346 321 364 c 0
 331 374 350 398 350 401 c 0
 350 402 352 408 355 414 c 0
 361 430 361 440 354 452 c 0
 347 464 315 495 300 504 c 0
 286 513 258 525 241 530 c 0
EndSplineSet
Ligature2: "liga" P S
Comment: "char_L7_P39_x8642_y3958_x9066_y4281_UFM+AD0A.svg"
EndChar

StartChar: T_O
Encoding: 1114132 -1 83
Width: 750
VWidth: 97
Flags: HW
LayerCount: 2
Fore
SplineSet
219 566 m 0
 265 574 333 585 390 581 c 0
 412 579 416 576 423 564 c 0
 428 556 429 555 427 541 c 2
 425 526 l 1
 437 526 450 527 462 527 c 1
 466 523 469 518 473 514 c 1
 491 514 l 2
 519 515 540 510 568 497 c 0
 581 491 594 485 595 484 c 0
 602 478 615 469 616 469 c 0
 618 469 655 432 660 425 c 0
 662 421 667 413 672 406 c 0
 700 363 710 331 710 285 c 0
 710 274 709 256 707 246 c 0
 703 225 692 186 687 181 c 0
 685 179 682 173 680 168 c 0
 671 147 637 97 619 78 c 0
 609 67 587 47 579 42 c 0
 541 16 522 6 501 1 c 0
 480 -5 451 -10 446 -9 c 0
 441 -8 409 -6 405 -4 c 0
 401 -2 372 11 369 14 c 0
 326 52 307 97 297 167 c 0
 293 194 297 281 303 310 c 0
 304 315 305 325 307 332 c 0
 321 399 347 457 378 493 c 0
 384 500 389 506 390 507 c 0
 394 510 316 503 280 498 c 0
 264 496 247 494 241 493 c 0
 235 492 230 491 230 491 c 0
 230 491 228 430 228 356 c 0
 227 232 227 199 222 111 c 0
 217 27 217 23 211 18 c 0
 206 13 205 13 187 14 c 0
 156 16 149 19 143 31 c 0
 141 35 140 40 141 55 c 0
 143 85 148 197 150 240 c 0
 152 271 152 427 151 461 c 0
 150 473 147 475 138 470 c 0
 131 466 122 466 116 462 c 0
 112 460 102 457 90 455 c 0
 85 454 76 448 72 443 c 0
 71 441 68 441 65 441 c 0
 55 441 47 446 35 460 c 0
 21 477 19 480 20 488 c 0
 21 498 51 520 59 526 c 0
 71 534 97 542 105 541 c 0
 108 540 116 542 122 544 c 0
 141 550 191 562 219 566 c 0
451 429 m 0
 445 429 433 432 430 436 c 0
 427 440 408 404 399 376 c 0
 388 345 387 345 381 307 c 0
 370 237 370 199 381 145 c 0
 387 117 389 112 396 100 c 0
 407 81 412 77 427 72 c 0
 443 67 462 68 481 74 c 0
 502 81 541 108 564 131 c 0
 587 154 609 195 622 233 c 0
 633 266 636 293 625 326 c 0
 610 370 584 403 546 424 c 0
 537 429 513 437 508 437 c 0
 506 437 509 407 506 404 c 0
 505 403 498 400 491 398 c 0
 479 395 478 395 472 398 c 0
 463 402 464 410 460 420 c 0
 457 428 456 429 451 429 c 0
EndSplineSet
Ligature2: "liga" T O
Comment: "char_L7_P40_x9024_y3971_x9390_y4284_VE8+AD0A.svg"
EndChar

StartChar: plus
Encoding: 43 43 84
Width: 503
VWidth: 611
Flags: HW
LayerCount: 2
Fore
SplineSet
281 71 m 0
 281 69 267 62 267 60 c 0
 267 59 259 56 256 56 c 0
 255 56 254 56 253 55 c 0
 248 51 237 54 229 62 c 0
 218 73 215 68 208 82 c 0
 204 90 204 92 206 98 c 0
 207 102 209 132 210 175 c 2
 211 246 l 1
 176 245 l 2
 122 243 105 233 52 231 c 0
 39 231 35 234 29 246 c 0
 23 258 17 269 24 283 c 0
 30 295 38 297 49 303 c 0
 53 305 64 308 72 310 c 0
 81 312 87 313 88 314 c 0
 91 318 141 324 182 324 c 0
 199 324 213 324 214 325 c 0
 216 327 214 412 212 427 c 0
 210 441 210 442 215 454 c 0
 223 473 224 474 239 477 c 0
 260 481 275 480 279 476 c 0
 284 471 290 445 293 421 c 0
 294 410 295 383 295 361 c 2
 296 320 l 1
 314 317 357 314 405 312 c 0
 449 310 448 311 453 306 c 0
 460 299 460 283 462 270 c 0
 464 260 463 256 461 251 c 0
 454 235 439 230 394 232 c 0
 360 233 305 237 298 239 c 0
 294 240 293 238 292 224 c 0
 291 216 290 188 290 161 c 0
 289 106 288 79 284 75 c 0
 283 73 281 72 281 71 c 0
EndSplineSet
Comment: "char_L8_P0_x0_y4470_x226_y4687_Kw+AD0APQAA.svg"
EndChar

StartChar: brokenbar
Encoding: 166 166 85
Width: 150
VWidth: 937
Flags: HW
LayerCount: 2
Fore
SplineSet
28 631 m 0
 28 646 29 652 30 662 c 0
 30 664 33 669 37 673 c 0
 43 680 44 680 62 682 c 0
 72 683 82 683 84 683 c 0
 91 683 101 669 101 661 c 0
 101 657 102 652 104 650 c 0
 106 647 107 635 109 591 c 0
 111 537 111 534 106 478 c 0
 101 427 101 416 102 377 c 0
 105 286 105 286 99 275 c 0
 93 262 85 260 71 259 c 1
 81 256 97 244 102 234 c 0
 106 226 108 191 108 105 c 0
 108 57 109 0 110 -22 c 0
 111 -55 111 -69 108 -100 c 0
 105 -132 103 -138 100 -152 c 0
 99 -156 96 -159 90 -162 c 0
 81 -166 81 -166 63 -163 c 0
 25 -156 24 -155 28 -95 c 0
 30 -54 30 -39 26 23 c 0
 24 56 27 188 31 213 c 0
 33 225 35 236 36 237 c 0
 37 238 38 240 38 242 c 0
 38 251 50 260 60 258 c 0
 66 257 66 257 59 261 c 0
 55 263 50 265 48 265 c 0
 44 265 30 271 30 273 c 0
 30 274 28 276 26 279 c 0
 22 283 23 284 24 300 c 0
 25 312 24 320 22 325 c 0
 19 334 19 439 22 445 c 0
 23 447 25 461 26 476 c 0
 28 499 29 534 28 631 c 0
EndSplineSet
Comment: "char_L8_P10_x2976_y4366_x3023_y4798_wqY+AD0A.svg"
EndChar

StartChar: ampersand
Encoding: 38 38 86
Width: 506
VWidth: 749
Flags: HW
LayerCount: 2
Fore
SplineSet
151 571 m 0
 176 572 172 570 188 568 c 0
 234 561 302 512 307 451 c 0
 308 430 307 411 304 406 c 0
 304 405 303 402 302 399 c 0
 299 379 274 342 262 326 c 0
 259 323 253 316 248 310 c 2
 238 300 l 1
 250 290 l 2
 269 275 292 255 312 238 c 2
 330 223 l 1
 333 231 l 2
 338 242 337 247 345 256 c 0
 349 260 354 265 356 268 c 0
 361 274 365 275 384 269 c 2
 398 265 l 1
 401 255 l 2
 406 233 400 190 392 173 c 0
 390 168 390 167 401 157 c 0
 413 146 423 139 433 129 c 0
 436 126 438 124 439 124 c 0
 442 124 460 96 462 94 c 0
 467 88 468 77 464 69 c 0
 461 63 423 39 416 39 c 0
 406 39 399 43 389 57 c 0
 384 64 372 76 365 82 c 2
 352 93 l 1
 314 40 268 4 222 -8 c 0
 213 -10 205 -13 204 -14 c 0
 202 -16 155 -16 155 -14 c 0
 155 -13 149 -11 142 -9 c 0
 126 -5 126 -5 101 10 c 0
 61 33 41 60 30 104 c 0
 14 167 17 213 37 251 c 0
 38 253 39 255 39 256 c 0
 39 261 66 291 76 296 c 0
 79 298 86 302 92 306 c 0
 103 313 103 314 94 324 c 0
 87 331 68 361 63 372 c 0
 47 408 42 436 45 468 c 0
 48 495 49 502 57 516 c 0
 64 529 84 554 87 554 c 0
 88 554 92 555 96 558 c 0
 106 565 125 569 151 571 c 0
170 492 m 0
 164 493 158 494 157 494 c 0
 154 494 146 492 138 491 c 0
 123 489 115 464 120 436 c 0
 125 410 155 362 171 355 c 0
 177 352 177 353 188 363 c 0
 200 375 214 392 222 408 c 0
 227 417 227 421 227 432 c 0
 227 451 224 457 210 470 c 0
 196 484 186 489 170 492 c 0
247 187 m 0
 228 201 205 225 184 242 c 2
 164 258 l 1
 154 252 l 2
 110 228 93 209 106 138 c 0
 111 112 115 100 122 93 c 0
 130 84 153 72 167 68 c 0
 179 65 180 65 195 68 c 0
 220 73 231 80 257 106 c 0
 269 118 283 132 286 137 c 2
 292 146 l 1
 274 163 l 2
 265 172 253 183 247 187 c 0
EndSplineSet
Comment: "char_L8_P11_x3201_y4423_x3428_y4722_Jg+AD0APQAA.svg"
EndChar

StartChar: asciicircum
Encoding: 94 94 87
Width: 423
VWidth: 721
Flags: HW
LayerCount: 2
Fore
SplineSet
127 389 m 0
 127 386 113 370 113 367 c 0
 113 363 80 332 72 329 c 0
 57 323 55 325 37 343 c 0
 21 359 20 359 20 369 c 0
 20 376 21 379 23 381 c 0
 25 382 26 385 26 387 c 0
 26 392 35 399 37 404 c 0
 39 407 43 414 47 418 c 0
 56 427 58 429 81 481 c 0
 109 543 118 562 133 582 c 0
 145 597 140 603 165 609 c 0
 179 613 201 610 201 604 c 0
 201 603 203 602 204 602 c 0
 207 602 231 577 231 574 c 0
 231 569 248 551 309 488 c 0
 355 440 360 435 367 423 c 0
 376 407 381 395 380 392 c 0
 380 391 381 386 382 380 c 0
 386 364 382 360 356 350 c 0
 343 345 334 342 331 343 c 0
 321 346 313 353 305 368 c 0
 299 379 292 390 277 405 c 0
 254 429 249 434 244 441 c 0
 242 444 239 447 238 447 c 0
 237 447 229 454 222 462 c 0
 215 470 202 484 194 492 c 2
 180 508 l 1
 176 497 l 2
 174 491 166 476 159 461 c 0
 152 447 146 434 146 433 c 0
 146 431 128 398 127 389 c 0
EndSplineSet
Comment: "char_L8_P12_x3470_y4403_x3655_y4548_Xg+AD0APQAA.svg"
EndChar

StartChar: underscore
Encoding: 95 95 88
Width: 511
VWidth: 168
Flags: HW
LayerCount: 2
Fore
SplineSet
429 31 m 0
 436 34 440 34 448 30 c 0
 454 27 456 24 463 7 c 2
 471 -13 l 1
 465 -26 l 2
 459 -39 453 -44 446 -44 c 0
 445 -44 440 -47 436 -49 c 0
 429 -53 424 -52 372 -53 c 0
 341 -53 316 -54 315 -55 c 0
 310 -58 165 -60 97 -58 c 0
 44 -57 35 -55 25 -41 c 0
 19 -33 19 -31 22 -5 c 0
 26 25 28 25 105 23 c 0
 219 19 257 25 352 27 c 0
 392 28 426 30 429 31 c 0
EndSplineSet
Comment: "char_L8_P13_x3721_y4697_x3946_y4744_Xw+AD0APQAA.svg"
EndChar

StartChar: emdash
Encoding: 8212 8212 89
Width: 786
VWidth: 510
Flags: HW
LayerCount: 2
Fore
SplineSet
675 282 m 1
 678 286 682 290 689 291 c 0
 708 293 708 295 727 280 c 0
 733 275 738 271 739 271 c 0
 740 271 742 268 744 264 c 0
 747 258 747 256 744 241 c 0
 740 218 739 216 728 209 c 2
 719 203 l 1
 641 202 l 2
 549 201 442 198 414 195 c 0
 402 194 370 194 335 195 c 0
 272 196 215 196 116 195 c 0
 63 194 55 195 50 198 c 0
 42 202 28 204 23 211 c 0
 19 216 20 218 21 232 c 0
 23 260 28 273 38 273 c 0
 40 273 43 273 44 274 c 0
 45 275 126 276 223 276 c 0
 323 276 431 278 471 279 c 0
 510 280 571 282 608 282 c 2
 675 282 l 1
EndSplineSet
Comment: "char_L8_P14_x4012_y4565_x4378_y4615_4oCU.svg"
EndChar

StartChar: endash
Encoding: 8211 8211 90
Width: 513
VWidth: 435
Flags: HW
LayerCount: 2
Fore
SplineSet
400 299 m 0
 424 300 446 300 449 300 c 0
 453 300 458 299 461 296 c 0
 465 292 466 288 469 270 c 0
 471 259 473 247 474 244 c 0
 476 233 462 225 450 223 c 0
 418 217 369 214 360 217 c 0
 355 219 344 218 314 216 c 0
 236 210 119 203 65 208 c 0
 51 209 44 211 37 215 c 0
 27 221 25 224 21 246 c 0
 19 257 20 259 23 265 c 0
 29 275 36 278 64 284 c 0
 87 289 93 289 140 289 c 0
 168 289 205 290 221 291 c 0
 252 293 329 297 400 299 c 0
EndSplineSet
Comment: "char_L8_P15_x4497_y4561_x4723_y4609_4oCT.svg"
EndChar

StartChar: uni2010
Encoding: 8208 8208 91
Width: 415
VWidth: 440
Flags: HW
LayerCount: 2
Fore
SplineSet
309 331 m 0
 346 335 353 335 361 331 c 0
 371 326 373 316 375 294 c 0
 377 269 373 263 351 257 c 0
 328 251 291 248 205 244 c 0
 165 242 82 235 52 239 c 0
 28 242 23 249 21 276 c 0
 20 292 20 295 24 301 c 0
 28 308 28 309 41 310 c 0
 68 312 79 317 116 319 c 0
 154 321 180 325 213 325 c 0
 230 325 260 326 309 331 c 0
EndSplineSet
Comment: "char_L8_P16_x4812_y4544_x4991_y4593_4oCQ.svg"
EndChar

StartChar: parenleft
Encoding: 40 40 92
Width: 288
VWidth: 868
Flags: HW
LayerCount: 2
Fore
SplineSet
232 -79 m 0
 232 -87 213 -102 199 -102 c 0
 193 -102 189 -101 177 -91 c 0
 155 -73 131 -48 116 -27 c 0
 102 -7 75 42 65 66 c 0
 55 91 48 103 39 137 c 0
 26 184 19 202 20 274 c 0
 21 310 22 332 24 343 c 0
 28 365 41 415 43 417 c 0
 44 418 45 420 45 422 c 0
 45 424 47 429 49 433 c 0
 51 438 56 449 60 459 c 0
 75 496 113 562 126 574 c 0
 128 576 130 580 130 581 c 0
 130 584 148 608 158 618 c 0
 161 622 173 630 183 635 c 0
 214 651 221 648 238 617 c 2
 248 597 l 1
 245 588 l 2
 240 577 233 576 228 567 c 0
 226 564 222 560 218 558 c 0
 205 552 168 500 147 457 c 0
 130 422 127 417 120 395 c 0
 92 302 93 229 121 148 c 0
 126 133 132 116 135 108 c 0
 145 78 164 46 179 23 c 0
 188 9 217 -21 235 -36 c 0
 245 -44 245 -59 238 -69 c 0
 235 -73 232 -77 232 -79 c 0
EndSplineSet
Comment: "char_L8_P17_x5108_y4386_x5224_y4766_KA+AD0APQAA.svg"
EndChar

StartChar: parenright
Encoding: 41 41 93
Width: 279
VWidth: 861
Flags: HW
LayerCount: 2
Fore
SplineSet
40 637 m 0
 43 639 48 640 52 640 c 0
 60 640 97 629 101 625 c 0
 103 623 105 623 106 623 c 0
 107 623 109 619 112 614 c 0
 115 609 123 599 129 591 c 0
 153 562 185 511 193 488 c 0
 201 468 211 443 218 415 c 0
 227 381 231 374 236 342 c 0
 242 306 239 203 231 181 c 0
 230 177 229 173 230 171 c 0
 232 167 217 103 213 99 c 0
 212 98 212 96 212 94 c 0
 212 90 193 48 185 33 c 0
 170 7 144 -29 112 -66 c 0
 93 -88 107 -89 60 -99 c 0
 50 -101 46 -101 38 -94 c 0
 27 -85 20 -74 20 -68 c 0
 20 -61 25 -48 27 -40 c 0
 32 -20 47 -22 58 -6 c 0
 62 0 72 11 79 20 c 0
 120 68 138 111 149 178 c 0
 155 220 162 231 159 280 c 0
 156 328 153 355 150 362 c 0
 145 371 139 401 136 412 c 0
 131 428 114 468 104 485 c 0
 99 493 96 501 96 502 c 0
 96 507 53 558 37 573 c 0
 32 578 26 585 24 589 c 0
 21 595 22 597 26 611 c 0
 32 630 33 633 40 637 c 0
EndSplineSet
Comment: "char_L8_P18_x5402_y4388_x5514_y4765_KQ+AD0APQAA.svg"
EndChar

StartChar: bracketleft
Encoding: 91 91 94
Width: 326
VWidth: 855
Flags: HW
LayerCount: 2
Fore
SplineSet
22 601 m 1
 33 613 35 623 52 631 c 0
 59 635 67 636 69 636 c 0
 91 631 115 630 115 633 c 0
 115 634 137 636 137 630 c 0
 137 627 138 628 149 629 c 0
 156 630 185 630 215 630 c 0
 272 630 275 629 283 620 c 0
 286 616 287 613 286 592 c 0
 285 567 282 558 275 558 c 0
 273 558 270 558 270 557 c 0
 269 555 142 549 122 551 c 2
 108 553 l 1
 106 512 l 2
 104 453 105 370 108 366 c 0
 110 364 110 341 110 262 c 0
 110 207 110 160 111 159 c 0
 113 156 114 53 112 50 c 0
 111 49 110 35 110 19 c 2
 110 -10 l 1
 134 -10 l 2
 147 -10 158 -10 158 -9 c 0
 158 -9 174 -8 175 -7 c 0
 177 -3 218 -4 227 -8 c 0
 231 -10 239 -11 245 -11 c 0
 255 -11 256 -12 263 -19 c 0
 270 -26 270 -28 271 -45 c 0
 273 -74 274 -75 267 -82 c 0
 263 -86 259 -88 256 -88 c 0
 253 -88 251 -88 250 -89 c 0
 249 -90 205 -90 148 -89 c 0
 120 -88 70 -101 47 -89 c 0
 23 -77 15 -65 23 -25 c 0
 25 -16 26 6 27 23 c 0
 28 68 32 56 33 105 c 0
 34 136 34 145 31 153 c 0
 29 160 28 170 28 187 c 0
 29 224 29 246 29 283 c 0
 29 331 30 313 25 357 c 0
 22 384 22 399 23 452 c 0
 25 525 25 545 23 577 c 2
 22 601 l 1
EndSplineSet
Comment: "char_L8_P19_x5677_y4390_x5813_y4762_Ww+AD0APQAA.svg"
EndChar

StartChar: hyphen
Encoding: 45 45 95
Width: 482
VWidth: 446
Flags: HW
LayerCount: 2
Fore
SplineSet
250 316 m 0
 271 319 383 321 407 320 c 0
 426 319 427 319 433 313 c 0
 439 306 440 303 442 278 c 0
 443 259 441 253 431 246 c 0
 425 241 422 240 397 239 c 0
 369 237 307 236 281 235 c 0
 251 233 172 230 136 229 c 0
 116 229 93 227 85 226 c 0
 44 220 35 223 24 252 c 0
 14 277 25 289 45 297 c 0
 51 299 56 302 56 303 c 0
 56 306 81 309 119 310 c 0
 205 312 234 314 250 316 c 0
EndSplineSet
Comment: "char_L8_P1_x340_y4551_x549_y4600_LQ+AD0APQAA.svg"
EndChar

StartChar: bracketright
Encoding: 93 93 96
Width: 348
VWidth: 837
Flags: HW
LayerCount: 2
Fore
SplineSet
72 619 m 0
 101 618 122 623 147 619 c 0
 162 616 157 616 241 616 c 0
 267 616 275 616 281 613 c 0
 285 611 289 609 289 608 c 0
 289 607 291 604 294 600 c 0
 301 592 303 584 304 550 c 0
 306 476 311 251 307 211 c 0
 306 201 302 -59 301 -70 c 0
 299 -86 294 -91 283 -91 c 0
 280 -91 276 -93 275 -94 c 0
 271 -98 262 -99 250 -96 c 0
 242 -94 229 -93 207 -93 c 0
 160 -93 118 -95 114 -97 c 0
 112 -98 101 -98 89 -98 c 0
 70 -98 66 -97 56 -92 c 0
 50 -89 44 -87 43 -87 c 0
 42 -87 41 -87 41 -86 c 0
 41 -85 39 -82 37 -79 c 0
 32 -73 32 -70 36 -53 c 0
 40 -35 44 -24 47 -24 c 0
 49 -24 52 -23 53 -22 c 0
 56 -19 66 -16 73 -16 c 0
 96 -17 153 -16 177 -13 c 0
 184 -12 196 -12 205 -12 c 2
 221 -12 l 1
 223 -1 l 2
 224 5 224 51 224 101 c 0
 224 206 229 229 228 320 c 0
 228 386 225 517 223 530 c 2
 221 538 l 1
 180 539 l 2
 157 539 135 540 130 541 c 0
 123 543 119 543 114 541 c 0
 109 539 99 539 80 540 c 0
 36 542 29 546 24 566 c 0
 19 587 19 598 24 605 c 0
 29 612 33 614 40 614 c 0
 42 614 45 615 46 617 c 0
 48 619 54 619 72 619 c 0
EndSplineSet
Comment: "char_L8_P20_x6017_y4398_x6164_y4764_XQ+AD0APQAA.svg"
EndChar

StartChar: braceleft
Encoding: 123 123 97
Width: 286
VWidth: 874
Flags: HW
LayerCount: 2
Fore
SplineSet
45 323 m 0
 49 323 63 331 68 331 c 0
 71 331 78 334 84 339 c 0
 95 347 95 347 94 355 c 0
 92 368 81 384 76 397 c 0
 73 404 65 419 58 432 c 0
 41 463 38 474 33 518 c 0
 32 531 31 536 33 538 c 0
 34 539 35 543 35 547 c 0
 35 551 36 553 37 553 c 0
 38 553 39 555 39 556 c 0
 39 558 46 572 53 585 c 0
 57 592 78 612 83 614 c 0
 86 615 91 618 95 621 c 0
 109 632 133 642 144 642 c 0
 156 642 161 646 171 648 c 0
 178 649 207 646 217 643 c 0
 225 640 232 631 232 623 c 0
 232 607 227 585 223 580 c 0
 218 575 206 572 186 570 c 0
 168 568 157 566 150 561 c 0
 131 549 124 542 119 533 c 2
 114 524 l 1
 118 506 l 2
 127 461 143 463 155 423 c 0
 157 416 166 400 168 400 c 0
 169 400 171 394 173 386 c 0
 177 370 178 329 174 327 c 0
 173 326 172 323 171 319 c 0
 168 306 152 298 167 284 c 0
 171 280 175 276 175 275 c 0
 175 274 178 267 181 259 c 0
 189 240 193 213 189 194 c 0
 184 170 183 164 180 160 c 0
 179 158 176 150 174 144 c 0
 171 134 158 105 153 99 c 0
 150 96 134 62 134 60 c 0
 134 59 130 53 126 46 c 0
 111 23 116 3 136 -15 c 0
 144 -22 144 -22 154 -21 c 0
 160 -20 168 -20 172 -20 c 0
 176 -20 181 -19 184 -18 c 0
 197 -13 209 -14 221 -20 c 2
 233 -26 l 1
 240 -44 l 2
 247 -64 248 -73 243 -81 c 0
 240 -87 232 -91 224 -91 c 0
 222 -91 219 -92 218 -93 c 0
 217 -94 210 -96 203 -99 c 0
 192 -104 188 -105 169 -104 c 0
 149 -103 131 -99 125 -93 c 0
 124 -92 122 -91 121 -91 c 0
 114 -91 98 -76 91 -72 c 0
 76 -63 55 -45 55 -41 c 0
 55 -40 54 -38 52 -36 c 0
 46 -29 36 20 38 33 c 0
 44 71 46 75 57 94 c 0
 82 138 88 149 95 168 c 0
 99 179 104 194 106 203 c 2
 109 219 l 1
 104 229 l 2
 98 241 94 243 80 240 c 0
 72 238 68 240 50 245 c 0
 28 251 26 253 25 267 c 0
 24 276 20 281 20 291 c 0
 19 302 26 316 33 317 c 0
 38 318 41 323 45 323 c 0
EndSplineSet
Comment: "char_L8_P21_x6382_y4384_x6497_y4767_ew+AD0APQAA.svg"
EndChar

StartChar: braceright
Encoding: 125 125 98
Width: 303
VWidth: 893
Flags: HW
LayerCount: 2
Fore
SplineSet
73 655 m 0
 80 655 80 658 88 660 c 0
 98 663 110 661 122 660 c 0
 131 659 136 659 151 655 c 0
 178 648 184 645 194 633 c 0
 198 629 201 626 203 626 c 0
 205 626 208 618 214 611 c 0
 227 595 234 578 236 554 c 0
 239 525 235 497 227 473 c 0
 218 447 204 419 201 419 c 0
 200 419 198 418 198 417 c 0
 198 416 194 408 188 399 c 0
 177 381 171 368 171 362 c 0
 171 355 183 346 204 339 c 0
 215 335 227 331 230 331 c 0
 238 329 235 327 244 323 c 0
 251 320 258 314 258 311 c 0
 258 310 259 309 260 308 c 0
 269 301 260 281 258 273 c 0
 257 267 256 265 248 261 c 0
 237 256 232 251 219 249 c 0
 205 247 192 241 191 235 c 0
 189 226 196 197 204 179 c 0
 208 169 212 160 212 159 c 0
 212 158 213 155 215 153 c 0
 220 145 226 106 227 78 c 0
 229 37 220 -12 208 -35 c 0
 206 -39 204 -43 204 -44 c 0
 204 -47 193 -61 191 -61 c 0
 190 -61 188 -63 188 -64 c 0
 188 -74 165 -94 147 -100 c 0
 141 -102 131 -105 124 -107 c 0
 105 -113 111 -109 82 -108 c 0
 35 -106 18 -96 20 -72 c 0
 21 -59 32 -29 37 -26 c 0
 42 -23 61 -24 75 -27 c 0
 90 -31 97 -31 109 -27 c 0
 121 -23 128 -13 136 9 c 0
 142 26 148 73 146 87 c 0
 143 111 139 129 134 138 c 0
 122 163 118 173 118 177 c 0
 118 179 117 185 115 191 c 0
 109 215 107 229 109 246 c 0
 111 258 113 264 117 269 c 0
 120 273 121 277 121 278 c 0
 121 280 122 283 124 285 c 0
 127 289 126 289 113 302 c 0
 94 319 90 331 90 365 c 0
 90 391 95 407 106 421 c 0
 112 429 135 467 141 479 c 0
 157 511 166 553 142 569 c 0
 130 577 120 583 100 580 c 0
 87 578 86 578 77 584 c 0
 64 592 55 611 55 631 c 0
 55 639 56 642 62 648 c 0
 66 652 70 655 73 655 c 0
EndSplineSet
Comment: "char_L8_P22_x6665_y4377_x6790_y4770_fQ+AD0APQAA.svg"
EndChar

StartChar: slash
Encoding: 47 47 99
Width: 403
VWidth: 773
Flags: HW
LayerCount: 2
Fore
SplineSet
162 91 m 0
 162 90 145 56 145 56 c 1
 144 54 112 -10 112 -10 c 1
 113 -10 111 -14 108 -19 c 0
 104 -27 99 -40 98 -46 c 0
 97 -51 81 -62 73 -65 c 0
 65 -67 64 -68 50 -61 c 0
 42 -57 35 -54 33 -54 c 0
 32 -54 28 -52 25 -49 c 0
 16 -41 19 -24 33 8 c 0
 35 14 37 18 37 19 c 0
 37 23 51 45 53 49 c 0
 59 63 72 88 72 88 c 1
 70 88 91 122 89 122 c 0
 89 122 104 154 103 155 c 0
 102 156 105 163 109 171 c 0
 119 192 125 218 136 241 c 0
 139 248 142 255 142 256 c 0
 142 257 145 265 149 273 c 0
 162 303 165 322 176 341 c 0
 180 348 183 355 183 356 c 0
 183 361 216 426 218 431 c 0
 220 436 224 443 227 448 c 0
 235 461 228 456 238 469 c 0
 246 480 253 492 251 492 c 1
 259 504 274 530 281 543 c 0
 288 556 287 570 298 576 c 0
 306 581 313 580 332 573 c 0
 340 570 347 568 348 568 c 0
 352 567 360 559 362 553 c 0
 369 536 337 473 327 464 c 0
 325 462 306 427 306 427 c 1
 306 427 288 393 288 392 c 0
 288 390 272 361 273 360 c 0
 274 359 256 326 256 325 c 0
 255 321 242 295 241 291 c 0
 240 287 229 262 229 258 c 0
 229 257 226 248 222 240 c 0
 208 208 203 195 203 192 c 0
 203 187 191 164 190 159 c 0
 189 153 178 131 177 125 c 0
 176 121 162 95 162 91 c 0
EndSplineSet
Comment: "char_L8_P23_x6947_y4419_x7122_y4748_Lw+AD0APQAA.svg"
EndChar

StartChar: backslash
Encoding: 92 92 100
Width: 403
VWidth: 773
Flags: HW
LayerCount: 2
Fore
SplineSet
50 573 m 0
 59 577 70 579 74 579 c 0
 95 578 93 559 102 543 c 0
 109 528 115 518 125 504 c 0
 130 497 133 492 132 492 c 0
 130 492 137 481 145 470 c 0
 155 457 149 461 157 448 c 0
 160 443 164 436 166 431 c 0
 168 426 200 361 200 356 c 0
 200 354 215 328 215 326 c 0
 216 322 228 288 235 273 c 0
 239 265 241 257 241 256 c 0
 241 255 244 248 247 241 c 0
 258 218 264 192 274 171 c 0
 283 150 276 160 287 139 c 0
 291 130 294 122 294 122 c 1
 292 122 313 88 311 88 c 1
 313 83 332 45 339 32 c 0
 347 19 345 22 351 8 c 0
 365 -24 367 -41 358 -49 c 0
 355 -52 352 -54 351 -54 c 0
 349 -54 341 -57 333 -61 c 0
 319 -68 318 -67 310 -65 c 0
 302 -62 287 -51 286 -46 c 0
 285 -40 279 -27 275 -19 c 0
 272 -14 271 -10 272 -10 c 1
 271 -8 238 56 238 56 c 1
 238 56 222 90 222 91 c 0
 222 95 208 121 207 125 c 0
 206 131 194 153 193 159 c 0
 192 164 180 187 180 192 c 0
 180 195 175 208 161 240 c 0
 157 248 155 257 155 258 c 0
 155 262 143 287 142 291 c 0
 141 295 128 321 127 325 c 0
 127 326 110 359 111 360 c 0
 112 361 95 390 95 392 c 0
 95 393 77 427 77 427 c 2
 74 432 60 460 56 464 c 0
 52 468 36 495 30 510 c 0
 17 543 17 554 29 563 c 0
 32 565 34 567 34 567 c 1
 34 567 41 569 50 573 c 0
EndSplineSet
Comment: "char_L8_P24_x7241_y4419_x7416_y4748_XA+AD0APQAA.svg"
EndChar

StartChar: less
Encoding: 60 60 101
Width: 398
VWidth: 729
Flags: HW
LayerCount: 2
Fore
SplineSet
298 549 m 0
 315 557 316 561 337 539 c 0
 346 530 354 521 356 517 c 0
 363 503 366 507 269 409 c 0
 189 329 159 300 153 300 c 0
 151 300 122 278 121 275 c 0
 121 274 127 267 134 261 c 0
 149 248 198 195 213 181 c 0
 251 147 239 149 269 118 c 0
 294 91 287 94 313 69 c 0
 323 59 333 48 335 45 c 0
 337 42 341 36 344 33 c 0
 353 23 352 16 339 -3 c 0
 326 -21 326 -21 315 -24 c 0
 302 -28 291 -24 277 -12 c 0
 271 -6 263 2 261 6 c 0
 259 10 256 15 253 16 c 0
 250 17 242 25 235 33 c 0
 219 51 196 77 182 96 c 0
 166 117 140 132 126 154 c 0
 120 163 90 194 64 217 c 0
 40 239 23 258 21 268 c 0
 19 278 21 276 22 286 c 0
 24 302 29 308 43 314 c 0
 45 315 49 318 54 323 c 0
 58 327 72 339 85 348 c 0
 111 367 150 402 186 438 c 0
 199 452 212 463 213 463 c 0
 214 463 217 466 220 469 c 0
 239 493 288 544 298 549 c 0
EndSplineSet
Comment: "char_L8_P25_x7593_y4431_x7766_y4727_PA+AD0APQAA.svg"
EndChar

StartChar: greater
Encoding: 62 62 102
Width: 398
VWidth: 729
Flags: HW
LayerCount: 2
Fore
SplineSet
42 539 m 0
 63 561 64 557 81 549 c 0
 91 544 140 493 159 469 c 0
 162 466 165 463 166 463 c 0
 167 463 180 452 193 438 c 0
 229 402 268 367 294 348 c 0
 307 339 321 327 325 323 c 0
 330 318 334 315 336 314 c 0
 355 306 354 298 359 277 c 0
 359 276 359 272 358 268 c 0
 356 258 339 239 315 217 c 0
 289 194 259 163 253 154 c 0
 239 132 213 116 197 96 c 0
 183 77 160 51 144 33 c 0
 137 25 129 17 126 16 c 0
 123 15 120 10 118 6 c 0
 116 2 108 -6 102 -12 c 0
 88 -24 77 -28 64 -24 c 0
 53 -21 53 -21 40 -3 c 0
 27 16 26 23 35 33 c 0
 38 36 42 42 44 45 c 0
 47 52 85 87 89 93 c 0
 93 99 128 136 131 143 c 0
 134 149 147 164 166 181 c 0
 181 195 230 248 245 261 c 0
 252 267 258 274 258 275 c 0
 257 278 228 300 226 300 c 0
 220 300 189 329 110 409 c 0
 13 507 16 503 23 517 c 0
 25 521 33 530 42 539 c 0
EndSplineSet
Comment: "char_L8_P26_x7972_y4431_x8145_y4727_Pg+AD0APQAA.svg"
EndChar

StartChar: divide
Encoding: 247 247 103
Width: 512
VWidth: 641
Flags: HW
LayerCount: 2
Fore
SplineSet
236 500 m 2
 236 500 252 505 254 505 c 0
 262 505 275 499 276 495 c 0
 278 490 300 477 299 475 c 0
 299 475 299 472 300 469 c 0
 302 461 279 416 279 423 c 0
 279 425 272 418 268 411 c 0
 263 403 260 400 246 399 c 0
 210 396 212 405 197 421 c 0
 191 428 190 429 190 440 c 0
 190 457 204 481 214 484 c 0
 216 485 218 486 218 487 c 0
 218 488 234 499 236 500 c 2
372 329 m 0
 374 331 427 329 444 327 c 0
 460 325 462 324 467 319 c 0
 472 313 472 312 472 294 c 0
 472 281 471 273 469 268 c 0
 466 261 456 250 452 250 c 0
 440 249 295 248 225 248 c 0
 132 247 106 246 77 243 c 0
 56 240 61 243 45 245 c 0
 27 247 22 257 21 286 c 2
 20 300 l 1
 28 307 l 2
 32 311 36 314 38 314 c 0
 39 314 41 314 41 315 c 0
 41 317 59 321 82 323 c 0
 92 324 162 326 236 327 c 0
 310 328 372 329 372 329 c 0
227 162 m 0
 245 166 255 165 265 159 c 0
 274 153 275 153 287 130 c 0
 299 109 299 101 289 92 c 0
 286 89 283 86 283 85 c 0
 283 82 269 61 267 61 c 0
 266 61 262 59 259 56 c 0
 247 46 233 48 220 55 c 0
 215 58 209 59 208 59 c 0
 207 59 206 60 206 61 c 0
 206 62 205 63 203 64 c 0
 194 67 193 80 189 91 c 0
 184 105 189 108 189 120 c 0
 189 127 202 153 207 156 c 0
 209 157 218 160 227 162 c 0
EndSplineSet
Comment: "char_L8_P27_x8250_y4457_x8480_y4689_w7c+AD0A.svg"
EndChar

StartChar: plusminus
Encoding: 177 177 104
Width: 510
VWidth: 745
Flags: HW
LayerCount: 2
Fore
SplineSet
25 405 m 0
 28 405 29 411 32 411 c 0
 34 411 37 412 40 414 c 0
 46 419 57 422 71 424 c 0
 134 432 114 434 166 438 c 0
 183 439 198 440 199 441 c 0
 201 442 200 517 197 535 c 0
 193 562 195 564 216 576 c 0
 225 582 234 587 237 588 c 0
 241 590 256 590 258 588 c 0
 258 588 264 578 271 566 c 2
 285 544 l 1
 284 513 l 2
 284 496 283 476 282 468 c 0
 281 460 282 450 282 446 c 0
 283 437 278 438 330 433 c 0
 365 429 415 429 438 433 c 0
 446 434 447 435 453 429 c 0
 456 426 461 421 461 418 c 0
 465 400 468 376 467 372 c 0
 465 364 459 359 446 355 c 0
 428 349 363 348 327 352 c 0
 313 354 298 356 291 357 c 2
 279 358 l 1
 277 325 l 2
 275 288 277 269 282 257 c 0
 284 252 285 246 285 244 c 0
 284 238 280 231 278 231 c 0
 277 231 274 228 272 224 c 0
 268 217 261 213 254 213 c 0
 249 213 243 207 237 208 c 0
 225 210 223 211 218 214 c 0
 215 216 213 218 213 219 c 0
 213 220 211 224 208 228 c 0
 198 242 197 255 197 310 c 2
 197 360 l 1
 151 358 l 2
 107 356 97 355 58 358 c 0
 40 359 30 364 24 371 c 0
 21 375 16 405 25 405 c 0
250 178 m 0
 266 179 381 178 423 176 c 0
 463 174 464 173 469 164 c 0
 472 159 471 125 468 112 c 0
 466 104 460 97 452 95 c 0
 449 94 431 95 410 96 c 0
 379 97 314 99 286 99 c 0
 283 99 264 99 243 98 c 0
 204 97 165 91 114 80 c 0
 83 73 70 71 68 71 c 0
 63 71 56 73 50 77 c 0
 44 81 43 83 38 98 c 0
 32 117 29 115 36 130 c 0
 41 141 45 142 66 149 c 0
 81 154 100 159 128 164 c 0
 173 172 189 174 250 178 c 0
EndSplineSet
Comment: "char_L8_P28_x8621_y4414_x8850_y4678_wrE+AD0A.svg"
EndChar

StartChar: radical
Encoding: 8730 8730 105
Width: 573
VWidth: 857
Flags: HW
LayerCount: 2
Fore
SplineSet
276 636 m 0
 278 635 283 639 286 638 c 0
 323 624 343 621 432 622 c 0
 490 623 495 622 503 619 c 0
 508 617 512 616 513 616 c 0
 517 616 524 605 524 599 c 0
 524 596 526 590 529 585 c 0
 537 570 530 560 519 553 c 0
 507 546 511 546 499 541 c 0
 492 538 489 538 482 540 c 0
 468 544 434 546 397 543 c 0
 361 540 340 541 316 547 c 2
 306 550 l 1
 304 518 l 2
 301 479 300 436 295 408 c 0
 290 381 280 304 277 272 c 0
 276 259 269 223 268 211 c 0
 268 201 249 99 248 90 c 0
 230 -23 224 -51 216 -68 c 0
 212 -77 203 -85 197 -83 c 0
 195 -82 191 -83 189 -85 c 0
 182 -92 160 -88 153 -79 c 0
 151 -77 147 -70 144 -64 c 0
 115 -14 99 2 78 54 c 0
 70 73 46 137 39 143 c 0
 34 147 28 161 24 168 c 0
 18 178 19 186 27 197 c 0
 46 225 54 229 69 219 c 0
 90 205 116 180 116 174 c 0
 116 172 119 166 121 161 c 0
 124 156 129 143 133 132 c 0
 144 104 140 118 152 90 c 0
 158 75 161 70 162 73 c 0
 164 79 171 127 172 134 c 0
 175 146 186 223 191 244 c 0
 197 273 200 333 207 380 c 0
 214 429 219 468 223 514 c 0
 231 600 227 580 243 605 c 0
 248 611 275 637 276 636 c 0
EndSplineSet
Comment: "char_L8_P29_x9052_y4389_x9313_y4759_4oia.svg"
EndChar

StartChar: multiply
Encoding: 215 215 106
Width: 511
VWidth: 638
Flags: HW
LayerCount: 2
Fore
SplineSet
367 494 m 0
 375 497 400 493 400 488 c 0
 400 487 403 483 408 480 c 0
 423 470 428 463 429 451 c 0
 430 439 401 403 393 395 c 0
 388 389 369 365 351 342 c 0
 303 281 306 285 309 281 c 0
 312 276 332 261 339 257 c 0
 342 255 354 245 366 233 c 0
 397 202 423 166 450 117 c 0
 457 104 466 92 468 89 c 0
 478 79 466 66 463 58 c 0
 460 51 455 45 449 45 c 0
 445 45 432 34 429 35 c 0
 423 37 413 37 409 41 c 0
 407 43 404 45 402 46 c 0
 398 47 354 124 351 128 c 0
 332 154 288 198 272 208 c 0
 269 210 264 214 261 217 c 0
 256 222 256 222 251 218 c 0
 248 216 245 212 243 210 c 0
 233 194 180 139 170 126 c 0
 159 112 125 72 108 51 c 0
 78 14 69 11 48 26 c 0
 18 47 16 53 25 71 c 0
 30 81 45 103 53 111 c 0
 68 125 100 169 120 190 c 0
 129 199 137 209 139 212 c 0
 143 218 175 254 178 256 c 0
 179 257 184 261 188 266 c 2
 195 274 l 1
 186 284 l 2
 181 290 175 294 174 294 c 0
 171 294 102 362 85 381 c 0
 79 388 74 395 74 396 c 0
 74 397 71 402 67 408 c 0
 62 416 60 421 60 427 c 0
 60 435 61 437 75 451 c 0
 89 465 91 466 97 465 c 0
 105 464 106 464 117 455 c 0
 130 445 127 451 141 437 c 0
 169 408 243 340 246 340 c 0
 248 340 290 392 312 421 c 0
 319 430 327 441 332 446 c 0
 337 452 340 457 341 462 c 0
 343 472 354 477 359 485 c 0
 361 489 365 493 367 494 c 0
EndSplineSet
Comment: "char_L8_P2_x664_y4462_x894_y4705_w5c+AD0A.svg"
EndChar

StartChar: Sigma
Encoding: 931 931 107
Width: 547
VWidth: 850
Flags: HW
LayerCount: 2
Fore
SplineSet
103 637 m 0
 105 640 141 642 146 642 c 0
 149 642 154 641 157 640 c 0
 162 638 218 636 220 634 c 0
 224 631 273 632 282 635 c 0
 289 638 360 640 360 637 c 0
 360 636 369 635 381 634 c 0
 417 632 423 637 457 638 c 0
 476 639 476 638 482 632 c 0
 485 629 488 625 488 623 c 0
 488 621 491 616 494 613 c 0
 499 608 500 603 504 583 c 2
 508 559 l 1
 504 548 l 2
 499 536 496 540 496 527 c 0
 496 515 489 509 476 509 c 0
 464 509 436 512 435 514 c 0
 434 515 432 516 429 518 c 0
 418 524 417 539 419 552 c 1
 400 552 l 2
 389 552 373 553 365 555 c 0
 352 558 343 558 311 557 c 0
 253 555 253 546 190 557 c 0
 181 559 181 558 195 537 c 0
 205 522 235 485 238 485 c 0
 239 485 246 476 254 466 c 0
 262 456 273 441 279 434 c 0
 285 427 289 420 289 418 c 0
 289 416 291 413 293 410 c 0
 298 404 315 369 323 350 c 0
 330 333 332 321 328 301 c 0
 327 292 321 284 316 284 c 0
 315 284 315 283 315 281 c 0
 315 278 304 272 302 274 c 0
 301 275 301 273 301 271 c 0
 301 269 297 263 291 257 c 0
 276 241 262 223 262 220 c 0
 262 218 253 207 241 194 c 0
 217 168 213 162 191 129 c 0
 171 100 175 107 158 80 c 0
 152 70 145 61 143 59 c 0
 136 52 122 30 123 29 c 0
 124 28 126 29 129 30 c 0
 136 33 178 33 180 30 c 0
 181 29 186 28 195 29 c 0
 213 30 257 31 273 34 c 0
 290 38 295 31 312 34 c 0
 318 35 342 36 363 36 c 0
 400 36 401 37 402 41 c 0
 403 46 414 58 418 58 c 0
 419 58 424 60 429 64 c 0
 438 71 445 73 458 71 c 0
 460 71 466 66 473 59 c 2
 486 47 l 1
 487 32 l 2
 489 9 487 -11 478 -25 c 0
 468 -40 467 -37 452 -42 c 0
 447 -44 440 -45 435 -45 c 0
 430 -45 425 -46 423 -47 c 0
 420 -48 365 -43 363 -44 c 0
 361 -45 314 -47 310 -47 c 0
 301 -47 290 -45 279 -47 c 0
 265 -50 203 -50 188 -52 c 0
 169 -54 159 -48 139 -51 c 0
 126 -53 119 -54 104 -52 c 0
 69 -48 72 -47 52 -37 c 0
 42 -32 35 -26 34 -21 c 0
 34 -19 31 -16 29 -14 c 0
 24 -9 21 -2 20 4 c 0
 18 17 39 56 62 84 c 0
 79 105 111 150 127 177 c 0
 139 197 160 225 168 231 c 0
 171 233 173 237 173 238 c 0
 173 242 205 278 206 282 c 0
 207 286 244 327 244 331 c 0
 244 337 222 376 215 384 c 0
 203 396 192 415 179 429 c 0
 151 459 139 474 132 487 c 0
 121 508 117 509 104 531 c 0
 98 541 90 552 87 555 c 0
 77 566 73 576 72 591 c 0
 71 605 74 613 77 613 c 0
 80 613 75 617 78 617 c 0
 79 617 82 621 85 625 c 0
 88 630 93 633 96 634 c 0
 99 635 102 636 103 637 c 0
EndSplineSet
Comment: "char_L8_P30_x9444_y4387_x9692_y4741_zqM+AD0A.svg"
EndChar

StartChar: asterisk
Encoding: 42 42 108
Width: 514
VWidth: 680
Flags: HW
LayerCount: 2
Fore
SplineSet
226 518 m 0
 230 521 234 524 235 524 c 0
 241 524 271 517 275 515 c 0
 281 512 290 483 288 472 c 0
 287 467 288 461 289 457 c 0
 293 446 295 399 296 385 c 2
 298 370 l 1
 313 388 319 395 341 419 c 0
 358 437 365 443 373 447 c 0
 393 456 399 453 416 429 c 0
 429 410 432 402 427 392 c 0
 426 390 413 377 400 363 c 0
 369 332 347 304 352 303 c 0
 354 303 371 301 391 300 c 0
 421 298 430 299 438 301 c 0
 461 307 464 287 471 272 c 0
 474 264 476 259 475 253 c 0
 473 240 466 230 460 230 c 0
 458 230 456 229 456 228 c 0
 456 222 418 219 382 222 c 2
 363 224 l 1
 383 200 404 175 414 168 c 0
 434 153 427 146 419 130 c 0
 415 122 406 107 404 107 c 0
 403 107 400 107 397 105 c 0
 392 103 383 101 374 102 c 0
 368 102 347 121 332 138 c 0
 318 155 312 160 300 175 c 1
 298 162 l 2
 297 147 294 109 291 53 c 0
 289 21 291 14 280 4 c 0
 275 -1 274 0 255 1 c 0
 224 3 217 6 213 23 c 0
 209 40 213 127 218 153 c 0
 220 160 216 161 212 155 c 0
 208 150 152 97 152 99 c 0
 152 100 148 97 144 92 c 0
 128 76 117 74 100 86 c 0
 79 100 77 103 77 115 c 0
 77 123 78 127 82 133 c 0
 85 137 87 141 87 142 c 0
 87 143 87 145 88 145 c 0
 89 145 107 163 127 184 c 2
 164 222 l 1
 131 222 l 2
 106 222 42 220 32 228 c 0
 22 235 20 242 20 259 c 0
 20 276 22 279 31 284 c 0
 44 291 118 300 146 302 c 0
 176 304 183 300 164 316 c 0
 143 334 113 363 105 375 c 0
 95 389 88 403 86 413 c 0
 85 420 85 421 95 431 c 0
 109 445 115 446 131 434 c 0
 148 421 159 415 177 400 c 0
 195 385 207 377 212 374 c 0
 216 372 216 372 215 380 c 0
 215 384 214 407 213 430 c 0
 212 466 213 476 216 493 c 0
 219 511 220 513 226 518 c 0
EndSplineSet
Comment: "char_L8_P3_x976_y4447_x1208_y4714_Kg+AD0APQAA.svg"
EndChar

StartChar: exclam
Encoding: 33 33 109
Width: 186
VWidth: 780
Flags: HW
LayerCount: 2
Fore
SplineSet
74 584 m 0
 92 590 95 590 101 587 c 0
 109 583 114 576 120 556 c 0
 134 511 133 517 133 421 c 0
 132 341 133 265 133 226 c 0
 133 206 131 202 121 196 c 0
 119 195 116 193 116 191 c 0
 116 187 108 182 100 181 c 0
 91 180 62 193 57 200 c 0
 51 208 50 221 52 308 c 0
 54 421 54 481 51 487 c 0
 48 495 46 527 44 536 c 0
 36 569 38 573 74 584 c 0
103 89 m 0
 106 89 123 64 125 64 c 0
 126 64 129 61 134 56 c 0
 143 47 145 35 147 21 c 0
 150 4 134 -8 126 -19 c 0
 116 -31 106 -40 103 -40 c 0
 101 -40 97 -43 94 -45 c 0
 89 -49 85 -49 73 -49 c 0
 60 -49 57 -48 51 -44 c 0
 47 -41 42 -38 41 -38 c 0
 36 -38 29 -29 23 -10 c 0
 17 9 19 31 27 47 c 0
 37 66 41 71 60 85 c 0
 76 97 78 97 87 97 c 0
 94 97 98 96 99 93 c 0
 100 91 102 89 103 89 c 0
EndSplineSet
Comment: "char_L8_P4_x1342_y4414_x1407_y4739_IQ+AD0APQAA.svg"
EndChar

StartChar: question
Encoding: 63 63 110
Width: 428
VWidth: 804
Flags: HW
LayerCount: 2
Fore
SplineSet
155 596 m 0
 160 602 230 612 253 611 c 0
 266 611 301 602 307 597 c 0
 309 595 311 593 312 593 c 0
 320 592 341 576 349 572 c 0
 354 570 368 553 368 549 c 0
 368 548 370 546 372 544 c 0
 377 539 385 517 387 504 c 0
 390 484 388 462 383 443 c 0
 377 423 359 384 351 375 c 0
 349 373 348 371 347 369 c 0
 345 363 315 330 298 316 c 0
 274 296 230 266 207 255 c 0
 203 253 196 249 193 246 c 0
 187 241 188 242 190 232 c 0
 196 210 216 177 205 157 c 0
 202 151 199 150 179 143 c 0
 165 138 155 136 152 137 c 0
 145 139 134 150 132 157 c 0
 130 167 126 169 123 180 c 0
 117 200 109 222 108 247 c 0
 108 264 107 263 119 286 c 0
 123 294 145 310 177 329 c 0
 218 354 239 369 254 383 c 0
 269 397 294 433 300 449 c 0
 304 459 308 488 306 488 c 0
 305 488 303 492 302 498 c 0
 299 511 292 517 269 525 c 0
 248 532 228 531 198 524 c 0
 168 517 152 508 127 483 c 0
 109 465 105 460 98 444 c 0
 96 439 89 428 84 423 c 0
 83 422 82 420 82 419 c 0
 82 418 79 415 76 412 c 0
 70 406 70 407 56 408 c 0
 34 410 28 415 20 427 c 1
 24 454 l 2
 26 472 28 482 31 487 c 0
 38 500 55 524 62 532 c 0
 66 536 70 540 70 541 c 0
 70 543 101 567 112 573 c 0
 123 580 119 582 131 586 c 0
 141 589 154 594 155 596 c 0
171 90 m 0
 174 91 181 92 186 92 c 0
 199 91 225 63 234 53 c 0
 243 42 244 41 244 31 c 2
 244 21 l 1
 225 -1 l 2
 207 -21 205 -23 196 -26 c 0
 186 -29 180 -29 175 -29 c 0
 174 -29 163 -20 151 -9 c 0
 129 12 129 8 126 27 c 0
 125 31 131 44 138 55 c 0
 146 67 165 87 171 90 c 0
EndSplineSet
Comment: "char_L8_P5_x1485_y4403_x1672_y4729_Pw+AD0APQAA.svg"
EndChar

StartChar: numbersign
Encoding: 35 35 111
Width: 531
VWidth: 745
Flags: HW
LayerCount: 2
Fore
SplineSet
400 145 m 0
 387 145 379 141 367 141 c 0
 362 141 358 140 357 139 c 0
 353 133 349 36 352 33 c 0
 354 31 354 22 352 16 c 0
 349 9 332 3 326 -2 c 0
 318 -8 312 -6 302 -5 c 0
 291 -4 282 3 273 18 c 0
 269 24 270 26 271 72 c 0
 272 98 272 122 273 125 c 0
 274 129 274 129 272 128 c 0
 268 127 220 121 220 117 c 0
 220 109 213 23 213 14 c 0
 213 2 211 -7 206 -28 c 0
 204 -38 200 -44 192 -46 c 0
 190 -47 187 -49 186 -50 c 0
 185 -52 179 -53 169 -53 c 0
 157 -53 153 -53 148 -50 c 0
 141 -45 138 -42 138 -40 c 0
 138 -39 134 -34 130 -30 c 0
 123 -23 123 -22 123 -14 c 0
 123 -9 124 -4 125 -3 c 0
 129 2 132 20 134 55 c 0
 136 81 136 93 138 105 c 1
 125 104 l 2
 102 103 62 94 45 106 c 0
 35 112 32 119 30 134 c 0
 29 145 29 146 35 153 c 0
 43 162 49 165 67 169 c 0
 89 174 82 177 110 181 c 0
 146 186 144 186 146 195 c 0
 148 204 161 296 155 296 c 0
 151 296 100 288 85 285 c 0
 69 281 65 284 54 279 c 0
 43 273 37 276 28 289 c 0
 20 300 19 301 20 311 c 0
 20 317 21 323 22 324 c 0
 23 325 34 333 46 341 c 0
 61 351 70 355 74 355 c 0
 77 355 86 357 94 359 c 0
 116 365 132 369 137 369 c 0
 139 369 142 370 142 371 c 0
 142 372 147 373 154 374 c 0
 163 375 168 377 169 379 c 0
 171 383 174 434 177 448 c 0
 181 466 185 498 189 518 c 0
 191 529 193 540 193 543 c 0
 193 549 201 560 205 561 c 0
 207 562 216 562 227 562 c 0
 245 562 247 561 250 557 c 0
 254 552 256 538 257 502 c 0
 258 464 261 484 257 441 c 0
 255 423 254 402 253 395 c 0
 252 382 252 381 262 385 c 0
 265 386 277 387 290 388 c 2
 314 390 l 1
 320 422 l 2
 327 460 328 449 335 478 c 0
 341 501 348 533 362 542 c 2
 370 547 l 1
 387 542 l 2
 417 534 417 530 404 444 c 0
 399 415 397 403 395 389 c 1
 406 389 l 2
 412 389 427 390 440 391 c 0
 466 393 474 392 476 384 c 0
 477 381 477 379 478 379 c 0
 480 379 485 370 485 365 c 0
 485 360 493 347 492 341 c 0
 491 339 491 337 491 336 c 0
 492 334 481 322 476 320 c 0
 448 305 381 312 381 309 c 0
 380 308 368 223 369 222 c 0
 369 222 377 223 387 224 c 0
 397 225 419 226 436 226 c 0
 471 226 474 225 481 211 c 0
 485 203 486 169 482 162 c 0
 476 151 473 149 441 147 c 0
 424 146 406 145 400 145 c 0
284 211 m 0
 284 215 297 296 298 300 c 0
 299 307 299 308 295 308 c 0
 293 308 280 306 266 305 c 2
 241 304 l 1
 238 281 l 2
 235 256 231 241 229 219 c 0
 228 212 228 205 227 203 c 0
 226 200 228 201 244 204 c 0
 251 205 284 209 284 211 c 0
EndSplineSet
Comment: "char_L8_P6_x1701_y4428_x1941_y4741_Iw+AD0APQAA.svg"
EndChar

StartChar: at
Encoding: 64 64 112
Width: 536
VWidth: 721
Flags: HW
LayerCount: 2
Fore
SplineSet
217 391 m 0
 220 391 236 405 239 405 c 0
 240 405 241 406 241 407 c 0
 241 408 246 411 265 418 c 0
 280 424 324 419 336 411 c 0
 339 409 342 407 343 407 c 0
 346 407 362 392 362 390 c 0
 362 389 365 385 369 380 c 0
 376 372 376 371 375 360 c 0
 374 348 370 345 376 338 c 0
 386 327 388 318 390 269 c 0
 390 261 392 254 393 253 c 0
 396 250 408 266 413 279 c 0
 423 304 419 348 404 387 c 0
 399 399 392 413 389 418 c 0
 380 431 352 460 344 464 c 0
 323 475 285 483 257 475 c 0
 234 468 219 460 202 445 c 0
 170 417 124 345 106 297 c 0
 96 270 93 233 99 197 c 0
 105 158 131 116 160 101 c 0
 172 95 204 91 232 92 c 0
 264 94 324 107 366 122 c 0
 389 130 398 130 405 120 c 0
 408 116 410 113 411 113 c 0
 412 113 413 112 413 111 c 0
 413 110 415 106 418 102 c 0
 423 95 424 87 418 82 c 0
 417 81 415 78 414 75 c 0
 413 69 395 57 377 50 c 0
 331 31 266 17 218 16 c 0
 197 15 166 17 161 20 c 0
 159 21 155 22 151 23 c 0
 142 25 118 37 107 44 c 0
 96 51 81 66 71 79 c 0
 67 84 64 88 63 88 c 0
 60 88 44 115 44 120 c 0
 44 122 43 125 42 126 c 0
 38 130 31 154 26 172 c 0
 21 192 20 200 20 241 c 0
 20 268 21 271 33 316 c 0
 43 354 89 432 127 480 c 0
 135 490 171 522 179 526 c 0
 211 543 243 554 284 557 c 0
 310 558 317 558 337 551 c 0
 349 547 370 541 379 534 c 0
 383 532 388 528 392 527 c 0
 400 524 430 495 445 475 c 0
 456 461 470 432 474 421 c 0
 475 416 477 413 478 413 c 0
 480 413 488 384 488 383 c 0
 506 345 494 246 471 222 c 0
 466 216 436 179 432 183 c 0
 431 184 424 181 417 178 c 0
 405 173 402 172 387 172 c 0
 371 172 357 176 354 180 c 0
 353 181 351 183 348 185 c 0
 338 191 325 209 324 217 c 0
 323 221 322 225 321 225 c 0
 319 227 281 190 257 184 c 0
 241 181 224 176 209 177 c 0
 198 178 195 180 181 190 c 0
 162 204 166 203 157 221 c 0
 152 230 153 234 153 254 c 0
 153 301 165 326 182 351 c 0
 194 368 214 391 217 391 c 0
305 349 m 0
 296 352 288 349 273 340 c 0
 255 329 255 328 241 305 c 0
 232 290 230 284 227 271 c 0
 225 262 224 254 225 253 c 0
 226 252 229 253 234 255 c 0
 251 263 265 275 275 287 c 0
 280 294 286 301 288 303 c 0
 290 305 293 311 294 315 c 0
 295 319 298 328 302 335 c 0
 308 346 308 348 305 349 c 0
EndSplineSet
Comment: "char_L8_P7_x2027_y4430_x2270_y4706_QA+AD0APQAA.svg"
EndChar

StartChar: dollar
Encoding: 36 36 113
Width: 458
VWidth: 807
Flags: HW
LayerCount: 2
Fore
SplineSet
181 602 m 0
 184 607 186 608 194 607 c 0
 202 606 203 605 207 598 c 0
 210 592 211 585 211 564 c 2
 212 538 l 1
 222 538 l 2
 228 538 235 537 237 537 c 0
 242 537 241 552 243 555 c 0
 244 556 246 564 249 572 c 0
 255 592 257 595 271 592 c 0
 287 588 288 584 285 548 c 0
 284 532 285 530 296 530 c 0
 308 530 352 522 355 519 c 0
 357 517 359 517 360 517 c 0
 362 517 368 508 371 499 c 0
 373 492 372 491 365 475 c 0
 354 452 351 450 298 458 c 2
 280 461 l 1
 281 451 l 2
 282 440 279 408 277 402 c 0
 276 398 277 399 296 400 c 0
 321 402 330 397 348 390 c 0
 357 386 375 373 384 363 c 0
 402 343 413 319 417 294 c 0
 419 277 420 221 417 202 c 0
 414 181 400 140 393 129 c 0
 390 125 388 121 388 120 c 0
 388 115 358 81 345 71 c 0
 339 66 330 61 324 58 c 0
 295 45 286 41 284 41 c 0
 283 41 281 39 279 37 c 0
 275 34 275 32 276 9 c 0
 277 -9 276 -17 274 -20 c 0
 268 -31 278 -51 261 -49 c 0
 256 -48 255 -48 254 -41 c 0
 252 -29 244 -24 239 -13 c 0
 235 -4 231 -1 231 7 c 0
 231 25 219 19 195 19 c 2
 172 19 l 1
 172 0 l 2
 170 -32 167 -47 158 -60 c 0
 154 -65 153 -65 144 -64 c 0
 132 -62 131 -62 131 -49 c 0
 131 -44 129 -39 128 -38 c 0
 126 -36 126 -25 125 -1 c 2
 124 34 l 1
 111 43 l 2
 88 58 53 94 44 117 c 0
 43 120 40 124 38 126 c 0
 36 128 32 141 27 155 c 0
 17 186 20 178 23 201 c 0
 24 217 29 216 46 221 c 0
 63 227 68 225 68 218 c 0
 68 214 76 200 80 195 c 0
 82 193 86 186 89 180 c 0
 99 161 106 152 117 140 c 0
 127 129 128 129 129 134 c 0
 132 143 131 161 133 172 c 0
 137 192 139 221 141 243 c 0
 143 265 142 268 135 266 c 0
 131 265 112 275 109 275 c 0
 106 275 86 288 86 290 c 0
 86 291 83 294 81 297 c 0
 73 306 64 321 61 334 c 0
 57 350 55 403 58 405 c 0
 59 406 60 409 60 411 c 0
 60 417 66 437 67 442 c 0
 69 453 88 485 96 493 c 0
 104 501 101 505 112 511 c 0
 117 514 121 516 120 517 c 0
 119 518 120 519 121 519 c 0
 122 519 125 520 129 523 c 0
 135 527 159 536 165 536 c 0
 168 536 170 541 171 557 c 0
 172 576 177 596 181 602 c 0
227 441 m 0
 227 451 232 464 229 466 c 0
 227 467 223 467 218 467 c 2
 210 467 l 1
 210 457 l 2
 210 435 206 423 205 395 c 2
 203 367 l 1
 212 372 l 2
 218 375 221 377 221 380 c 0
 221 403 227 418 227 441 c 0
156 400 m 0
 157 415 161 456 161 456 c 1
 158 456 151 445 144 429 c 0
 136 411 135 408 134 388 c 0
 133 371 134 364 137 359 c 0
 141 350 145 346 149 346 c 0
 153 346 153 351 156 400 c 0
328 305 m 0
 317 319 313 322 298 320 c 0
 279 318 270 314 270 307 c 0
 270 302 269 245 268 241 c 0
 267 239 266 191 267 130 c 2
 267 118 l 1
 279 124 l 2
 287 128 296 135 307 146 c 0
 322 161 323 163 328 180 c 0
 336 205 339 235 337 272 c 0
 336 284 335 294 335 295 c 0
 335 296 332 300 328 305 c 0
214 239 m 0
 214 262 213 281 213 281 c 0
 213 281 209 281 204 279 c 0
 193 275 194 277 188 217 c 0
 182 147 179 116 176 98 c 1
 194 97 l 2
 213 96 216 98 214 104 c 0
 213 106 213 127 213 152 c 0
 213 177 214 216 214 239 c 0
EndSplineSet
Comment: "char_L8_P8_x2365_y4405_x2569_y4747_JA+AD0APQAA.svg"
EndChar

StartChar: percent
Encoding: 37 37 114
Width: 556
VWidth: 657
Flags: HW
LayerCount: 2
Fore
SplineSet
113 499 m 0
 125 504 138 506 158 505 c 0
 188 504 201 492 218 480 c 0
 224 476 219 476 225 470 c 0
 228 467 230 465 230 464 c 0
 230 463 232 457 235 451 c 0
 249 421 239 395 226 365 c 0
 216 341 206 332 193 316 c 0
 175 293 153 274 133 263 c 0
 123 257 95 252 85 254 c 0
 34 265 13 313 22 387 c 0
 24 404 41 450 47 454 c 0
 48 455 50 458 52 462 c 0
 57 472 76 489 84 491 c 0
 91 492 98 496 104 497 c 0
 106 497 110 498 113 499 c 0
171 421 m 1
 165 426 161 432 151 432 c 0
 141 432 124 426 117 419 c 0
 113 416 110 415 105 415 c 0
 96 415 94 412 89 390 c 0
 86 379 86 370 87 353 c 0
 88 322 92 317 106 324 c 0
 128 335 164 384 169 410 c 2
 171 421 l 1
446 462 m 0
 460 462 466 437 465 425 c 0
 465 423 464 419 464 415 c 0
 464 408 458 397 454 397 c 0
 453 397 446 391 439 383 c 0
 423 366 344 288 344 288 c 2
 332 275 237 176 224 159 c 0
 211 141 171 98 157 79 c 0
 141 58 120 37 113 36 c 0
 109 35 104 38 91 46 c 0
 70 60 70 61 70 71 c 0
 70 85 82 105 120 156 c 0
 161 211 207 264 217 270 c 0
 220 272 226 278 230 284 c 0
 234 290 258 314 283 339 c 0
 342 398 378 436 379 441 c 0
 380 447 386 456 389 456 c 0
 392 456 407 468 410 469 c 0
 417 471 433 468 438 465 c 0
 441 463 444 462 446 462 c 0
383 235 m 0
 388 235 406 222 410 222 c 0
 412 222 415 219 417 216 c 0
 420 211 422 210 433 208 c 0
 447 206 479 193 486 187 c 0
 505 171 518 153 516 146 c 0
 516 145 515 140 515 135 c 0
 514 113 500 87 488 75 c 0
 472 57 471 54 438 29 c 0
 402 1 349 -18 313 16 c 0
 302 26 287 47 287 52 c 0
 287 54 286 57 286 59 c 0
 280 91 280 93 283 112 c 0
 290 166 319 229 367 234 c 0
 374 235 381 235 383 235 c 0
439 127 m 0
 439 133 389 141 376 143 c 0
 371 144 366 145 365 146 c 0
 362 148 355 128 352 109 c 0
 350 91 351 76 356 70 c 0
 360 66 359 66 369 69 c 0
 384 74 403 86 414 97 c 0
 425 109 439 125 439 127 c 0
EndSplineSet
Comment: "char_L8_P9_x2634_y4457_x2887_y4715_JQ+AD0APQAA.svg"
EndChar

StartChar: one
Encoding: 49 49 115
Width: 150
VWidth: 733
Flags: HW
LayerCount: 2
Fore
SplineSet
62 567 m 0
 92 573 97 570 101 551 c 0
 115 474 113 503 109 273 c 0
 106 112 103 41 100 34 c 0
 97 27 90 20 83 19 c 0
 78 18 42 23 33 27 c 0
 30 28 26 33 24 37 c 0
 20 44 19 45 21 63 c 0
 26 104 28 298 29 344 c 0
 30 373 30 418 29 444 c 0
 26 529 26 546 31 554 c 0
 35 561 37 562 62 567 c 0
EndSplineSet
Comment: "char_L9_P0_x279_y5343_x326_y5622_MQ+AD0APQAA.svg"
EndChar

StartChar: integral
Encoding: 8747 8747 116
Width: 593
VWidth: 1064
Flags: HW
LayerCount: 2
Fore
SplineSet
54 -132 m 0
 54 -130 41 -111 41 -109 c 0
 41 -106 23 -80 22 -77 c 0
 20 -73 20 -70 21 -60 c 0
 21 -55 53 -27 67 -30 c 0
 70 -30 74 -31 75 -31 c 0
 76 -31 83 -41 92 -52 c 0
 101 -63 114 -77 120 -84 c 2
 132 -96 l 1
 144 -83 l 2
 180 -45 209 11 216 59 c 0
 220 85 224 99 228 126 c 0
 233 161 249 242 256 278 c 0
 263 313 276 370 279 404 c 0
 280 414 282 427 283 433 c 0
 284 439 285 445 285 446 c 0
 284 447 287 462 290 478 c 0
 295 506 299 544 304 569 c 0
 306 580 309 619 312 629 c 0
 315 639 315 651 316 665 c 0
 319 694 337 740 351 754 c 0
 359 762 382 775 392 778 c 0
 395 779 401 779 404 778 c 0
 407 777 422 777 437 777 c 0
 468 776 480 773 488 765 c 0
 491 762 494 760 495 760 c 0
 499 760 525 727 533 713 c 0
 537 704 544 695 547 692 c 0
 551 688 553 686 553 681 c 0
 553 673 548 660 544 658 c 0
 542 657 541 653 540 650 c 0
 538 642 536 639 527 633 c 0
 515 626 506 627 489 638 c 0
 481 643 474 650 473 653 c 0
 465 670 460 678 452 687 c 2
 443 697 l 1
 432 697 421 698 410 698 c 1
 406 684 l 2
 398 661 390 616 388 587 c 0
 387 568 382 539 380 523 c 0
 377 496 375 484 373 481 c 0
 372 479 371 476 372 475 c 0
 373 473 371 461 368 448 c 0
 359 401 360 386 348 326 c 0
 345 313 342 291 340 279 c 0
 338 267 335 254 334 251 c 0
 331 245 331 225 329 218 c 0
 325 200 307 102 303 75 c 0
 299 46 290 19 285 -1 c 0
 283 -8 272 -36 270 -37 c 0
 268 -38 244 -87 243 -88 c 0
 241 -89 235 -98 228 -107 c 0
 213 -128 192 -151 185 -155 c 0
 182 -157 173 -161 165 -165 c 0
 150 -173 151 -173 128 -173 c 0
 106 -173 105 -172 97 -166 c 0
 92 -163 87 -160 84 -159 c 0
 79 -158 54 -135 54 -132 c 0
EndSplineSet
Comment: "char_L9_P10_x3296_y5237_x3567_y5719_4oir.svg"
EndChar

StartChar: equal
Encoding: 61 61 117
Width: 535
VWidth: 596
Flags: HW
LayerCount: 2
Fore
SplineSet
328 440 m 0
 372 440 382 444 415 450 c 0
 442 455 461 454 469 446 c 0
 474 441 475 438 477 423 c 0
 481 397 480 391 475 385 c 0
 468 377 458 373 451 375 c 0
 448 376 443 375 441 374 c 0
 439 373 422 369 405 366 c 0
 381 362 365 360 336 360 c 0
 175 357 199 358 155 352 c 0
 112 346 53 344 49 348 c 0
 47 349 44 351 41 351 c 0
 38 351 33 354 28 359 c 2
 20 366 l 1
 20 384 l 2
 20 394 20 403 20 404 c 0
 21 419 68 421 77 424 c 0
 97 431 235 440 328 440 c 0
410 260 m 0
 440 264 479 276 489 253 c 0
 493 243 497 248 495 234 c 0
 494 229 493 221 493 215 c 0
 494 196 488 190 466 188 c 0
 457 187 441 185 430 182 c 0
 401 175 366 174 310 179 c 0
 287 181 261 183 252 183 c 0
 232 183 164 178 110 173 c 0
 88 171 63 169 55 169 c 0
 42 169 39 170 35 174 c 0
 32 177 30 179 30 180 c 0
 30 181 30 183 29 183 c 0
 27 183 19 221 22 222 c 0
 23 222 24 223 24 224 c 0
 24 233 51 239 60 243 c 0
 64 245 70 246 72 246 c 0
 74 246 76 247 76 248 c 0
 79 257 254 266 305 260 c 0
 344 256 380 255 410 260 c 0
EndSplineSet
Comment: "char_L9_P11_x3763_y5402_x4004_y5546_PQ+AD0APQAA.svg"
EndChar

StartChar: approxequal
Encoding: 8776 8776 118
Width: 667
VWidth: 658
Flags: HW
LayerCount: 2
Fore
SplineSet
163 469 m 0
 192 476 178 477 209 477 c 0
 231 477 274 469 277 465 c 0
 278 464 283 462 290 460 c 0
 317 452 364 425 407 393 c 0
 436 371 436 370 456 378 c 0
 473 384 490 399 519 431 c 0
 542 457 545 459 555 459 c 0
 561 459 582 448 590 440 c 0
 592 438 596 434 599 432 c 0
 606 426 606 414 600 402 c 0
 594 391 565 357 549 344 c 0
 534 331 534 329 519 320 c 0
 514 317 510 315 509 314 c 0
 504 308 464 293 456 294 c 0
 455 294 452 293 450 292 c 0
 448 291 439 291 427 293 c 0
 404 296 389 303 373 317 c 0
 351 337 299 372 279 380 c 0
 256 389 217 397 202 396 c 0
 199 396 188 393 175 389 c 0
 143 379 125 364 106 341 c 0
 93 325 77 309 67 304 c 0
 58 299 50 301 37 312 c 0
 12 333 16 348 34 374 c 0
 37 379 41 384 41 385 c 0
 41 389 64 416 73 422 c 0
 78 425 85 431 90 435 c 0
 113 453 130 461 163 469 c 0
189 300 m 0
 201 302 220 301 234 298 c 0
 269 290 299 276 328 265 c 0
 363 252 366 250 387 229 c 0
 396 220 400 219 416 214 c 2
 435 208 l 1
 454 213 l 2
 478 219 482 222 500 232 c 0
 513 239 529 253 545 274 c 0
 564 298 568 302 576 302 c 0
 582 302 587 299 599 291 c 0
 620 277 626 272 627 265 c 0
 629 255 628 252 608 225 c 0
 585 193 555 167 536 160 c 0
 532 158 524 155 519 151 c 0
 510 145 483 135 472 135 c 0
 470 135 462 134 456 132 c 0
 445 129 426 129 413 131 c 0
 403 133 371 141 367 143 c 0
 356 149 346 155 336 166 c 0
 324 179 319 182 293 191 c 0
 283 195 266 201 256 206 c 0
 215 226 166 228 151 193 c 0
 147 184 133 169 122 169 c 0
 117 169 106 172 97 175 c 0
 74 183 74 184 81 213 c 0
 88 242 90 246 104 260 c 0
 127 284 149 294 189 300 c 0
EndSplineSet
Comment: "char_L9_P12_x4163_y5390_x4470_y5566_4omI.svg"
EndChar

